M48
;Layer_Color=9474304
;FILE_FORMAT=2:5
INCH,LZ
;TYPE=PLATED
T1F00S00C0.01496
T2F00S00C0.02756
T3F00S00C0.03543
T4F00S00C0.03937
%
T01
X0259842Y0013484
X0256201Y0024409
X0251969Y0027657
X0264567Y004311
X0268209Y004311
X027185Y0043012
X0275492Y0043012
X0279035Y0043012
X0282283Y0039862
X0282382Y0034252
X0289271Y0033366
X0291831Y0037205
X0304331Y0043799
X0304527Y0023622
X0301771Y0018602
X0289271Y0018602
X0289567Y0014961
X0286024Y0022441
X0286516Y0004134
X0304134Y0003642
X0242421Y0012992
X0239961Y0015551
X0240354Y0019488
X0245473Y0017421
X0248654Y002254
X0239567Y0026083
X02375Y0029823
X0242717Y003061
X0229134Y003061
X0229429Y0026083
X0229232Y0020669
X0230752Y0017224
X023248Y0022539
X0216535Y0023425
Y0026673
Y0029823
X0216437Y0037598
X0222441Y0036713
X0222342Y0040256
X0219193Y0043701
X0222441Y0032874
X0204921Y003622
X0202067Y004311
X0197638Y0040748
X0193996Y0039665
X0189862Y0036614
X0186122Y00375
X0182776Y0038386
X0182382Y0046555
X018248Y0057776
X0170374Y0060335
X0171063Y0051083
X0162402Y0051181
X0166437Y0042717
X0172146Y0041831
X016998Y0037992
X0168307Y003248
X0170004Y0026379
X0171481Y002323
X0165673Y0022934
X0165021Y0019526
X0156791Y0016634
X0156299Y0012992
X0158957Y0008563
X015315Y0004331
X0147343Y0008661
X0136713Y0010531
X0133858Y0014075
X0125984Y0014567
X0126279Y0007776
X0129831Y0004224
X011615Y0005405
X01125Y0009154
X0111614Y0016732
X0103248Y0008957
Y003878
X0119882Y0037697
X0119882Y0032382
X0130315Y0032185
Y0037697
X0125098Y0042126
X0152854Y004311
X015Y0046161
X0148425Y0035827
X0154059Y0037207
X0160925Y0036614
X0156398Y0024508
X0147047Y0022441
X0136614Y0022343
X0176205Y0021064
X017965Y0021162
X0177067Y0013386
X0175886Y0008268
X0180118Y0004626
X0188386Y0004134
X0199016Y0004134
X0204232Y0009252
X019626Y0012795
X0196752Y0016535
X019626Y0022835
X0205118Y0020472
X0216831Y0011516
X0222441Y0011122
X0222342Y0004232
X0166831Y0004724
X0157677Y0060236
X0153937Y0056988
X0193209Y005
X020187Y0057776
X024626Y0043209
X0083268Y0039173
X0072835Y0031496
Y001378
X0064173Y0007874
X0037402
X0027756Y0014173
X0009154Y0007874
X0008661Y003937
X0024803
X003937
X0061024
T02
X0174803Y0029429
X017874
Y0033366
X0174803
T03
X0005709Y001378
Y0023622
Y0033465
X0018701
Y0023622
Y001378
T04
X0103248Y0018622
Y0028622
X0083563
Y0018622
M30
