M48
;Layer_Color=9474304
;FILE_FORMAT=2:5
INCH,LZ
T7F00S00C0.20000
%
G90
G05
T07
G00X0311239Y-00098
M15
G01X0313148Y-000921
G01X03149Y-0008252
G01X0316428Y-0006965
G01X0317669Y-00054
G01X0318574Y-0003619
G01X0319107Y-0001694
G01X0319252Y0
G01X0319252Y0047244
G01X0319052Y0049232
G01X0318462Y005114
G01X0317504Y0052893
G01X0316217Y005442
G01X0314651Y0055661
G01X0312871Y0056566
G01X0310946Y00571
G01X0309252Y0057244
G01X021876Y0057244
G01X021876Y0062992
G01X021856Y006498
G01X021797Y0066888
G01X0217012Y0068641
G01X0215724Y0070168
G01X0214159Y0071409
G01X0212379Y0072314
G01X0210454Y0072848
G01X020876Y0072992
G01X0143831Y0072992
G01X0141843Y0072793
G01X0139935Y0072202
G01X0138182Y0071244
G01X0136655Y0069957
G01X0135414Y0068392
G01X0134508Y0066611
G01X0133975Y0064686
G01X0133831Y0062992
G01X0133831Y0057244
G01X0093406Y0057244
G01X0091418Y0057045
G01X008951Y0056454
G01X0087757Y0055496
G01X008623Y0054209
G01X0085515Y0053307
G01X0Y0053307
G01X-0001988Y0053108
G01X-0003896Y0052517
G01X-0005648Y0051559
G01X-0007176Y0050272
G01X-0008417Y0048707
G01X-0009322Y0046926
G01X-0009855Y0045001
G01X-001Y0043307
G01X-001Y0003937
G01X-00098Y0001949
G01X-000921Y0000041
G01X-0008252Y-0001711
G01X-0006965Y-0003239
G01X-00054Y-000448
G01X-0003619Y-0005385
G01X-0001694Y-0005918
G01X0Y-0006063
G01X0085503Y-0006063
G01X0086441Y-0007176
G01X0088006Y-0008417
G01X0089787Y-0009322
G01X0091712Y-0009855
G01X0093406Y-001
G01X0309252Y-001
G01X0311239Y-00098
M16
M17
M30
