G04 Layer_Color=8421504*
%FSLAX25Y25*%
%MOIN*%
G70*
G01*
G75*
%ADD10O,0.01102X0.03347*%
%ADD11O,0.03347X0.01102*%
%ADD12R,0.03347X0.01102*%
%ADD13R,0.08071X0.08071*%
%ADD15R,0.05315X0.02559*%
G04:AMPARAMS|DCode=16|XSize=53.15mil|YSize=25.59mil|CornerRadius=6.4mil|HoleSize=0mil|Usage=FLASHONLY|Rotation=0.000|XOffset=0mil|YOffset=0mil|HoleType=Round|Shape=RoundedRectangle|*
%AMROUNDEDRECTD16*
21,1,0.05315,0.01280,0,0,0.0*
21,1,0.04035,0.02559,0,0,0.0*
1,1,0.01280,0.02018,-0.00640*
1,1,0.01280,-0.02018,-0.00640*
1,1,0.01280,-0.02018,0.00640*
1,1,0.01280,0.02018,0.00640*
%
%ADD16ROUNDEDRECTD16*%
%ADD17R,0.02165X0.03110*%
%ADD18R,0.03150X0.03150*%
%ADD19R,0.01969X0.08268*%
%ADD20R,0.08268X0.01969*%
G04:AMPARAMS|DCode=21|XSize=82.68mil|YSize=19.69mil|CornerRadius=4.92mil|HoleSize=0mil|Usage=FLASHONLY|Rotation=270.000|XOffset=0mil|YOffset=0mil|HoleType=Round|Shape=RoundedRectangle|*
%AMROUNDEDRECTD21*
21,1,0.08268,0.00984,0,0,270.0*
21,1,0.07284,0.01969,0,0,270.0*
1,1,0.00984,-0.00492,-0.03642*
1,1,0.00984,-0.00492,0.03642*
1,1,0.00984,0.00492,0.03642*
1,1,0.00984,0.00492,-0.03642*
%
%ADD21ROUNDEDRECTD21*%
%ADD22R,0.07992X0.12520*%
%ADD24R,0.06299X0.10630*%
%ADD25R,0.04724X0.03937*%
%ADD26R,0.03150X0.03150*%
%ADD27R,0.02756X0.02362*%
%ADD28R,0.02362X0.02756*%
%ADD29R,0.02559X0.05315*%
G04:AMPARAMS|DCode=30|XSize=53.15mil|YSize=25.59mil|CornerRadius=6.4mil|HoleSize=0mil|Usage=FLASHONLY|Rotation=90.000|XOffset=0mil|YOffset=0mil|HoleType=Round|Shape=RoundedRectangle|*
%AMROUNDEDRECTD30*
21,1,0.05315,0.01280,0,0,90.0*
21,1,0.04035,0.02559,0,0,90.0*
1,1,0.01280,0.00640,0.02018*
1,1,0.01280,0.00640,-0.02018*
1,1,0.01280,-0.00640,-0.02018*
1,1,0.01280,-0.00640,0.02018*
%
%ADD30ROUNDEDRECTD30*%
D10*
X174803Y24606D02*
D03*
X176772D02*
D03*
X178740D02*
D03*
X180709D02*
D03*
X172835D02*
D03*
Y38189D02*
D03*
X180709D02*
D03*
X178740D02*
D03*
X176772D02*
D03*
X174803D02*
D03*
D11*
X183563Y34350D02*
D03*
Y28445D02*
D03*
X169980Y34350D02*
D03*
D12*
Y28445D02*
D03*
D13*
X176772Y31398D02*
D03*
D15*
X126772Y18504D02*
D03*
Y25984D02*
D03*
X117323Y22244D02*
D03*
X117323Y18504D02*
D03*
X151575Y12598D02*
D03*
Y16535D02*
D03*
Y20472D02*
D03*
X151575Y24409D02*
D03*
X161024D02*
D03*
Y28346D02*
D03*
Y20472D02*
D03*
Y16535D02*
D03*
Y12598D02*
D03*
X191535Y12598D02*
D03*
Y16535D02*
D03*
Y20472D02*
D03*
X191535Y24409D02*
D03*
X200984D02*
D03*
Y28346D02*
D03*
Y20472D02*
D03*
Y16535D02*
D03*
Y12598D02*
D03*
D16*
X117323Y25984D02*
D03*
X151575Y28346D02*
D03*
X191535Y28346D02*
D03*
D17*
X171870Y13091D02*
D03*
Y8169D02*
D03*
X180098D02*
D03*
Y13091D02*
D03*
D18*
X122638Y9055D02*
D03*
X116142D02*
D03*
X122441Y13484D02*
D03*
X116142D02*
D03*
D19*
X256988Y7087D02*
D03*
X253838D02*
D03*
X260138D02*
D03*
X238090D02*
D03*
X234941D02*
D03*
X228642D02*
D03*
X231791D02*
D03*
X244390D02*
D03*
X241240D02*
D03*
X247539D02*
D03*
X250689D02*
D03*
X225492D02*
D03*
X275886Y36811D02*
D03*
X272736D02*
D03*
X266437D02*
D03*
X269586D02*
D03*
X256988D02*
D03*
X253838D02*
D03*
X260138D02*
D03*
X263287D02*
D03*
X238090D02*
D03*
X234941D02*
D03*
X228642D02*
D03*
X231791D02*
D03*
X244390D02*
D03*
X241240D02*
D03*
X247539D02*
D03*
X250689D02*
D03*
X225492D02*
D03*
D20*
X222933Y14075D02*
D03*
Y29823D02*
D03*
Y20374D02*
D03*
Y17224D02*
D03*
Y23524D02*
D03*
Y26673D02*
D03*
D21*
X279035Y36811D02*
D03*
D22*
X73091Y22638D02*
D03*
X28485D02*
D03*
D24*
X113288Y34843D02*
D03*
X125099D02*
D03*
D25*
X132874Y18406D02*
D03*
Y26280D02*
D03*
D26*
X129823Y7776D02*
D03*
Y14075D02*
D03*
X157677Y57087D02*
D03*
Y50787D02*
D03*
X160925Y39370D02*
D03*
Y33071D02*
D03*
X202067Y39370D02*
D03*
Y33071D02*
D03*
X111614Y20374D02*
D03*
Y26673D02*
D03*
D27*
X166740Y16346D02*
D03*
Y12016D02*
D03*
X183071Y49902D02*
D03*
Y54232D02*
D03*
X166043Y37894D02*
D03*
Y33563D02*
D03*
X185335Y12008D02*
D03*
Y16339D02*
D03*
X197638Y34055D02*
D03*
Y38386D02*
D03*
X156397Y34055D02*
D03*
Y38386D02*
D03*
D28*
X157972Y45768D02*
D03*
X153642D02*
D03*
X166823Y8276D02*
D03*
X162492D02*
D03*
X222441Y43701D02*
D03*
X226772D02*
D03*
X234449Y43701D02*
D03*
X230118D02*
D03*
X238583Y43701D02*
D03*
X242913D02*
D03*
X261319D02*
D03*
X256988D02*
D03*
D29*
X178287Y46457D02*
D03*
X174350D02*
D03*
X170413D02*
D03*
X166476Y46457D02*
D03*
Y55905D02*
D03*
X162539D02*
D03*
X170413D02*
D03*
X174350D02*
D03*
X178287D02*
D03*
D30*
X162539Y46457D02*
D03*
M02*
