G04 Layer_Color=8388736*
%FSLAX25Y25*%
%MOIN*%
G70*
G01*
G75*
%ADD50O,0.03740X0.01496*%
%ADD51O,0.01496X0.03740*%
%ADD52R,0.08871X0.08871*%
%ADD53R,0.03740X0.01496*%
%ADD54C,0.03900*%
%ADD55R,0.06115X0.03359*%
G04:AMPARAMS|DCode=56|XSize=61.15mil|YSize=33.59mil|CornerRadius=10.4mil|HoleSize=0mil|Usage=FLASHONLY|Rotation=0.000|XOffset=0mil|YOffset=0mil|HoleType=Round|Shape=RoundedRectangle|*
%AMROUNDEDRECTD56*
21,1,0.06115,0.01280,0,0,0.0*
21,1,0.04035,0.03359,0,0,0.0*
1,1,0.02080,0.02018,-0.00640*
1,1,0.02080,-0.02018,-0.00640*
1,1,0.02080,-0.02018,0.00640*
1,1,0.02080,0.02018,0.00640*
%
%ADD56ROUNDEDRECTD56*%
%ADD57R,0.03359X0.06115*%
G04:AMPARAMS|DCode=58|XSize=61.15mil|YSize=33.59mil|CornerRadius=10.4mil|HoleSize=0mil|Usage=FLASHONLY|Rotation=90.000|XOffset=0mil|YOffset=0mil|HoleType=Round|Shape=RoundedRectangle|*
%AMROUNDEDRECTD58*
21,1,0.06115,0.01280,0,0,90.0*
21,1,0.04035,0.03359,0,0,90.0*
1,1,0.02080,0.00640,0.02018*
1,1,0.02080,0.00640,-0.02018*
1,1,0.02080,-0.00640,-0.02018*
1,1,0.02080,-0.00640,0.02018*
%
%ADD58ROUNDEDRECTD58*%
%ADD59R,0.02965X0.03910*%
%ADD60R,0.03950X0.03950*%
%ADD61R,0.02769X0.09068*%
G04:AMPARAMS|DCode=62|XSize=90.68mil|YSize=27.69mil|CornerRadius=8.92mil|HoleSize=0mil|Usage=FLASHONLY|Rotation=270.000|XOffset=0mil|YOffset=0mil|HoleType=Round|Shape=RoundedRectangle|*
%AMROUNDEDRECTD62*
21,1,0.09068,0.00984,0,0,270.0*
21,1,0.07284,0.02769,0,0,270.0*
1,1,0.01784,-0.00492,-0.03642*
1,1,0.01784,-0.00492,0.03642*
1,1,0.01784,0.00492,0.03642*
1,1,0.01784,0.00492,-0.03642*
%
%ADD62ROUNDEDRECTD62*%
%ADD63R,0.09068X0.02769*%
%ADD64R,0.08792X0.13320*%
%ADD65C,0.35039*%
%ADD66R,0.07099X0.11430*%
%ADD67R,0.05524X0.04737*%
%ADD68R,0.03950X0.03950*%
%ADD69R,0.03162X0.03556*%
%ADD70R,0.03556X0.03162*%
%ADD71C,0.00800*%
%ADD72C,0.07493*%
%ADD73R,0.07887X0.07887*%
%ADD74C,0.07887*%
%ADD75C,0.03556*%
D50*
X169980Y34350D02*
D03*
X183563Y28445D02*
D03*
Y34350D02*
D03*
D51*
X174803Y38189D02*
D03*
X176772D02*
D03*
X178740D02*
D03*
X180709D02*
D03*
X172835D02*
D03*
Y24606D02*
D03*
X180709D02*
D03*
X178740D02*
D03*
X176772D02*
D03*
X174803D02*
D03*
D52*
X176772Y31398D02*
D03*
D53*
X169980Y28445D02*
D03*
D54*
X293071Y28622D02*
D03*
Y23622D02*
D03*
Y13622D02*
D03*
Y18622D02*
D03*
X298071D02*
D03*
Y13622D02*
D03*
Y23622D02*
D03*
Y28622D02*
D03*
Y33622D02*
D03*
X293071D02*
D03*
D55*
X117323Y18504D02*
D03*
X117323Y22244D02*
D03*
X126772Y25984D02*
D03*
Y18504D02*
D03*
X161024Y12598D02*
D03*
Y16535D02*
D03*
Y20472D02*
D03*
Y28346D02*
D03*
Y24409D02*
D03*
X151575D02*
D03*
X151575Y20472D02*
D03*
Y16535D02*
D03*
Y12598D02*
D03*
X200984Y12598D02*
D03*
Y16535D02*
D03*
Y20472D02*
D03*
Y28346D02*
D03*
Y24409D02*
D03*
X191535D02*
D03*
X191535Y20472D02*
D03*
Y16535D02*
D03*
Y12598D02*
D03*
D56*
X117323Y25984D02*
D03*
X151575Y28346D02*
D03*
X191535Y28346D02*
D03*
D57*
X178287Y55905D02*
D03*
X174350D02*
D03*
X170413D02*
D03*
X162539D02*
D03*
X166476D02*
D03*
Y46457D02*
D03*
X170413Y46457D02*
D03*
X174350D02*
D03*
X178287D02*
D03*
D58*
X162539Y46457D02*
D03*
D59*
X180098Y13091D02*
D03*
Y8169D02*
D03*
X171870D02*
D03*
Y13091D02*
D03*
D60*
X116142Y9055D02*
D03*
X122638D02*
D03*
X116142Y13484D02*
D03*
X122441D02*
D03*
D61*
X225492Y36811D02*
D03*
X250689D02*
D03*
X247539D02*
D03*
X241240D02*
D03*
X244390D02*
D03*
X231791D02*
D03*
X228642D02*
D03*
X234941D02*
D03*
X238090D02*
D03*
X263287D02*
D03*
X260138D02*
D03*
X253838D02*
D03*
X256988D02*
D03*
X269586D02*
D03*
X266437D02*
D03*
X272736D02*
D03*
X275886D02*
D03*
X225492Y7087D02*
D03*
X250689D02*
D03*
X247539D02*
D03*
X241240D02*
D03*
X244390D02*
D03*
X231791D02*
D03*
X228642D02*
D03*
X234941D02*
D03*
X238090D02*
D03*
X260138D02*
D03*
X253838D02*
D03*
X256988D02*
D03*
D62*
X279035Y36811D02*
D03*
D63*
X222933Y26673D02*
D03*
Y23524D02*
D03*
Y17224D02*
D03*
Y20374D02*
D03*
Y29823D02*
D03*
Y14075D02*
D03*
D64*
X28485Y22638D02*
D03*
X73091D02*
D03*
D65*
X50788D02*
D03*
D66*
X125099Y34843D02*
D03*
X113288D02*
D03*
D67*
X132874Y26280D02*
D03*
Y18406D02*
D03*
D68*
X157677Y50787D02*
D03*
Y57087D02*
D03*
X129823Y14075D02*
D03*
Y7776D02*
D03*
X111614Y26673D02*
D03*
Y20374D02*
D03*
X202067Y33071D02*
D03*
Y39370D02*
D03*
X160925Y33071D02*
D03*
Y39370D02*
D03*
D69*
X153642Y45768D02*
D03*
X157972D02*
D03*
X256988Y43701D02*
D03*
X261319D02*
D03*
X242913D02*
D03*
X238583D02*
D03*
X230118Y43701D02*
D03*
X234449D02*
D03*
X226772Y43701D02*
D03*
X222441D02*
D03*
X162492Y8276D02*
D03*
X166823D02*
D03*
D70*
X166740Y12016D02*
D03*
Y16346D02*
D03*
X156397Y38386D02*
D03*
Y34055D02*
D03*
X197638Y38386D02*
D03*
Y34055D02*
D03*
X185335Y16339D02*
D03*
Y12008D02*
D03*
X166043Y33563D02*
D03*
Y37894D02*
D03*
X183071Y54232D02*
D03*
Y49902D02*
D03*
D71*
X291571Y8622D02*
D03*
X299571D02*
D03*
X295571Y38622D02*
D03*
X210236Y0D02*
D03*
X93405Y47244D02*
D03*
Y0D02*
D03*
X142323D02*
D03*
D72*
X5709Y13780D02*
D03*
Y33465D02*
D03*
Y23622D02*
D03*
X18701Y33465D02*
D03*
Y13780D02*
D03*
Y23622D02*
D03*
D73*
X103248Y18622D02*
D03*
X83563D02*
D03*
D74*
X103248Y28622D02*
D03*
X83563D02*
D03*
D75*
X174803Y33366D02*
D03*
X178740D02*
D03*
Y29429D02*
D03*
X174803D02*
D03*
M02*
