G04 Layer_Color=32896*
%FSLAX25Y25*%
%MOIN*%
G70*
G01*
G75*
%ADD32C,0.01000*%
%ADD48C,0.00500*%
%ADD49C,0.03937*%
G36*
X77658Y9843D02*
X22532D01*
Y37303D01*
X77658D01*
Y9843D01*
D02*
G37*
%LPC*%
G36*
X35524Y35303D02*
X35012D01*
Y18128D01*
X35524D01*
Y35303D01*
D02*
G37*
G36*
X34501D02*
X33734D01*
Y18128D01*
X34501D01*
Y35303D01*
D02*
G37*
G36*
X37057D02*
X36546D01*
Y18128D01*
X37057D01*
Y35303D01*
D02*
G37*
G36*
X36290D02*
X36035D01*
Y18128D01*
X36290D01*
Y35303D01*
D02*
G37*
G36*
X31689D02*
X31178D01*
Y18128D01*
X31689D01*
Y35303D01*
D02*
G37*
G36*
X30667D02*
X30411D01*
Y18128D01*
X30667D01*
Y35303D01*
D02*
G37*
G36*
X33479D02*
X33223D01*
Y18128D01*
X33479D01*
Y35303D01*
D02*
G37*
G36*
X32712D02*
X31945D01*
Y18128D01*
X32712D01*
Y35303D01*
D02*
G37*
G36*
X42937D02*
X42426D01*
Y18128D01*
X42937D01*
Y35303D01*
D02*
G37*
G36*
X41914D02*
X41147D01*
Y18128D01*
X41914D01*
Y35303D01*
D02*
G37*
G36*
X44726D02*
X44215D01*
Y18128D01*
X44726D01*
Y35303D01*
D02*
G37*
G36*
X43959D02*
X43448D01*
Y18128D01*
X43959D01*
Y35303D01*
D02*
G37*
G36*
X39102D02*
X38847D01*
Y18128D01*
X39102D01*
Y35303D01*
D02*
G37*
G36*
X38335D02*
X37569D01*
Y18128D01*
X38335D01*
Y35303D01*
D02*
G37*
G36*
X40892D02*
X40636D01*
Y18128D01*
X40892D01*
Y35303D01*
D02*
G37*
G36*
X40380D02*
X39869D01*
Y18128D01*
X40380D01*
Y35303D01*
D02*
G37*
G36*
X57901Y16352D02*
X57792D01*
X57728Y16343D01*
X57664Y16334D01*
X57509Y16316D01*
X57327Y16279D01*
X57136Y16233D01*
X56945Y16161D01*
X56762Y16070D01*
X56753D01*
X56744Y16060D01*
X56680Y16015D01*
X56598Y15960D01*
X56498Y15869D01*
X56380Y15769D01*
X56261Y15641D01*
X56152Y15505D01*
X56052Y15341D01*
Y15332D01*
X56043Y15323D01*
X56015Y15268D01*
X55979Y15177D01*
X55933Y15067D01*
X55888Y14931D01*
X55851Y14776D01*
X55824Y14612D01*
X55815Y14439D01*
Y14421D01*
Y14366D01*
X55824Y14293D01*
X55842Y14211D01*
X55879Y14111D01*
X55915Y14020D01*
X55979Y13947D01*
X56061Y13883D01*
X56070Y13874D01*
X56106Y13865D01*
X56161Y13847D01*
X56234Y13828D01*
X56334Y13801D01*
X56453Y13783D01*
X56589Y13774D01*
X56744Y13765D01*
X58958D01*
Y13747D01*
Y13701D01*
X58949Y13628D01*
X58940Y13528D01*
X58921Y13428D01*
X58894Y13309D01*
X58858Y13191D01*
X58812Y13072D01*
X58803Y13063D01*
X58785Y13027D01*
X58748Y12972D01*
X58703Y12908D01*
X58648Y12835D01*
X58575Y12763D01*
X58502Y12699D01*
X58411Y12635D01*
X58402Y12626D01*
X58366Y12617D01*
X58311Y12589D01*
X58247Y12562D01*
X58165Y12535D01*
X58065Y12517D01*
X57956Y12498D01*
X57846Y12489D01*
X57774D01*
X57728Y12498D01*
X57610Y12508D01*
X57482Y12535D01*
X57473D01*
X57455Y12544D01*
X57418Y12553D01*
X57373Y12571D01*
X57272Y12617D01*
X57154Y12681D01*
X57145Y12690D01*
X57127Y12699D01*
X57099Y12717D01*
X57063Y12744D01*
X56963Y12817D01*
X56862Y12899D01*
X56853Y12908D01*
X56835Y12918D01*
X56808Y12945D01*
X56771Y12981D01*
X56717Y13027D01*
X56662Y13081D01*
X56516Y13218D01*
X56498Y13227D01*
X56453Y13255D01*
X56380Y13282D01*
X56270Y13291D01*
X56243D01*
X56207Y13282D01*
X56170D01*
X56079Y13246D01*
X56033Y13227D01*
X55988Y13191D01*
X55979D01*
X55970Y13173D01*
X55933Y13127D01*
X55897Y13045D01*
X55879Y12990D01*
Y12927D01*
Y12918D01*
Y12899D01*
X55888Y12863D01*
X55897Y12826D01*
X55906Y12772D01*
X55924Y12708D01*
X55961Y12635D01*
X55997Y12562D01*
X56006Y12553D01*
X56015Y12526D01*
X56052Y12489D01*
X56088Y12435D01*
X56134Y12380D01*
X56198Y12316D01*
X56270Y12243D01*
X56362Y12171D01*
X56371Y12161D01*
X56407Y12143D01*
X56462Y12107D01*
X56525Y12061D01*
X56617Y12016D01*
X56726Y11961D01*
X56844Y11915D01*
X56972Y11861D01*
X56990Y11852D01*
X57036Y11842D01*
X57108Y11824D01*
X57218Y11806D01*
X57336Y11779D01*
X57482Y11761D01*
X57646Y11751D01*
X57819Y11742D01*
X57919D01*
X58001Y11751D01*
X58092Y11761D01*
X58193Y11779D01*
X58311Y11797D01*
X58439Y11824D01*
X58712Y11897D01*
X58858Y11943D01*
X58994Y12007D01*
X59131Y12079D01*
X59268Y12161D01*
X59395Y12252D01*
X59513Y12362D01*
X59523Y12371D01*
X59541Y12389D01*
X59568Y12426D01*
X59605Y12471D01*
X59650Y12535D01*
X59705Y12617D01*
X59759Y12699D01*
X59814Y12808D01*
X59869Y12918D01*
X59923Y13045D01*
X59978Y13182D01*
X60024Y13337D01*
X60060Y13500D01*
X60088Y13665D01*
X60106Y13856D01*
X60115Y14047D01*
Y14056D01*
Y14065D01*
Y14093D01*
Y14129D01*
X60106Y14229D01*
X60097Y14348D01*
X60078Y14493D01*
X60051Y14648D01*
X60015Y14812D01*
X59969Y14976D01*
Y14986D01*
X59960Y14995D01*
X59942Y15049D01*
X59905Y15131D01*
X59860Y15231D01*
X59796Y15341D01*
X59723Y15468D01*
X59641Y15596D01*
X59541Y15714D01*
X59532Y15732D01*
X59486Y15769D01*
X59422Y15824D01*
X59340Y15887D01*
X59240Y15969D01*
X59122Y16042D01*
X58985Y16124D01*
X58830Y16188D01*
X58821D01*
X58812Y16197D01*
X58757Y16215D01*
X58666Y16243D01*
X58557Y16270D01*
X58420Y16297D01*
X58266Y16325D01*
X58083Y16343D01*
X57901Y16352D01*
D02*
G37*
G36*
X46103D02*
X45994D01*
X45930Y16343D01*
X45866Y16334D01*
X45711Y16316D01*
X45529Y16279D01*
X45338Y16233D01*
X45146Y16161D01*
X44964Y16070D01*
X44955D01*
X44946Y16060D01*
X44882Y16015D01*
X44800Y15960D01*
X44700Y15869D01*
X44582Y15769D01*
X44463Y15641D01*
X44354Y15505D01*
X44254Y15341D01*
Y15332D01*
X44245Y15323D01*
X44217Y15268D01*
X44181Y15177D01*
X44135Y15067D01*
X44090Y14931D01*
X44053Y14776D01*
X44026Y14612D01*
X44017Y14439D01*
Y14421D01*
Y14366D01*
X44026Y14293D01*
X44044Y14211D01*
X44080Y14111D01*
X44117Y14020D01*
X44181Y13947D01*
X44263Y13883D01*
X44272Y13874D01*
X44308Y13865D01*
X44363Y13847D01*
X44436Y13828D01*
X44536Y13801D01*
X44655Y13783D01*
X44791Y13774D01*
X44946Y13765D01*
X47160D01*
Y13747D01*
Y13701D01*
X47151Y13628D01*
X47142Y13528D01*
X47123Y13428D01*
X47096Y13309D01*
X47060Y13191D01*
X47014Y13072D01*
X47005Y13063D01*
X46987Y13027D01*
X46950Y12972D01*
X46905Y12908D01*
X46850Y12835D01*
X46777Y12763D01*
X46704Y12699D01*
X46613Y12635D01*
X46604Y12626D01*
X46567Y12617D01*
X46513Y12589D01*
X46449Y12562D01*
X46367Y12535D01*
X46267Y12517D01*
X46158Y12498D01*
X46048Y12489D01*
X45975D01*
X45930Y12498D01*
X45811Y12508D01*
X45684Y12535D01*
X45675D01*
X45656Y12544D01*
X45620Y12553D01*
X45575Y12571D01*
X45474Y12617D01*
X45356Y12681D01*
X45347Y12690D01*
X45329Y12699D01*
X45301Y12717D01*
X45265Y12744D01*
X45165Y12817D01*
X45064Y12899D01*
X45055Y12908D01*
X45037Y12918D01*
X45010Y12945D01*
X44973Y12981D01*
X44919Y13027D01*
X44864Y13081D01*
X44718Y13218D01*
X44700Y13227D01*
X44655Y13255D01*
X44582Y13282D01*
X44472Y13291D01*
X44445D01*
X44409Y13282D01*
X44372D01*
X44281Y13246D01*
X44235Y13227D01*
X44190Y13191D01*
X44181D01*
X44172Y13173D01*
X44135Y13127D01*
X44099Y13045D01*
X44080Y12990D01*
Y12927D01*
Y12918D01*
Y12899D01*
X44090Y12863D01*
X44099Y12826D01*
X44108Y12772D01*
X44126Y12708D01*
X44162Y12635D01*
X44199Y12562D01*
X44208Y12553D01*
X44217Y12526D01*
X44254Y12489D01*
X44290Y12435D01*
X44336Y12380D01*
X44399Y12316D01*
X44472Y12243D01*
X44563Y12171D01*
X44572Y12161D01*
X44609Y12143D01*
X44664Y12107D01*
X44727Y12061D01*
X44818Y12016D01*
X44928Y11961D01*
X45046Y11915D01*
X45174Y11861D01*
X45192Y11852D01*
X45237Y11842D01*
X45310Y11824D01*
X45420Y11806D01*
X45538Y11779D01*
X45684Y11761D01*
X45848Y11751D01*
X46021Y11742D01*
X46121D01*
X46203Y11751D01*
X46294Y11761D01*
X46395Y11779D01*
X46513Y11797D01*
X46640Y11824D01*
X46914Y11897D01*
X47060Y11943D01*
X47196Y12007D01*
X47333Y12079D01*
X47469Y12161D01*
X47597Y12252D01*
X47715Y12362D01*
X47725Y12371D01*
X47743Y12389D01*
X47770Y12426D01*
X47807Y12471D01*
X47852Y12535D01*
X47907Y12617D01*
X47961Y12699D01*
X48016Y12808D01*
X48071Y12918D01*
X48125Y13045D01*
X48180Y13182D01*
X48226Y13337D01*
X48262Y13500D01*
X48289Y13665D01*
X48308Y13856D01*
X48317Y14047D01*
Y14056D01*
Y14065D01*
Y14093D01*
Y14129D01*
X48308Y14229D01*
X48298Y14348D01*
X48280Y14493D01*
X48253Y14648D01*
X48217Y14812D01*
X48171Y14976D01*
Y14986D01*
X48162Y14995D01*
X48144Y15049D01*
X48107Y15131D01*
X48062Y15231D01*
X47998Y15341D01*
X47925Y15468D01*
X47843Y15596D01*
X47743Y15714D01*
X47734Y15732D01*
X47688Y15769D01*
X47624Y15824D01*
X47542Y15887D01*
X47442Y15969D01*
X47324Y16042D01*
X47187Y16124D01*
X47032Y16188D01*
X47023D01*
X47014Y16197D01*
X46959Y16215D01*
X46868Y16243D01*
X46759Y16270D01*
X46622Y16297D01*
X46467Y16325D01*
X46285Y16343D01*
X46103Y16352D01*
D02*
G37*
G36*
X54201Y17883D02*
X54164D01*
X54119Y17873D01*
X54073Y17864D01*
X54009Y17846D01*
X53946Y17810D01*
X53873Y17773D01*
X53809Y17718D01*
X53800Y17709D01*
X53791Y17700D01*
X53745Y17646D01*
X53700Y17564D01*
X53663Y17454D01*
Y17445D01*
X53654Y17427D01*
Y17391D01*
X53645Y17345D01*
X53636Y17281D01*
Y17199D01*
X53627Y17108D01*
Y17008D01*
Y16243D01*
X53180D01*
X53135Y16233D01*
X53080Y16224D01*
X52962Y16197D01*
X52907Y16161D01*
X52852Y16124D01*
X52843Y16115D01*
X52834Y16106D01*
X52816Y16079D01*
X52789Y16051D01*
X52743Y15951D01*
X52734Y15897D01*
X52725Y15833D01*
Y15824D01*
Y15796D01*
X52734Y15760D01*
X52743Y15705D01*
X52770Y15660D01*
X52798Y15605D01*
X52843Y15550D01*
X52907Y15514D01*
X52916D01*
X52943Y15505D01*
X52980Y15486D01*
X53035Y15477D01*
X53108Y15459D01*
X53199Y15441D01*
X53299Y15432D01*
X53627D01*
Y13346D01*
Y13337D01*
Y13300D01*
Y13255D01*
Y13200D01*
X53618Y13063D01*
Y13000D01*
X53609Y12936D01*
Y12927D01*
Y12908D01*
X53590Y12854D01*
X53563Y12772D01*
X53517Y12699D01*
X53499Y12690D01*
X53454Y12662D01*
X53372Y12626D01*
X53317Y12617D01*
X53180D01*
X53098Y12626D01*
X52980Y12644D01*
X52971D01*
X52953Y12653D01*
X52916D01*
X52880Y12662D01*
X52798Y12672D01*
X52716Y12681D01*
X52688D01*
X52634Y12672D01*
X52552Y12635D01*
X52515Y12608D01*
X52470Y12571D01*
X52461Y12562D01*
X52451Y12553D01*
X52415Y12498D01*
X52379Y12407D01*
X52360Y12353D01*
Y12298D01*
Y12289D01*
Y12252D01*
X52379Y12207D01*
X52397Y12143D01*
X52433Y12079D01*
X52488Y12007D01*
X52561Y11943D01*
X52661Y11879D01*
X52670Y11870D01*
X52716Y11861D01*
X52780Y11833D01*
X52880Y11815D01*
X52998Y11788D01*
X53144Y11761D01*
X53317Y11751D01*
X53517Y11742D01*
X53599D01*
X53700Y11751D01*
X53818Y11761D01*
X53946Y11788D01*
X54082Y11815D01*
X54210Y11861D01*
X54319Y11915D01*
X54328Y11925D01*
X54365Y11952D01*
X54410Y11988D01*
X54465Y12043D01*
X54529Y12116D01*
X54583Y12198D01*
X54638Y12298D01*
X54674Y12407D01*
Y12426D01*
X54684Y12462D01*
X54702Y12535D01*
X54711Y12635D01*
X54729Y12754D01*
X54747Y12899D01*
X54756Y13063D01*
Y13255D01*
Y15432D01*
X54948D01*
X54993Y15441D01*
X55048Y15450D01*
X55175Y15477D01*
X55230Y15505D01*
X55285Y15541D01*
X55294Y15550D01*
X55303Y15559D01*
X55321Y15587D01*
X55348Y15623D01*
X55394Y15714D01*
X55403Y15769D01*
X55412Y15833D01*
Y15842D01*
Y15860D01*
X55403Y15897D01*
X55394Y15942D01*
X55376Y15988D01*
X55358Y16033D01*
X55321Y16079D01*
X55276Y16124D01*
X55266Y16133D01*
X55248Y16142D01*
X55221Y16161D01*
X55175Y16188D01*
X55121Y16206D01*
X55048Y16224D01*
X54975Y16233D01*
X54884Y16243D01*
X54756D01*
Y16917D01*
Y16926D01*
Y16962D01*
Y17008D01*
Y17072D01*
Y17217D01*
X54747Y17281D01*
Y17345D01*
Y17354D01*
Y17372D01*
X54738Y17400D01*
X54729Y17436D01*
X54702Y17527D01*
X54665Y17618D01*
Y17627D01*
X54656Y17637D01*
X54620Y17691D01*
X54565Y17746D01*
X54483Y17810D01*
X54474D01*
X54465Y17819D01*
X54438Y17837D01*
X54401Y17846D01*
X54310Y17873D01*
X54201Y17883D01*
D02*
G37*
G36*
X50268D02*
X50231D01*
X50186Y17873D01*
X50140Y17864D01*
X50077Y17846D01*
X50013Y17810D01*
X49940Y17773D01*
X49876Y17718D01*
X49867Y17709D01*
X49858Y17700D01*
X49812Y17646D01*
X49767Y17564D01*
X49731Y17454D01*
Y17445D01*
X49721Y17427D01*
Y17391D01*
X49712Y17345D01*
X49703Y17281D01*
Y17199D01*
X49694Y17108D01*
Y17008D01*
Y16243D01*
X49248D01*
X49202Y16233D01*
X49147Y16224D01*
X49029Y16197D01*
X48974Y16161D01*
X48920Y16124D01*
X48911Y16115D01*
X48902Y16106D01*
X48883Y16079D01*
X48856Y16051D01*
X48810Y15951D01*
X48801Y15897D01*
X48792Y15833D01*
Y15824D01*
Y15796D01*
X48801Y15760D01*
X48810Y15705D01*
X48838Y15660D01*
X48865Y15605D01*
X48911Y15550D01*
X48974Y15514D01*
X48983D01*
X49011Y15505D01*
X49047Y15486D01*
X49102Y15477D01*
X49175Y15459D01*
X49266Y15441D01*
X49366Y15432D01*
X49694D01*
Y13346D01*
Y13337D01*
Y13300D01*
Y13255D01*
Y13200D01*
X49685Y13063D01*
Y13000D01*
X49676Y12936D01*
Y12927D01*
Y12908D01*
X49658Y12854D01*
X49630Y12772D01*
X49585Y12699D01*
X49567Y12690D01*
X49521Y12662D01*
X49439Y12626D01*
X49384Y12617D01*
X49248D01*
X49166Y12626D01*
X49047Y12644D01*
X49038D01*
X49020Y12653D01*
X48983D01*
X48947Y12662D01*
X48865Y12672D01*
X48783Y12681D01*
X48756D01*
X48701Y12672D01*
X48619Y12635D01*
X48583Y12608D01*
X48537Y12571D01*
X48528Y12562D01*
X48519Y12553D01*
X48482Y12498D01*
X48446Y12407D01*
X48428Y12353D01*
Y12298D01*
Y12289D01*
Y12252D01*
X48446Y12207D01*
X48464Y12143D01*
X48501Y12079D01*
X48555Y12007D01*
X48628Y11943D01*
X48728Y11879D01*
X48737Y11870D01*
X48783Y11861D01*
X48847Y11833D01*
X48947Y11815D01*
X49065Y11788D01*
X49211Y11761D01*
X49384Y11751D01*
X49585Y11742D01*
X49667D01*
X49767Y11751D01*
X49885Y11761D01*
X50013Y11788D01*
X50150Y11815D01*
X50277Y11861D01*
X50386Y11915D01*
X50396Y11925D01*
X50432Y11952D01*
X50477Y11988D01*
X50532Y12043D01*
X50596Y12116D01*
X50651Y12198D01*
X50705Y12298D01*
X50742Y12407D01*
Y12426D01*
X50751Y12462D01*
X50769Y12535D01*
X50778Y12635D01*
X50796Y12754D01*
X50815Y12899D01*
X50824Y13063D01*
Y13255D01*
Y15432D01*
X51015D01*
X51060Y15441D01*
X51115Y15450D01*
X51243Y15477D01*
X51297Y15505D01*
X51352Y15541D01*
X51361Y15550D01*
X51370Y15559D01*
X51389Y15587D01*
X51416Y15623D01*
X51461Y15714D01*
X51471Y15769D01*
X51480Y15833D01*
Y15842D01*
Y15860D01*
X51471Y15897D01*
X51461Y15942D01*
X51443Y15988D01*
X51425Y16033D01*
X51389Y16079D01*
X51343Y16124D01*
X51334Y16133D01*
X51316Y16142D01*
X51288Y16161D01*
X51243Y16188D01*
X51188Y16206D01*
X51115Y16224D01*
X51042Y16233D01*
X50951Y16243D01*
X50824D01*
Y16917D01*
Y16926D01*
Y16962D01*
Y17008D01*
Y17072D01*
Y17217D01*
X50815Y17281D01*
Y17345D01*
Y17354D01*
Y17372D01*
X50805Y17400D01*
X50796Y17436D01*
X50769Y17527D01*
X50733Y17618D01*
Y17627D01*
X50723Y17637D01*
X50687Y17691D01*
X50632Y17746D01*
X50550Y17810D01*
X50541D01*
X50532Y17819D01*
X50505Y17837D01*
X50468Y17846D01*
X50377Y17873D01*
X50268Y17883D01*
D02*
G37*
G36*
X61907Y18028D02*
X61861D01*
X61816Y18019D01*
X61761Y18010D01*
X61697Y17983D01*
X61624Y17955D01*
X61560Y17910D01*
X61497Y17855D01*
X61488Y17846D01*
X61469Y17819D01*
X61442Y17782D01*
X61415Y17728D01*
X61387Y17655D01*
X61360Y17564D01*
X61342Y17454D01*
X61333Y17336D01*
Y12426D01*
Y12407D01*
Y12371D01*
X61342Y12307D01*
X61351Y12234D01*
X61369Y12143D01*
X61406Y12061D01*
X61442Y11979D01*
X61497Y11906D01*
X61506Y11897D01*
X61524Y11879D01*
X61560Y11852D01*
X61606Y11824D01*
X61661Y11797D01*
X61734Y11770D01*
X61816Y11751D01*
X61907Y11742D01*
X61943D01*
X61989Y11751D01*
X62052Y11761D01*
X62116Y11788D01*
X62180Y11815D01*
X62244Y11861D01*
X62308Y11915D01*
X62317Y11925D01*
X62335Y11952D01*
X62353Y11988D01*
X62380Y12052D01*
X62417Y12116D01*
X62435Y12207D01*
X62453Y12307D01*
X62462Y12426D01*
Y17336D01*
Y17354D01*
Y17391D01*
X62453Y17454D01*
X62444Y17527D01*
X62426Y17609D01*
X62399Y17691D01*
X62362Y17773D01*
X62317Y17846D01*
X62308Y17855D01*
X62289Y17873D01*
X62253Y17901D01*
X62207Y17937D01*
X62153Y17974D01*
X62080Y18001D01*
X61998Y18019D01*
X61907Y18028D01*
D02*
G37*
G36*
X30440Y12990D02*
X30395D01*
X30349Y12981D01*
X30286Y12972D01*
X30213Y12945D01*
X30140Y12918D01*
X30067Y12872D01*
X29994Y12808D01*
X29985Y12799D01*
X29967Y12772D01*
X29930Y12735D01*
X29894Y12690D01*
X29866Y12626D01*
X29830Y12544D01*
X29812Y12462D01*
X29803Y12371D01*
Y12362D01*
Y12325D01*
X29812Y12271D01*
X29830Y12198D01*
X29848Y12125D01*
X29885Y12052D01*
X29930Y11970D01*
X29994Y11906D01*
X30003Y11897D01*
X30031Y11879D01*
X30067Y11852D01*
X30112Y11824D01*
X30176Y11797D01*
X30249Y11770D01*
X30331Y11751D01*
X30422Y11742D01*
X30468D01*
X30513Y11751D01*
X30577Y11761D01*
X30650Y11779D01*
X30723Y11815D01*
X30796Y11852D01*
X30869Y11906D01*
X30878Y11915D01*
X30896Y11934D01*
X30923Y11970D01*
X30960Y12025D01*
X30996Y12088D01*
X31023Y12171D01*
X31042Y12262D01*
X31051Y12371D01*
Y12380D01*
Y12416D01*
X31042Y12462D01*
X31033Y12517D01*
X31005Y12580D01*
X30978Y12653D01*
X30932Y12726D01*
X30878Y12799D01*
X30869Y12808D01*
X30841Y12826D01*
X30805Y12863D01*
X30750Y12899D01*
X30686Y12927D01*
X30613Y12963D01*
X30531Y12981D01*
X30440Y12990D01*
D02*
G37*
G36*
X26531Y17974D02*
X26458D01*
X26376Y17964D01*
X26275Y17955D01*
X26157Y17937D01*
X26020Y17910D01*
X25893Y17873D01*
X25756Y17828D01*
X25738Y17819D01*
X25701Y17800D01*
X25629Y17773D01*
X25547Y17728D01*
X25455Y17664D01*
X25355Y17600D01*
X25246Y17518D01*
X25146Y17418D01*
X25137Y17409D01*
X25100Y17372D01*
X25055Y17318D01*
X24991Y17236D01*
X24918Y17144D01*
X24845Y17026D01*
X24772Y16899D01*
X24699Y16762D01*
Y16753D01*
X24681Y16735D01*
X24672Y16689D01*
X24645Y16634D01*
X24626Y16562D01*
X24599Y16479D01*
X24572Y16379D01*
X24535Y16261D01*
X24508Y16133D01*
X24481Y15988D01*
X24453Y15833D01*
X24426Y15660D01*
X24408Y15468D01*
X24390Y15268D01*
X24381Y15049D01*
Y14821D01*
Y14812D01*
Y14794D01*
Y14758D01*
Y14712D01*
Y14648D01*
Y14585D01*
X24390Y14421D01*
X24399Y14239D01*
X24417Y14047D01*
X24444Y13847D01*
X24472Y13655D01*
Y13646D01*
Y13637D01*
X24481Y13610D01*
X24490Y13573D01*
X24508Y13482D01*
X24535Y13364D01*
X24581Y13218D01*
X24636Y13072D01*
X24699Y12918D01*
X24772Y12763D01*
Y12754D01*
X24781Y12744D01*
X24800Y12717D01*
X24827Y12681D01*
X24882Y12599D01*
X24973Y12489D01*
X25073Y12371D01*
X25200Y12243D01*
X25346Y12125D01*
X25510Y12016D01*
X25519D01*
X25528Y12007D01*
X25556Y11988D01*
X25592Y11979D01*
X25683Y11934D01*
X25802Y11888D01*
X25947Y11833D01*
X26120Y11797D01*
X26303Y11761D01*
X26503Y11751D01*
X26567D01*
X26612Y11761D01*
X26667D01*
X26731Y11770D01*
X26877Y11797D01*
X27059Y11842D01*
X27241Y11897D01*
X27441Y11988D01*
X27633Y12107D01*
X27642D01*
X27651Y12125D01*
X27678Y12143D01*
X27715Y12171D01*
X27806Y12252D01*
X27906Y12362D01*
X28034Y12508D01*
X28152Y12672D01*
X28271Y12872D01*
X28380Y13091D01*
X28389Y13109D01*
X28398Y13154D01*
X28425Y13218D01*
X28453Y13318D01*
X28480Y13428D01*
X28517Y13555D01*
X28544Y13701D01*
X28571Y13847D01*
Y13856D01*
Y13865D01*
X28580Y13920D01*
X28589Y14002D01*
X28598Y14120D01*
X28608Y14257D01*
X28617Y14412D01*
X28626Y14575D01*
Y14758D01*
Y14767D01*
Y14785D01*
Y14821D01*
Y14867D01*
Y14913D01*
Y14976D01*
X28617Y15131D01*
X28608Y15304D01*
X28598Y15496D01*
X28580Y15687D01*
X28562Y15878D01*
Y15887D01*
Y15906D01*
X28553Y15924D01*
Y15960D01*
X28535Y16060D01*
X28507Y16179D01*
X28480Y16316D01*
X28444Y16461D01*
X28407Y16607D01*
X28352Y16753D01*
Y16762D01*
X28343Y16780D01*
X28325Y16807D01*
X28307Y16853D01*
X28252Y16953D01*
X28179Y17090D01*
X28079Y17236D01*
X27961Y17381D01*
X27815Y17527D01*
X27651Y17655D01*
X27642D01*
X27633Y17673D01*
X27606Y17682D01*
X27569Y17709D01*
X27523Y17728D01*
X27469Y17755D01*
X27332Y17819D01*
X27168Y17873D01*
X26977Y17928D01*
X26767Y17964D01*
X26531Y17974D01*
D02*
G37*
G36*
X65839Y18028D02*
X65794D01*
X65748Y18019D01*
X65694Y18010D01*
X65630Y17983D01*
X65557Y17955D01*
X65493Y17910D01*
X65429Y17855D01*
X65420Y17846D01*
X65402Y17819D01*
X65375Y17782D01*
X65347Y17728D01*
X65320Y17655D01*
X65293Y17564D01*
X65275Y17454D01*
X65265Y17336D01*
Y12426D01*
Y12407D01*
Y12371D01*
X65275Y12307D01*
X65284Y12234D01*
X65302Y12143D01*
X65338Y12061D01*
X65375Y11979D01*
X65429Y11906D01*
X65438Y11897D01*
X65457Y11879D01*
X65493Y11852D01*
X65539Y11824D01*
X65593Y11797D01*
X65666Y11770D01*
X65748Y11751D01*
X65839Y11742D01*
X65876D01*
X65921Y11751D01*
X65985Y11761D01*
X66049Y11788D01*
X66113Y11815D01*
X66176Y11861D01*
X66240Y11915D01*
X66249Y11925D01*
X66268Y11952D01*
X66286Y11988D01*
X66313Y12052D01*
X66350Y12116D01*
X66368Y12207D01*
X66386Y12307D01*
X66395Y12426D01*
Y17336D01*
Y17354D01*
Y17391D01*
X66386Y17454D01*
X66377Y17527D01*
X66359Y17609D01*
X66331Y17691D01*
X66295Y17773D01*
X66249Y17846D01*
X66240Y17855D01*
X66222Y17873D01*
X66186Y17901D01*
X66140Y17937D01*
X66085Y17974D01*
X66013Y18001D01*
X65930Y18019D01*
X65839Y18028D01*
D02*
G37*
G36*
X27855Y35303D02*
X27343D01*
Y18128D01*
X27855D01*
Y35303D01*
D02*
G37*
G36*
X26577D02*
X25810D01*
Y18128D01*
X26577D01*
Y35303D01*
D02*
G37*
G36*
X29900D02*
X29388D01*
Y18128D01*
X29900D01*
Y35303D01*
D02*
G37*
G36*
X28366D02*
X28110D01*
Y18128D01*
X28366D01*
Y35303D01*
D02*
G37*
G36*
X75085Y17928D02*
X73327D01*
X73254Y17919D01*
X73099D01*
X72926Y17901D01*
X72753Y17883D01*
X72580Y17855D01*
X72425Y17819D01*
X72407Y17810D01*
X72361Y17800D01*
X72288Y17773D01*
X72206Y17737D01*
X72106Y17682D01*
X71997Y17627D01*
X71887Y17545D01*
X71778Y17463D01*
X71769Y17454D01*
X71732Y17418D01*
X71687Y17372D01*
X71623Y17299D01*
X71559Y17217D01*
X71487Y17117D01*
X71423Y17008D01*
X71368Y16880D01*
X71359Y16862D01*
X71341Y16817D01*
X71323Y16744D01*
X71295Y16653D01*
X71268Y16534D01*
X71241Y16407D01*
X71231Y16261D01*
X71222Y16097D01*
Y16088D01*
Y16060D01*
Y16006D01*
X71225Y15987D01*
X71175Y16024D01*
X71038Y16097D01*
X70884Y16170D01*
X70874D01*
X70865Y16179D01*
X70838Y16188D01*
X70802Y16197D01*
X70756Y16215D01*
X70701Y16224D01*
X70574Y16261D01*
X70410Y16297D01*
X70218Y16325D01*
X70000Y16343D01*
X69763Y16352D01*
X69635D01*
X69581Y16343D01*
X69508D01*
X69335Y16334D01*
X69143Y16306D01*
X68952Y16279D01*
X68761Y16233D01*
X68588Y16170D01*
X68579D01*
X68570Y16161D01*
X68515Y16133D01*
X68442Y16097D01*
X68351Y16033D01*
X68251Y15960D01*
X68151Y15860D01*
X68059Y15751D01*
X67987Y15614D01*
X67977Y15596D01*
X67959Y15541D01*
X67932Y15459D01*
X67895Y15341D01*
X67868Y15195D01*
X67841Y15022D01*
X67822Y14831D01*
X67813Y14603D01*
Y14585D01*
Y14539D01*
Y14457D01*
Y14366D01*
Y14257D01*
Y14147D01*
Y14029D01*
Y13920D01*
Y13911D01*
Y13874D01*
Y13819D01*
Y13737D01*
Y13646D01*
Y13546D01*
Y13437D01*
Y13309D01*
Y13291D01*
Y13255D01*
X67804Y13191D01*
Y13109D01*
X67786Y13009D01*
X67768Y12890D01*
X67750Y12772D01*
X67713Y12644D01*
X67704Y12626D01*
X67695Y12589D01*
X67677Y12526D01*
X67659Y12462D01*
X67640Y12380D01*
X67622Y12307D01*
X67604Y12243D01*
Y12198D01*
Y12189D01*
Y12171D01*
X67613Y12134D01*
X67622Y12098D01*
X67640Y12043D01*
X67677Y11988D01*
X67713Y11934D01*
X67768Y11879D01*
X67777Y11870D01*
X67795Y11861D01*
X67832Y11833D01*
X67877Y11815D01*
X67932Y11788D01*
X67996Y11761D01*
X68068Y11751D01*
X68141Y11742D01*
X68169D01*
X68205Y11751D01*
X68251Y11761D01*
X68305Y11779D01*
X68360Y11806D01*
X68424Y11842D01*
X68488Y11897D01*
X68497Y11906D01*
X68515Y11925D01*
X68551Y11970D01*
X68597Y12016D01*
X68642Y12088D01*
X68706Y12171D01*
X68770Y12262D01*
X68843Y12371D01*
X68861Y12353D01*
X68916Y12316D01*
X68989Y12262D01*
X69098Y12189D01*
X69216Y12116D01*
X69353Y12034D01*
X69499Y11961D01*
X69644Y11897D01*
X69663Y11888D01*
X69708Y11870D01*
X69790Y11852D01*
X69890Y11824D01*
X70018Y11788D01*
X70164Y11770D01*
X70328Y11751D01*
X70501Y11742D01*
X70574D01*
X70656Y11751D01*
X70756Y11761D01*
X70884Y11779D01*
X71011Y11815D01*
X71139Y11852D01*
X71266Y11906D01*
X71284Y11915D01*
X71321Y11943D01*
X71375Y11979D01*
X71448Y12034D01*
X71530Y12098D01*
X71621Y12180D01*
X71703Y12271D01*
X71776Y12371D01*
X71785Y12389D01*
X71804Y12426D01*
X71831Y12480D01*
X71858Y12562D01*
X71895Y12662D01*
X71922Y12772D01*
X71940Y12890D01*
X71949Y13018D01*
Y13027D01*
Y13036D01*
Y13063D01*
X71940Y13100D01*
X71931Y13182D01*
X71913Y13291D01*
X71877Y13419D01*
X71822Y13546D01*
X71758Y13683D01*
X71658Y13810D01*
X71640Y13828D01*
X71603Y13865D01*
X71539Y13920D01*
X71448Y13993D01*
X71330Y14065D01*
X71193Y14129D01*
X71029Y14202D01*
X70847Y14248D01*
X70838D01*
X70820Y14257D01*
X70792D01*
X70738Y14275D01*
X70674Y14284D01*
X70574Y14302D01*
X70464Y14330D01*
X70319Y14357D01*
X70301D01*
X70246Y14375D01*
X70164Y14393D01*
X70064Y14412D01*
X69954Y14439D01*
X69827Y14466D01*
X69708Y14493D01*
X69590Y14521D01*
X69572D01*
X69535Y14530D01*
X69472Y14548D01*
X69389Y14575D01*
X69289Y14594D01*
X69171Y14630D01*
X69052Y14667D01*
X68916Y14703D01*
Y14712D01*
Y14721D01*
X68925Y14776D01*
X68934Y14858D01*
X68952Y14949D01*
X68970Y15058D01*
X69007Y15168D01*
X69052Y15268D01*
X69107Y15359D01*
X69116Y15368D01*
X69134Y15395D01*
X69180Y15423D01*
X69244Y15468D01*
X69335Y15505D01*
X69453Y15532D01*
X69590Y15559D01*
X69763Y15568D01*
X69836D01*
X69909Y15559D01*
X70000Y15550D01*
X70109Y15541D01*
X70218Y15514D01*
X70319Y15486D01*
X70410Y15441D01*
X70419Y15432D01*
X70446Y15423D01*
X70483Y15386D01*
X70537Y15350D01*
X70601Y15304D01*
X70656Y15240D01*
X70719Y15168D01*
X70783Y15077D01*
X70792Y15067D01*
X70811Y15040D01*
X70838Y14995D01*
X70865Y14949D01*
X70938Y14849D01*
X70975Y14803D01*
X71002Y14767D01*
X71011Y14758D01*
X71029Y14749D01*
X71057Y14730D01*
X71102Y14721D01*
X71148Y14703D01*
X71211Y14694D01*
X71312D01*
X71348Y14703D01*
X71394Y14712D01*
X71503Y14749D01*
X71558Y14776D01*
X71612Y14812D01*
X71621Y14821D01*
X71631Y14831D01*
X71643Y14843D01*
X71696Y14785D01*
X71796Y14685D01*
X71805Y14676D01*
X71824Y14667D01*
X71860Y14639D01*
X71906Y14612D01*
X71960Y14575D01*
X72033Y14539D01*
X72124Y14493D01*
X72224Y14448D01*
X72343Y14402D01*
X72470Y14357D01*
X72607Y14320D01*
X72762Y14284D01*
X72926Y14257D01*
X73108Y14229D01*
X73299Y14220D01*
X73509Y14211D01*
X74629D01*
Y12489D01*
Y12471D01*
Y12426D01*
X74639Y12362D01*
X74648Y12280D01*
X74675Y12189D01*
X74702Y12098D01*
X74748Y12007D01*
X74812Y11925D01*
X74821Y11915D01*
X74839Y11897D01*
X74884Y11870D01*
X74930Y11833D01*
X74994Y11797D01*
X75067Y11770D01*
X75158Y11751D01*
X75249Y11742D01*
X75295D01*
X75340Y11751D01*
X75404Y11770D01*
X75477Y11788D01*
X75550Y11815D01*
X75622Y11861D01*
X75695Y11925D01*
X75704Y11934D01*
X75723Y11961D01*
X75750Y12007D01*
X75777Y12070D01*
X75805Y12143D01*
X75832Y12243D01*
X75850Y12353D01*
X75859Y12480D01*
Y17172D01*
Y17181D01*
Y17190D01*
Y17236D01*
X75850Y17309D01*
X75832Y17391D01*
X75814Y17491D01*
X75786Y17582D01*
X75741Y17673D01*
X75677Y17746D01*
X75668Y17755D01*
X75641Y17773D01*
X75595Y17800D01*
X75531Y17837D01*
X75449Y17873D01*
X75349Y17901D01*
X75231Y17919D01*
X75085Y17928D01*
D02*
G37*
G36*
X40374Y18028D02*
X40319D01*
X40264Y18019D01*
X40201Y18001D01*
X40128Y17983D01*
X40055Y17946D01*
X39982Y17892D01*
X39927Y17828D01*
X39918Y17819D01*
X39909Y17791D01*
X39882Y17746D01*
X39845Y17682D01*
X39809Y17591D01*
X39764Y17491D01*
X39718Y17363D01*
X39663Y17217D01*
X38278Y13145D01*
X36903Y17245D01*
X36894Y17263D01*
X36885Y17299D01*
X36867Y17354D01*
X36839Y17418D01*
X36784Y17564D01*
X36757Y17637D01*
X36739Y17691D01*
Y17700D01*
X36730Y17709D01*
X36693Y17764D01*
X36639Y17837D01*
X36566Y17919D01*
X36557Y17928D01*
X36538Y17937D01*
X36511Y17955D01*
X36475Y17974D01*
X36429Y17992D01*
X36365Y18010D01*
X36292Y18028D01*
X36165D01*
X36129Y18019D01*
X36028Y17992D01*
X35928Y17946D01*
X35919D01*
X35901Y17928D01*
X35846Y17892D01*
X35782Y17828D01*
X35719Y17737D01*
Y17728D01*
X35710Y17718D01*
X35691Y17691D01*
X35673Y17655D01*
X35646Y17573D01*
X35637Y17472D01*
Y17454D01*
Y17418D01*
X35646Y17354D01*
X35664Y17272D01*
Y17254D01*
X35682Y17208D01*
X35700Y17144D01*
X35728Y17063D01*
X35737Y17044D01*
X35746Y16999D01*
X35773Y16935D01*
X35801Y16862D01*
X36018Y16277D01*
X35981Y16297D01*
X35881Y16352D01*
X35762Y16407D01*
X35753D01*
X35744Y16416D01*
X35717Y16434D01*
X35680Y16452D01*
X35589Y16498D01*
X35471Y16562D01*
X35343Y16634D01*
X35216Y16716D01*
X35079Y16807D01*
X34961Y16899D01*
X34952Y16908D01*
X34906Y16944D01*
X34851Y16999D01*
X34778Y17072D01*
X34696Y17154D01*
X34615Y17254D01*
X34523Y17363D01*
X34432Y17482D01*
X34423Y17500D01*
X34396Y17536D01*
X34350Y17591D01*
X34305Y17655D01*
X34250Y17728D01*
X34205Y17791D01*
X34159Y17846D01*
X34123Y17883D01*
X34104Y17892D01*
X34059Y17928D01*
X34022Y17937D01*
X33977Y17955D01*
X33922Y17964D01*
X33822D01*
X33786Y17955D01*
X33731Y17946D01*
X33676Y17919D01*
X33612Y17892D01*
X33558Y17846D01*
X33503Y17791D01*
X33494Y17782D01*
X33485Y17764D01*
X33458Y17718D01*
X33430Y17664D01*
X33412Y17600D01*
X33385Y17518D01*
X33376Y17427D01*
X33367Y17318D01*
Y12571D01*
Y12562D01*
Y12535D01*
Y12498D01*
X33376Y12444D01*
X33385Y12380D01*
X33394Y12307D01*
X33439Y12161D01*
X33503Y12007D01*
X33549Y11934D01*
X33612Y11870D01*
X33676Y11815D01*
X33749Y11779D01*
X33840Y11751D01*
X33940Y11742D01*
X33986D01*
X34032Y11751D01*
X34086Y11761D01*
X34150Y11779D01*
X34223Y11815D01*
X34287Y11852D01*
X34350Y11906D01*
X34359Y11915D01*
X34369Y11943D01*
X34396Y11979D01*
X34423Y12034D01*
X34451Y12107D01*
X34469Y12189D01*
X34487Y12289D01*
X34496Y12407D01*
Y16188D01*
X34505Y16179D01*
X34542Y16152D01*
X34596Y16115D01*
X34669Y16060D01*
X34751Y15997D01*
X34851Y15933D01*
X34952Y15860D01*
X35070Y15787D01*
X35307Y15632D01*
X35425Y15568D01*
X35544Y15505D01*
X35653Y15450D01*
X35753Y15414D01*
X35844Y15386D01*
X35917Y15377D01*
X35945D01*
X35981Y15386D01*
X36018Y15395D01*
X36072Y15414D01*
X36118Y15432D01*
X36172Y15468D01*
X36227Y15514D01*
X36236Y15523D01*
X36245Y15541D01*
X36273Y15568D01*
X36278Y15578D01*
X37276Y12890D01*
Y12881D01*
X37295Y12854D01*
X37304Y12808D01*
X37331Y12754D01*
X37349Y12681D01*
X37377Y12608D01*
X37440Y12453D01*
Y12444D01*
X37449Y12416D01*
X37468Y12380D01*
X37486Y12325D01*
X37550Y12207D01*
X37623Y12088D01*
Y12079D01*
X37641Y12061D01*
X37659Y12034D01*
X37696Y11997D01*
X37778Y11915D01*
X37896Y11842D01*
X37905D01*
X37923Y11824D01*
X37960Y11815D01*
X38005Y11797D01*
X38069Y11779D01*
X38142Y11761D01*
X38224Y11751D01*
X38315Y11742D01*
X38351D01*
X38406Y11751D01*
X38461D01*
X38597Y11788D01*
X38670Y11806D01*
X38734Y11842D01*
X38743D01*
X38761Y11861D01*
X38798Y11879D01*
X38834Y11906D01*
X38925Y11988D01*
X39016Y12088D01*
Y12098D01*
X39035Y12116D01*
X39053Y12152D01*
X39080Y12198D01*
X39107Y12252D01*
X39135Y12316D01*
X39199Y12453D01*
Y12462D01*
X39208Y12489D01*
X39226Y12535D01*
X39244Y12589D01*
X39272Y12653D01*
X39299Y12726D01*
X39353Y12890D01*
X40802Y16826D01*
Y16835D01*
X40811Y16844D01*
X40829Y16890D01*
X40848Y16962D01*
X40884Y17035D01*
Y17044D01*
X40893Y17053D01*
X40902Y17108D01*
X40929Y17181D01*
X40948Y17263D01*
Y17272D01*
Y17281D01*
X40957Y17336D01*
X40966Y17400D01*
Y17463D01*
Y17472D01*
Y17500D01*
X40957Y17536D01*
X40948Y17591D01*
X40929Y17646D01*
X40893Y17709D01*
X40857Y17782D01*
X40802Y17846D01*
X40793Y17855D01*
X40775Y17873D01*
X40729Y17901D01*
X40684Y17937D01*
X40620Y17974D01*
X40547Y18001D01*
X40465Y18019D01*
X40374Y18028D01*
D02*
G37*
G36*
X25554Y35303D02*
X25298D01*
Y18128D01*
X25554D01*
Y35303D01*
D02*
G37*
G36*
X25043D02*
X24532D01*
Y18128D01*
X25043D01*
Y35303D01*
D02*
G37*
G36*
X66455D02*
X66199D01*
Y18128D01*
X66455D01*
Y35303D01*
D02*
G37*
G36*
X65943D02*
X65432D01*
Y18128D01*
X65943D01*
Y35303D01*
D02*
G37*
G36*
X68244D02*
X67477D01*
Y18128D01*
X68244D01*
Y35303D01*
D02*
G37*
G36*
X67222D02*
X66966D01*
Y18128D01*
X67222D01*
Y35303D01*
D02*
G37*
G36*
X62876D02*
X62620D01*
Y18128D01*
X62876D01*
Y35303D01*
D02*
G37*
G36*
X61598D02*
X61087D01*
Y18128D01*
X61598D01*
Y35303D01*
D02*
G37*
G36*
X64410D02*
X63898D01*
Y18128D01*
X64410D01*
Y35303D01*
D02*
G37*
G36*
X63387D02*
X63132D01*
Y18128D01*
X63387D01*
Y35303D01*
D02*
G37*
G36*
X73612D02*
X73357D01*
Y18128D01*
X73612D01*
Y35303D01*
D02*
G37*
G36*
X72846D02*
X72079D01*
Y18128D01*
X72846D01*
Y35303D01*
D02*
G37*
G36*
X75657D02*
X75146D01*
Y18128D01*
X75657D01*
Y35303D01*
D02*
G37*
G36*
X74891D02*
X74635D01*
Y18128D01*
X74891D01*
Y35303D01*
D02*
G37*
G36*
X70034D02*
X69778D01*
Y18128D01*
X70034D01*
Y35303D01*
D02*
G37*
G36*
X69522D02*
X68500D01*
Y18128D01*
X69522D01*
Y35303D01*
D02*
G37*
G36*
X71823D02*
X71056D01*
Y18128D01*
X71823D01*
Y35303D01*
D02*
G37*
G36*
X70801D02*
X70289D01*
Y18128D01*
X70801D01*
Y35303D01*
D02*
G37*
G36*
X60575D02*
X60320D01*
Y18128D01*
X60575D01*
Y35303D01*
D02*
G37*
G36*
X51117D02*
X50861D01*
Y18128D01*
X51117D01*
Y35303D01*
D02*
G37*
G36*
X50350D02*
X50094D01*
Y18128D01*
X50350D01*
Y35303D01*
D02*
G37*
G36*
X53162D02*
X52906D01*
Y18128D01*
X53162D01*
Y35303D01*
D02*
G37*
G36*
X52395D02*
X51373D01*
Y18128D01*
X52395D01*
Y35303D01*
D02*
G37*
G36*
X49839D02*
X49328D01*
Y18128D01*
X49839D01*
Y35303D01*
D02*
G37*
G36*
X46516D02*
X46260D01*
Y18128D01*
X46516D01*
Y35303D01*
D02*
G37*
G36*
X46004D02*
X44982D01*
Y18128D01*
X46004D01*
Y35303D01*
D02*
G37*
G36*
X48816D02*
X48561D01*
Y18128D01*
X48816D01*
Y35303D01*
D02*
G37*
G36*
X47538D02*
X46771D01*
Y18128D01*
X47538D01*
Y35303D01*
D02*
G37*
G36*
X53929D02*
X53673D01*
Y18128D01*
X53929D01*
Y35303D01*
D02*
G37*
G36*
X57252D02*
X56997D01*
Y18128D01*
X57252D01*
Y35303D01*
D02*
G37*
G36*
X55207D02*
X54185D01*
Y18128D01*
X55207D01*
Y35303D01*
D02*
G37*
G36*
X55974D02*
X55718D01*
Y18128D01*
X55974D01*
Y35303D01*
D02*
G37*
G36*
X60064D02*
X59808D01*
Y18128D01*
X60064D01*
Y35303D01*
D02*
G37*
G36*
X58786D02*
X58530D01*
Y18128D01*
X58786D01*
Y35303D01*
D02*
G37*
G36*
X58275D02*
X57763D01*
Y18128D01*
X58275D01*
Y35303D01*
D02*
G37*
%LPD*%
G36*
X58083Y15550D02*
X58183Y15532D01*
X58293Y15496D01*
X58402Y15441D01*
X58521Y15368D01*
X58630Y15268D01*
X58639Y15259D01*
X58675Y15213D01*
X58721Y15149D01*
X58776Y15049D01*
X58830Y14931D01*
X58885Y14785D01*
X58930Y14612D01*
X58958Y14412D01*
X56908D01*
Y14421D01*
Y14439D01*
X56917Y14466D01*
Y14503D01*
X56935Y14612D01*
X56963Y14739D01*
X57008Y14876D01*
X57063Y15022D01*
X57136Y15159D01*
X57227Y15277D01*
X57236Y15286D01*
X57272Y15323D01*
X57336Y15368D01*
X57418Y15423D01*
X57518Y15477D01*
X57637Y15523D01*
X57783Y15559D01*
X57938Y15568D01*
X58010D01*
X58083Y15550D01*
D02*
G37*
G36*
X46285D02*
X46385Y15532D01*
X46495Y15496D01*
X46604Y15441D01*
X46722Y15368D01*
X46832Y15268D01*
X46841Y15259D01*
X46877Y15213D01*
X46923Y15149D01*
X46977Y15049D01*
X47032Y14931D01*
X47087Y14785D01*
X47132Y14612D01*
X47160Y14412D01*
X45110D01*
Y14421D01*
Y14439D01*
X45119Y14466D01*
Y14503D01*
X45137Y14612D01*
X45165Y14739D01*
X45210Y14876D01*
X45265Y15022D01*
X45338Y15159D01*
X45429Y15277D01*
X45438Y15286D01*
X45474Y15323D01*
X45538Y15368D01*
X45620Y15423D01*
X45720Y15477D01*
X45839Y15523D01*
X45985Y15559D01*
X46139Y15568D01*
X46212D01*
X46285Y15550D01*
D02*
G37*
G36*
X26612Y17126D02*
X26704Y17108D01*
X26822Y17063D01*
X26950Y16999D01*
X27013Y16953D01*
X27068Y16899D01*
X27132Y16835D01*
X27186Y16762D01*
X27232Y16680D01*
X27277Y16580D01*
Y16571D01*
X27287Y16552D01*
X27296Y16525D01*
X27314Y16479D01*
X27323Y16416D01*
X27341Y16343D01*
X27360Y16261D01*
X27378Y16161D01*
X27405Y16042D01*
X27423Y15924D01*
X27441Y15778D01*
X27451Y15623D01*
X27469Y15459D01*
X27478Y15277D01*
X27487Y15086D01*
Y14876D01*
Y14867D01*
Y14840D01*
Y14803D01*
Y14749D01*
Y14676D01*
X27478Y14603D01*
Y14421D01*
X27469Y14220D01*
X27451Y14002D01*
X27423Y13792D01*
X27396Y13592D01*
Y13582D01*
X27387Y13573D01*
Y13546D01*
X27378Y13510D01*
X27360Y13419D01*
X27323Y13318D01*
X27287Y13191D01*
X27232Y13072D01*
X27168Y12954D01*
X27095Y12845D01*
X27086Y12835D01*
X27059Y12808D01*
X27004Y12763D01*
X26940Y12717D01*
X26858Y12672D01*
X26758Y12626D01*
X26640Y12599D01*
X26512Y12589D01*
X26449D01*
X26376Y12608D01*
X26294Y12626D01*
X26202Y12653D01*
X26102Y12699D01*
X26002Y12763D01*
X25920Y12854D01*
X25911Y12863D01*
X25884Y12899D01*
X25847Y12963D01*
X25802Y13045D01*
X25747Y13154D01*
X25692Y13282D01*
X25647Y13437D01*
X25610Y13610D01*
Y13619D01*
Y13637D01*
X25601Y13665D01*
X25592Y13701D01*
Y13747D01*
X25583Y13810D01*
X25574Y13874D01*
X25565Y13956D01*
X25556Y14047D01*
X25547Y14138D01*
X25537Y14366D01*
X25519Y14621D01*
Y14904D01*
Y14913D01*
Y14940D01*
Y14976D01*
Y15031D01*
Y15095D01*
X25528Y15168D01*
Y15350D01*
X25547Y15541D01*
X25565Y15751D01*
X25583Y15960D01*
X25620Y16152D01*
Y16161D01*
Y16170D01*
X25629Y16197D01*
X25638Y16233D01*
X25656Y16316D01*
X25692Y16425D01*
X25738Y16543D01*
X25793Y16662D01*
X25856Y16780D01*
X25929Y16880D01*
X25938Y16890D01*
X25966Y16917D01*
X26011Y16962D01*
X26084Y17008D01*
X26166Y17053D01*
X26266Y17099D01*
X26385Y17126D01*
X26521Y17135D01*
X26576D01*
X26612Y17126D01*
D02*
G37*
G36*
X68961Y14002D02*
X69025Y13983D01*
X69098Y13956D01*
X69207Y13929D01*
X69335Y13892D01*
X69481Y13856D01*
X69644Y13819D01*
X69663D01*
X69717Y13801D01*
X69799Y13783D01*
X69900Y13765D01*
X70009Y13737D01*
X70118Y13719D01*
X70218Y13692D01*
X70301Y13674D01*
X70310D01*
X70328Y13665D01*
X70364Y13655D01*
X70410Y13637D01*
X70519Y13573D01*
X70583Y13537D01*
X70647Y13482D01*
X70656Y13473D01*
X70674Y13455D01*
X70701Y13428D01*
X70729Y13382D01*
X70756Y13327D01*
X70783Y13264D01*
X70802Y13191D01*
X70811Y13100D01*
Y13091D01*
Y13054D01*
X70802Y13009D01*
X70783Y12945D01*
X70765Y12872D01*
X70729Y12799D01*
X70683Y12726D01*
X70619Y12653D01*
X70610Y12644D01*
X70583Y12626D01*
X70537Y12599D01*
X70483Y12571D01*
X70410Y12535D01*
X70319Y12508D01*
X70218Y12489D01*
X70109Y12480D01*
X70055D01*
X69991Y12489D01*
X69909Y12498D01*
X69809Y12517D01*
X69708Y12544D01*
X69599Y12580D01*
X69490Y12626D01*
X69481Y12635D01*
X69444Y12653D01*
X69389Y12681D01*
X69335Y12726D01*
X69262Y12781D01*
X69189Y12854D01*
X69125Y12927D01*
X69071Y13009D01*
X69061Y13018D01*
X69043Y13054D01*
X69025Y13118D01*
X68989Y13209D01*
X68961Y13327D01*
X68943Y13473D01*
X68925Y13646D01*
X68916Y13856D01*
Y14020D01*
X68925D01*
X68961Y14002D01*
D02*
G37*
G36*
X74629Y15140D02*
X73728D01*
X73646Y15149D01*
X73545D01*
X73427Y15159D01*
X73308Y15177D01*
X73190Y15204D01*
X73072Y15231D01*
X73062Y15240D01*
X73026Y15250D01*
X72971Y15268D01*
X72908Y15304D01*
X72835Y15341D01*
X72762Y15395D01*
X72689Y15450D01*
X72625Y15523D01*
X72616Y15532D01*
X72598Y15559D01*
X72580Y15605D01*
X72543Y15669D01*
X72516Y15751D01*
X72498Y15842D01*
X72479Y15951D01*
X72470Y16070D01*
Y16079D01*
Y16088D01*
Y16142D01*
X72479Y16215D01*
X72498Y16306D01*
X72525Y16416D01*
X72571Y16525D01*
X72625Y16634D01*
X72707Y16735D01*
X72716Y16744D01*
X72762Y16780D01*
X72835Y16826D01*
X72889Y16844D01*
X72944Y16871D01*
X73017Y16899D01*
X73090Y16926D01*
X73181Y16944D01*
X73281Y16962D01*
X73391Y16981D01*
X73518Y16999D01*
X73655Y17008D01*
X74629D01*
Y15140D01*
D02*
G37*
D32*
X285571Y45122D02*
X305571D01*
X285571Y2122D02*
X305571D01*
Y45122D01*
X285571Y2122D02*
Y45122D01*
D48*
X227847Y29436D02*
X228240Y29830D01*
X229028D01*
X229421Y29436D01*
Y29043D01*
X229028Y28649D01*
X228240D01*
X227847Y28256D01*
Y27862D01*
X228240Y27468D01*
X229028D01*
X229421Y27862D01*
X225485Y29436D02*
X225879Y29830D01*
X226666D01*
X227060Y29436D01*
Y27862D01*
X226666Y27468D01*
X225879D01*
X225485Y27862D01*
X224698Y29830D02*
Y27468D01*
X223124D01*
X229454Y7311D02*
Y9673D01*
X228667Y8885D01*
X227880Y9673D01*
Y7311D01*
X227093D02*
X226306D01*
X226699D01*
Y9673D01*
X227093Y9279D01*
X227880Y24318D02*
X228273Y24712D01*
X229061D01*
X229454Y24318D01*
Y23924D01*
X229061Y23531D01*
X228273D01*
X227880Y23137D01*
Y22744D01*
X228273Y22350D01*
X229061D01*
X229454Y22744D01*
X227093Y22350D02*
X226306D01*
X226699D01*
Y24712D01*
X227093Y24318D01*
X227880Y19200D02*
X228273Y19594D01*
X229061D01*
X229454Y19200D01*
Y18806D01*
X229061Y18413D01*
X228273D01*
X227880Y18019D01*
Y17626D01*
X228273Y17232D01*
X229061D01*
X229454Y17626D01*
X225518Y17232D02*
X227093D01*
X225518Y18806D01*
Y19200D01*
X225912Y19594D01*
X226699D01*
X227093Y19200D01*
X227847Y34358D02*
X228240Y34751D01*
X229028D01*
X229421Y34358D01*
Y33964D01*
X229028Y33571D01*
X228240D01*
X227847Y33177D01*
Y32783D01*
X228240Y32390D01*
X229028D01*
X229421Y32783D01*
X227060Y34751D02*
Y32390D01*
X225879D01*
X225485Y32783D01*
Y34358D01*
X225879Y34751D01*
X227060D01*
X224698Y32390D02*
Y33964D01*
X223911Y34751D01*
X223124Y33964D01*
Y32390D01*
Y33571D01*
X224698D01*
X257867Y14279D02*
X258260Y14672D01*
X259047D01*
X259441Y14279D01*
Y13885D01*
X259047Y13492D01*
X258260D01*
X257867Y13098D01*
Y12705D01*
X258260Y12311D01*
X259047D01*
X259441Y12705D01*
X257080Y14672D02*
Y12311D01*
X256292Y13098D01*
X255505Y12311D01*
Y14672D01*
X253144Y12311D02*
X254718D01*
X253144Y13885D01*
Y14279D01*
X253537Y14672D01*
X254325D01*
X254718Y14279D01*
X257867Y19495D02*
X258260Y19889D01*
X259047D01*
X259441Y19495D01*
Y19102D01*
X259047Y18708D01*
X258260D01*
X257867Y18315D01*
Y17921D01*
X258260Y17528D01*
X259047D01*
X259441Y17921D01*
X257080Y19889D02*
Y17528D01*
X256292Y18315D01*
X255505Y17528D01*
Y19889D01*
X254718Y17528D02*
X253931D01*
X254325D01*
Y19889D01*
X254718Y19495D01*
X259441Y22252D02*
Y24613D01*
X258654Y23826D01*
X257867Y24613D01*
Y22252D01*
X255505D02*
X257080D01*
X255505Y23826D01*
Y24220D01*
X255899Y24613D01*
X256686D01*
X257080Y24220D01*
X259441Y27272D02*
Y29633D01*
X258654Y28846D01*
X257867Y29633D01*
Y27272D01*
X257080D02*
X256292D01*
X256686D01*
Y29633D01*
X257080Y29239D01*
X133063Y14180D02*
X133457Y14574D01*
X134244D01*
X134638Y14180D01*
Y12606D01*
X134244Y12213D01*
X133457D01*
X133063Y12606D01*
Y13393D01*
X133851D01*
X132276Y12213D02*
Y14574D01*
X130702Y12213D01*
Y14574D01*
X129915D02*
Y12213D01*
X128734D01*
X128341Y12606D01*
Y14180D01*
X128734Y14574D01*
X129915D01*
X181784Y14476D02*
X182177Y14869D01*
X182965D01*
X183358Y14476D01*
Y14082D01*
X182965Y13689D01*
X182177D01*
X181784Y13295D01*
Y12901D01*
X182177Y12508D01*
X182965D01*
X183358Y12901D01*
X180997Y14476D02*
X180603Y14869D01*
X179816D01*
X179422Y14476D01*
Y14082D01*
X179816Y13689D01*
X180210D01*
X179816D01*
X179422Y13295D01*
Y12901D01*
X179816Y12508D01*
X180603D01*
X180997Y12901D01*
X154717Y14180D02*
X155111Y14574D01*
X155898D01*
X156291Y14180D01*
Y12606D01*
X155898Y12213D01*
X155111D01*
X154717Y12606D01*
Y13393D01*
X155504D01*
X153930Y12213D02*
Y14574D01*
X152356Y12213D01*
Y14574D01*
X151568D02*
Y12213D01*
X150388D01*
X149994Y12606D01*
Y14180D01*
X150388Y14574D01*
X151568D01*
X200583Y14180D02*
X200977Y14574D01*
X201764D01*
X202157Y14180D01*
Y12606D01*
X201764Y12213D01*
X200977D01*
X200583Y12606D01*
Y13393D01*
X201370D01*
X199796Y12213D02*
Y14574D01*
X198222Y12213D01*
Y14574D01*
X197435D02*
Y12213D01*
X196254D01*
X195860Y12606D01*
Y14180D01*
X196254Y14574D01*
X197435D01*
X183260Y7390D02*
Y9751D01*
X182473Y8964D01*
X181685Y9751D01*
Y7390D01*
X180898Y9751D02*
X180111D01*
X180505D01*
Y7390D01*
X180898D01*
X180111D01*
X177356Y9358D02*
X177750Y9751D01*
X178537D01*
X178930Y9358D01*
Y7783D01*
X178537Y7390D01*
X177750D01*
X177356Y7783D01*
X176569Y7390D02*
X175782D01*
X176175D01*
Y9751D01*
X176569Y9358D01*
X181784Y24358D02*
X182177Y24751D01*
X182965D01*
X183358Y24358D01*
Y23964D01*
X182965Y23570D01*
X182177D01*
X181784Y23177D01*
Y22783D01*
X182177Y22390D01*
X182965D01*
X183358Y22783D01*
X180997Y22390D02*
X180210D01*
X180603D01*
Y24751D01*
X180997Y24358D01*
X181784Y29377D02*
X182177Y29771D01*
X182965D01*
X183358Y29377D01*
Y28984D01*
X182965Y28590D01*
X182177D01*
X181784Y28196D01*
Y27803D01*
X182177Y27409D01*
X182965D01*
X183358Y27803D01*
X179422Y29377D02*
X179816Y29771D01*
X180603D01*
X180997Y29377D01*
Y27803D01*
X180603Y27409D01*
X179816D01*
X179422Y27803D01*
X178635Y29771D02*
Y27409D01*
X177061D01*
X181784Y19338D02*
X182177Y19731D01*
X182965D01*
X183358Y19338D01*
Y18944D01*
X182965Y18551D01*
X182177D01*
X181784Y18157D01*
Y17763D01*
X182177Y17370D01*
X182965D01*
X183358Y17763D01*
X179422Y17370D02*
X180997D01*
X179422Y18944D01*
Y19338D01*
X179816Y19731D01*
X180603D01*
X180997Y19338D01*
X181784Y34298D02*
X182177Y34692D01*
X182965D01*
X183358Y34298D01*
Y33905D01*
X182965Y33511D01*
X182177D01*
X181784Y33118D01*
Y32724D01*
X182177Y32331D01*
X182965D01*
X183358Y32724D01*
X180997Y34692D02*
Y32331D01*
X179816D01*
X179422Y32724D01*
Y34298D01*
X179816Y34692D01*
X180997D01*
X178635Y32331D02*
Y33905D01*
X177848Y34692D01*
X177061Y33905D01*
Y32331D01*
Y33511D01*
X178635D01*
X222335Y14180D02*
X222729Y14574D01*
X223516D01*
X223909Y14180D01*
Y12606D01*
X223516Y12213D01*
X222729D01*
X222335Y12606D01*
Y13393D01*
X223122D01*
X221548Y12213D02*
Y14574D01*
X219974Y12213D01*
Y14574D01*
X219187D02*
Y12213D01*
X218006D01*
X217612Y12606D01*
Y14180D01*
X218006Y14574D01*
X219187D01*
X227880Y14279D02*
X228273Y14672D01*
X229061D01*
X229454Y14279D01*
Y13885D01*
X229061Y13492D01*
X228273D01*
X227880Y13098D01*
Y12705D01*
X228273Y12311D01*
X229061D01*
X229454Y12705D01*
X227093Y14279D02*
X226699Y14672D01*
X225912D01*
X225518Y14279D01*
Y13885D01*
X225912Y13492D01*
X226306D01*
X225912D01*
X225518Y13098D01*
Y12705D01*
X225912Y12311D01*
X226699D01*
X227093Y12705D01*
X134744Y24310D02*
Y22736D01*
X133957Y21949D01*
X133170Y22736D01*
Y24310D01*
X130808Y23523D02*
X131989D01*
X132383Y23130D01*
Y22342D01*
X131989Y21949D01*
X130808D01*
X128447Y23523D02*
X129628D01*
X130021Y23130D01*
Y22342D01*
X129628Y21949D01*
X128447D01*
X156398Y24310D02*
Y22736D01*
X155611Y21949D01*
X154823Y22736D01*
Y24310D01*
X152462Y23523D02*
X153643D01*
X154036Y23130D01*
Y22342D01*
X153643Y21949D01*
X152462D01*
X150101Y23523D02*
X151281D01*
X151675Y23130D01*
Y22342D01*
X151281Y21949D01*
X150101D01*
X202264Y24310D02*
Y22736D01*
X201477Y21949D01*
X200690Y22736D01*
Y24310D01*
X198328Y23523D02*
X199509D01*
X199902Y23130D01*
Y22342D01*
X199509Y21949D01*
X198328D01*
X195967Y23523D02*
X197147D01*
X197541Y23130D01*
Y22342D01*
X197147Y21949D01*
X195967D01*
X224016Y24310D02*
Y22736D01*
X223229Y21949D01*
X222442Y22736D01*
Y24310D01*
X220080Y23523D02*
X221261D01*
X221654Y23130D01*
Y22342D01*
X221261Y21949D01*
X220080D01*
X217719Y23523D02*
X218899D01*
X219293Y23130D01*
Y22342D01*
X218899Y21949D01*
X217719D01*
D49*
X142323Y0D02*
Y47244D01*
X93406Y0D02*
Y47244D01*
X210236Y0D02*
Y47244D01*
M02*
