G04 Layer_Color=8388736*
%FSLAX25Y25*%
%MOIN*%
G70*
G01*
G75*
%ADD79C,0.00492*%
D79*
X181791Y42814D02*
Y41174D01*
X182119Y40846D01*
X182775D01*
X183103Y41174D01*
Y42814D01*
X185071Y40846D02*
X183759D01*
X185071Y42158D01*
Y42486D01*
X184743Y42814D01*
X184087D01*
X183759Y42486D01*
X24737Y42093D02*
X24409Y42421D01*
X23753D01*
X23425Y42093D01*
Y41765D01*
X23753Y41437D01*
X24409D01*
X24737Y41109D01*
Y40781D01*
X24409Y40453D01*
X23753D01*
X23425Y40781D01*
X25393Y42421D02*
Y40453D01*
X26049Y41109D01*
X26705Y40453D01*
Y42421D01*
X27361Y40453D02*
X28017D01*
X27689D01*
Y42421D01*
X27361Y42093D01*
X120768Y15551D02*
Y13911D01*
X121096Y13583D01*
X121752D01*
X122080Y13911D01*
Y15551D01*
X122736Y13583D02*
X123391D01*
X123064D01*
Y15551D01*
X122736Y15223D01*
X150131Y32841D02*
X149803Y33169D01*
X149147D01*
X148819Y32841D01*
Y32513D01*
X149147Y32185D01*
X149803D01*
X150131Y31857D01*
Y31529D01*
X149803Y31201D01*
X149147D01*
X148819Y31529D01*
X150787Y31201D02*
X151443D01*
X151115D01*
Y33169D01*
X150787Y32841D01*
X86122Y10236D02*
Y12204D01*
X87106D01*
X87434Y11876D01*
Y11220D01*
X87106Y10892D01*
X86122D01*
X88090Y10236D02*
X88746D01*
X88418D01*
Y12204D01*
X88090Y11876D01*
X178543Y18897D02*
Y17257D01*
X178871Y16929D01*
X179527D01*
X179855Y17257D01*
Y18897D01*
X180511Y18569D02*
X180839Y18897D01*
X181495D01*
X181823Y18569D01*
Y18241D01*
X181495Y17913D01*
X181167D01*
X181495D01*
X181823Y17585D01*
Y17257D01*
X181495Y16929D01*
X180839D01*
X180511Y17257D01*
X110531Y9940D02*
Y7972D01*
X111515D01*
X111843Y8300D01*
Y9612D01*
X111515Y9940D01*
X110531D01*
X112499Y7972D02*
X113155D01*
X112827D01*
Y9940D01*
X112499Y9612D01*
X276181Y44586D02*
Y42946D01*
X276509Y42618D01*
X277165D01*
X277493Y42946D01*
Y44586D01*
X279133Y42618D02*
Y44586D01*
X278149Y43602D01*
X279461D01*
X79035Y8464D02*
Y6496D01*
X80019D01*
X80347Y6824D01*
Y7152D01*
X80019Y7480D01*
X79035D01*
X80019D01*
X80347Y7808D01*
Y8136D01*
X80019Y8464D01*
X79035D01*
X81003Y6496D02*
Y7808D01*
X81659Y8464D01*
X82315Y7808D01*
Y6496D01*
Y7480D01*
X81003D01*
X82971Y8464D02*
X84283D01*
X83627D01*
Y6496D01*
X84939D02*
X85595D01*
X85267D01*
Y8464D01*
X84939Y8136D01*
X118930Y43569D02*
X118602Y43897D01*
X117946D01*
X117618Y43569D01*
Y42257D01*
X117946Y41929D01*
X118602D01*
X118930Y42257D01*
X119586Y41929D02*
X120242D01*
X119914D01*
Y43897D01*
X119586Y43569D01*
X132874Y15255D02*
Y13287D01*
X134186D01*
X134842D02*
X135498D01*
X135170D01*
Y15255D01*
X134842Y14927D01*
X134383Y8136D02*
X134055Y8464D01*
X133399D01*
X133071Y8136D01*
Y6824D01*
X133399Y6496D01*
X134055D01*
X134383Y6824D01*
X135039Y8136D02*
X135367Y8464D01*
X136023D01*
X136351Y8136D01*
Y7808D01*
X136023Y7480D01*
X135695D01*
X136023D01*
X136351Y7152D01*
Y6824D01*
X136023Y6496D01*
X135367D01*
X135039Y6824D01*
X166469Y20341D02*
X166141Y20669D01*
X165486D01*
X165157Y20341D01*
Y19029D01*
X165486Y18701D01*
X166141D01*
X166469Y19029D01*
X167125Y18701D02*
X167781D01*
X167453D01*
Y20669D01*
X167125Y20341D01*
X168765Y18701D02*
X169421D01*
X169093D01*
Y20669D01*
X168765Y20341D01*
X147933Y44783D02*
Y46751D01*
X148917D01*
X149245Y46423D01*
Y45767D01*
X148917Y45439D01*
X147933D01*
X148589D02*
X149245Y44783D01*
X150885D02*
Y46751D01*
X149901Y45767D01*
X151213D01*
X150623Y54593D02*
X150295Y54921D01*
X149639D01*
X149311Y54593D01*
Y53281D01*
X149639Y52953D01*
X150295D01*
X150623Y53281D01*
X151279Y52953D02*
X151935D01*
X151607D01*
Y54921D01*
X151279Y54593D01*
X152919D02*
X153247Y54921D01*
X153903D01*
X154231Y54593D01*
Y53281D01*
X153903Y52953D01*
X153247D01*
X152919Y53281D01*
Y54593D01*
X183005Y46916D02*
X182677Y47243D01*
X182021D01*
X181693Y46916D01*
Y45604D01*
X182021Y45276D01*
X182677D01*
X183005Y45604D01*
X183661D02*
X183989Y45276D01*
X184645D01*
X184973Y45604D01*
Y46916D01*
X184645Y47243D01*
X183989D01*
X183661Y46916D01*
Y46587D01*
X183989Y46259D01*
X184973D01*
X162139Y61286D02*
X161811Y61614D01*
X161155D01*
X160827Y61286D01*
Y60958D01*
X161155Y60630D01*
X161811D01*
X162139Y60302D01*
Y59974D01*
X161811Y59646D01*
X161155D01*
X160827Y59974D01*
X162795Y61286D02*
X163123Y61614D01*
X163779D01*
X164107Y61286D01*
Y60958D01*
X163779Y60630D01*
X163451D01*
X163779D01*
X164107Y60302D01*
Y59974D01*
X163779Y59646D01*
X163123D01*
X162795Y59974D01*
X189796Y32939D02*
X189468Y33267D01*
X188812D01*
X188484Y32939D01*
Y32611D01*
X188812Y32283D01*
X189468D01*
X189796Y31955D01*
Y31627D01*
X189468Y31299D01*
X188812D01*
X188484Y31627D01*
X191764Y31299D02*
X190452D01*
X191764Y32611D01*
Y32939D01*
X191436Y33267D01*
X190780D01*
X190452Y32939D01*
X165682Y30872D02*
X165354Y31200D01*
X164698D01*
X164370Y30872D01*
Y29560D01*
X164698Y29232D01*
X165354D01*
X165682Y29560D01*
X167322Y29232D02*
Y31200D01*
X166338Y30216D01*
X167650D01*
X164895Y41896D02*
X164567Y42224D01*
X163911D01*
X163583Y41896D01*
Y40584D01*
X163911Y40256D01*
X164567D01*
X164895Y40584D01*
X166862Y42224D02*
X166207Y41896D01*
X165550Y41240D01*
Y40584D01*
X165878Y40256D01*
X166534D01*
X166862Y40584D01*
Y40912D01*
X166534Y41240D01*
X165550D01*
X158005Y8825D02*
X157677Y9153D01*
X157021D01*
X156693Y8825D01*
Y7513D01*
X157021Y7185D01*
X157677D01*
X158005Y7513D01*
X159973Y9153D02*
X158661D01*
Y8169D01*
X159317Y8497D01*
X159645D01*
X159973Y8169D01*
Y7513D01*
X159645Y7185D01*
X158989D01*
X158661Y7513D01*
X184973Y20439D02*
X184645Y20767D01*
X183989D01*
X183661Y20439D01*
Y19127D01*
X183989Y18799D01*
X184645D01*
X184973Y19127D01*
X185629Y20767D02*
X186941D01*
Y20439D01*
X185629Y19127D01*
Y18799D01*
X201804Y44160D02*
X201476Y44488D01*
X200820D01*
X200492Y44160D01*
Y42848D01*
X200820Y42520D01*
X201476D01*
X201804Y42848D01*
X202460Y44160D02*
X202788Y44488D01*
X203444D01*
X203772Y44160D01*
Y43832D01*
X203444Y43504D01*
X203772Y43176D01*
Y42848D01*
X203444Y42520D01*
X202788D01*
X202460Y42848D01*
Y43176D01*
X202788Y43504D01*
X202460Y43832D01*
Y44160D01*
X202788Y43504D02*
X203444D01*
X195866Y40846D02*
Y42814D01*
X196850D01*
X197178Y42486D01*
Y41830D01*
X196850Y41502D01*
X195866D01*
X196522D02*
X197178Y40846D01*
X197834Y42486D02*
X198162Y42814D01*
X198818D01*
X199146Y42486D01*
Y42158D01*
X198818Y41830D01*
X198490D01*
X198818D01*
X199146Y41502D01*
Y41174D01*
X198818Y40846D01*
X198162D01*
X197834Y41174D01*
X150295Y35433D02*
Y37401D01*
X151279D01*
X151607Y37073D01*
Y36417D01*
X151279Y36089D01*
X150295D01*
X150951D02*
X151607Y35433D01*
X153575D02*
X152263D01*
X153575Y36745D01*
Y37073D01*
X153247Y37401D01*
X152591D01*
X152263Y37073D01*
X216076Y44455D02*
X215748Y44783D01*
X215092D01*
X214764Y44455D01*
Y43143D01*
X215092Y42815D01*
X215748D01*
X216076Y43143D01*
X216732Y42815D02*
X217388D01*
X217060D01*
Y44783D01*
X216732Y44455D01*
X219683Y42815D02*
X218372D01*
X219683Y44127D01*
Y44455D01*
X219356Y44783D01*
X218700D01*
X218372Y44455D01*
X110433Y12500D02*
Y14468D01*
X111417D01*
X111745Y14140D01*
Y13484D01*
X111417Y13156D01*
X110433D01*
X111089D02*
X111745Y12500D01*
X112401D02*
X113057D01*
X112729D01*
Y14468D01*
X112401Y14140D01*
X98425Y9843D02*
Y11810D01*
X99409D01*
X99737Y11482D01*
Y10826D01*
X99409Y10498D01*
X98425D01*
X101705Y9843D02*
X100393D01*
X101705Y11154D01*
Y11482D01*
X101377Y11810D01*
X100721D01*
X100393Y11482D01*
X111253Y17289D02*
X110925Y17617D01*
X110269D01*
X109941Y17289D01*
Y15978D01*
X110269Y15650D01*
X110925D01*
X111253Y15978D01*
X113221Y15650D02*
X111909D01*
X113221Y16962D01*
Y17289D01*
X112893Y17617D01*
X112237D01*
X111909Y17289D01*
X230709Y48425D02*
Y50393D01*
X231693D01*
X232021Y50065D01*
Y49409D01*
X231693Y49081D01*
X230709D01*
X231365D02*
X232021Y48425D01*
X233988Y50393D02*
X232677D01*
Y49409D01*
X233332Y49737D01*
X233660D01*
X233988Y49409D01*
Y48753D01*
X233660Y48425D01*
X233004D01*
X232677Y48753D01*
X245669Y42618D02*
Y44586D01*
X246653D01*
X246981Y44258D01*
Y43602D01*
X246653Y43274D01*
X245669D01*
X246325D02*
X246981Y42618D01*
X248949Y44586D02*
X248293Y44258D01*
X247637Y43602D01*
Y42946D01*
X247965Y42618D01*
X248621D01*
X248949Y42946D01*
Y43274D01*
X248621Y43602D01*
X247637D01*
X264993Y44455D02*
X264665Y44783D01*
X264009D01*
X263681Y44455D01*
Y43143D01*
X264009Y42815D01*
X264665D01*
X264993Y43143D01*
X265649Y42815D02*
X266305D01*
X265977D01*
Y44783D01*
X265649Y44455D01*
X267289D02*
X267617Y44783D01*
X268273D01*
X268601Y44455D01*
Y44127D01*
X268273Y43799D01*
X267945D01*
X268273D01*
X268601Y43471D01*
Y43143D01*
X268273Y42815D01*
X267617D01*
X267289Y43143D01*
M02*
