G04 Layer_Color=32768*
%FSLAX25Y25*%
%MOIN*%
G70*
G01*
G75*
%ADD79C,0.00492*%
D79*
X171489Y34416D02*
X171161Y34743D01*
X170505D01*
X170177Y34416D01*
Y34087D01*
X170505Y33759D01*
X171161D01*
X171489Y33432D01*
Y33104D01*
X171161Y32776D01*
X170505D01*
X170177Y33104D01*
X172145Y32776D02*
Y34743D01*
X173457Y32776D01*
Y34743D01*
X174113D02*
X175425D01*
Y34416D01*
X174113Y33104D01*
Y32776D01*
X177065D02*
Y34743D01*
X176081Y33759D01*
X177393D01*
X178049Y34743D02*
Y32776D01*
X179360D01*
X180017Y34743D02*
Y33432D01*
X180672Y32776D01*
X181328Y33432D01*
Y34743D01*
X183296Y34416D02*
X182968Y34743D01*
X182312D01*
X181984Y34416D01*
Y33104D01*
X182312Y32776D01*
X182968D01*
X183296Y33104D01*
X183952Y32776D02*
X184608D01*
X184280D01*
Y34743D01*
X183952Y34416D01*
X186904Y32776D02*
X185592D01*
X186904Y34087D01*
Y34416D01*
X186576Y34743D01*
X185920D01*
X185592Y34416D01*
X188872Y34743D02*
X187560D01*
Y33759D01*
X188216Y34087D01*
X188544D01*
X188872Y33759D01*
Y33104D01*
X188544Y32776D01*
X187888D01*
X187560Y33104D01*
X189528Y32776D02*
Y34087D01*
X190184Y34743D01*
X190840Y34087D01*
Y32776D01*
Y33759D01*
X189528D01*
X11155Y13812D02*
X10827Y13484D01*
Y12828D01*
X11155Y12500D01*
X11483D01*
X11811Y12828D01*
Y13484D01*
X12139Y13812D01*
X12467D01*
X12795Y13484D01*
Y12828D01*
X12467Y12500D01*
X10827Y14468D02*
X12795D01*
X12139Y15124D01*
X12795Y15780D01*
X10827D01*
Y18404D02*
X12795D01*
Y19387D01*
X12467Y19715D01*
X11155D01*
X10827Y19387D01*
Y18404D01*
X12795Y20371D02*
X10827D01*
Y21355D01*
X11155Y21683D01*
X11811D01*
X12139Y21355D01*
Y20371D01*
X10827Y22339D02*
X12795D01*
Y23323D01*
X12467Y23651D01*
X11155D01*
X10827Y23323D01*
Y22339D01*
Y24307D02*
Y25619D01*
Y24963D01*
X12795D01*
X10827Y28243D02*
Y29555D01*
Y28899D01*
X12795D01*
X10827Y30211D02*
X12795D01*
X11811D01*
Y31523D01*
X10827D01*
X12795D01*
Y34146D02*
X10827D01*
Y35130D01*
X11155Y35458D01*
X11811D01*
X12139Y35130D01*
Y34146D01*
Y34802D02*
X12795Y35458D01*
Y36114D02*
X11483D01*
X10827Y36770D01*
X11483Y37426D01*
X12795D01*
X11811D01*
Y36114D01*
X122638Y17323D02*
X124606Y18635D01*
X122638D02*
X124606Y17323D01*
X122966Y20603D02*
X122638Y20275D01*
Y19619D01*
X122966Y19291D01*
X124278D01*
X124606Y19619D01*
Y20275D01*
X124278Y20603D01*
Y21259D02*
X124606Y21587D01*
Y22242D01*
X124278Y22570D01*
X122966D01*
X122638Y22242D01*
Y21587D01*
X122966Y21259D01*
X123294D01*
X123622Y21587D01*
Y22570D01*
X124606Y24538D02*
Y23226D01*
X123294Y24538D01*
X122966D01*
X122638Y24210D01*
Y23554D01*
X122966Y23226D01*
X122638Y26506D02*
X122966Y25850D01*
X123622Y25194D01*
X124278D01*
X124606Y25522D01*
Y26178D01*
X124278Y26506D01*
X123950D01*
X123622Y26178D01*
Y25194D01*
X122638Y28474D02*
Y27162D01*
X123622D01*
X123294Y27818D01*
Y28146D01*
X123622Y28474D01*
X124278D01*
X124606Y28146D01*
Y27490D01*
X124278Y27162D01*
X124606Y29130D02*
X123294D01*
X122638Y29786D01*
X123294Y30442D01*
X124606D01*
X123622D01*
Y29130D01*
X124606Y32410D02*
Y31098D01*
X123294Y32410D01*
X122966D01*
X122638Y32082D01*
Y31426D01*
X122966Y31098D01*
X124606Y34378D02*
Y33066D01*
X123294Y34378D01*
X122966D01*
X122638Y34050D01*
Y33394D01*
X122966Y33066D01*
X124606Y35034D02*
Y35689D01*
Y35361D01*
X122638D01*
X122966Y35034D01*
X124606Y36674D02*
X122638D01*
X123294Y37329D01*
X122638Y37985D01*
X124606D01*
Y38641D02*
X122638D01*
Y39625D01*
X122966Y39953D01*
X123622D01*
X123950Y39625D01*
Y38641D01*
Y39297D02*
X124606Y39953D01*
X123622Y40609D02*
Y41921D01*
X122966Y43889D02*
X122638Y43561D01*
Y42905D01*
X122966Y42577D01*
X124278D01*
X124606Y42905D01*
Y43561D01*
X124278Y43889D01*
X123622D01*
Y43233D01*
X155447Y13320D02*
X155119Y12992D01*
Y12336D01*
X155447Y12008D01*
X155775D01*
X156103Y12336D01*
Y12992D01*
X156431Y13320D01*
X156759D01*
X157087Y12992D01*
Y12336D01*
X156759Y12008D01*
X157087Y13976D02*
Y14632D01*
Y14304D01*
X155775D01*
Y13976D01*
X157087Y15616D02*
Y16272D01*
Y15944D01*
X155119D01*
X155447Y15616D01*
X157087Y17255D02*
Y17911D01*
Y17583D01*
X155119D01*
X155447Y17255D01*
X157087Y19879D02*
X155119D01*
X156103Y18895D01*
Y20207D01*
X157087Y20863D02*
Y21519D01*
Y21191D01*
X155119D01*
X155447Y20863D01*
X156103Y22503D02*
Y23815D01*
X157087Y24471D02*
X155119D01*
X155775Y25127D01*
X155119Y25783D01*
X157087D01*
X155447Y26439D02*
X155119Y26767D01*
Y27423D01*
X155447Y27751D01*
X156759D01*
X157087Y27423D01*
Y26767D01*
X156759Y26439D01*
X155447D01*
X157087Y28407D02*
Y29063D01*
Y28735D01*
X155119D01*
X155447Y28407D01*
X82481Y6004D02*
X84449D01*
X83465D01*
Y7316D01*
X82481D01*
X84449D01*
X82481Y9284D02*
Y7972D01*
X84449D01*
Y9284D01*
X83465Y7972D02*
Y8628D01*
X84449Y9940D02*
X83137D01*
X82481Y10596D01*
X83137Y11252D01*
X84449D01*
X83465D01*
Y9940D01*
X82481Y11908D02*
X84449D01*
Y12891D01*
X84121Y13219D01*
X82809D01*
X82481Y12891D01*
Y11908D01*
Y15187D02*
Y13875D01*
X84449D01*
Y15187D01*
X83465Y13875D02*
Y14531D01*
X84449Y15843D02*
X82481D01*
Y16827D01*
X82809Y17155D01*
X83465D01*
X83793Y16827D01*
Y15843D01*
Y16499D02*
X84449Y17155D01*
Y19779D02*
X82481D01*
X83137Y20435D01*
X82481Y21091D01*
X84449D01*
X82481Y23715D02*
Y25027D01*
Y24371D01*
X84449D01*
X82481Y25683D02*
X84449D01*
X83465D01*
Y26994D01*
X82481D01*
X84449D01*
Y29618D02*
X82481D01*
Y30602D01*
X82809Y30930D01*
X83465D01*
X83793Y30602D01*
Y29618D01*
Y30274D02*
X84449Y30930D01*
Y31586D02*
X83137D01*
X82481Y32242D01*
X83137Y32898D01*
X84449D01*
X83465D01*
Y31586D01*
X172375Y8628D02*
X172047Y8956D01*
X171391D01*
X171063Y8628D01*
Y8300D01*
X171391Y7972D01*
X172047D01*
X172375Y7644D01*
Y7316D01*
X172047Y6988D01*
X171391D01*
X171063Y7316D01*
X173031Y6988D02*
Y8956D01*
X174015D01*
X174343Y8628D01*
Y7972D01*
X174015Y7644D01*
X173031D01*
X174999Y8956D02*
Y6988D01*
X175655Y7644D01*
X176311Y6988D01*
Y8956D01*
X176967Y8628D02*
X177295Y8956D01*
X177951D01*
X178279Y8628D01*
Y7316D01*
X177951Y6988D01*
X177295D01*
X176967Y7316D01*
Y8628D01*
X179918Y6988D02*
Y8956D01*
X178934Y7972D01*
X180246D01*
X180902Y8628D02*
X181230Y8956D01*
X181886D01*
X182214Y8628D01*
Y8300D01*
X181886Y7972D01*
X181558D01*
X181886D01*
X182214Y7644D01*
Y7316D01*
X181886Y6988D01*
X181230D01*
X180902Y7316D01*
X182870Y8628D02*
X183198Y8956D01*
X183854D01*
X184182Y8628D01*
Y7316D01*
X183854Y6988D01*
X183198D01*
X182870Y7316D01*
Y8628D01*
X184838Y8956D02*
Y6988D01*
Y7972D01*
X186150D01*
Y8956D01*
Y6988D01*
X186806D02*
Y8956D01*
X187790D01*
X188118Y8628D01*
Y7972D01*
X187790Y7644D01*
X186806D01*
X187462D02*
X188118Y6988D01*
X190086Y8956D02*
X188774D01*
Y7972D01*
X189430Y8300D01*
X189758D01*
X190086Y7972D01*
Y7316D01*
X189758Y6988D01*
X189102D01*
X188774Y7316D01*
X190742Y8956D02*
Y6988D01*
Y7972D01*
X192053D01*
Y8956D01*
Y6988D01*
X192709Y8956D02*
Y6988D01*
X193693D01*
X194021Y7316D01*
Y7644D01*
X193693Y7972D01*
X192709D01*
X193693D01*
X194021Y8300D01*
Y8628D01*
X193693Y8956D01*
X192709D01*
X194677Y7972D02*
X195989D01*
X196645Y8956D02*
Y6988D01*
X197629D01*
X197957Y7316D01*
Y7644D01*
X197629Y7972D01*
X196645D01*
X197629D01*
X197957Y8300D01*
Y8628D01*
X197629Y8956D01*
X196645D01*
X100721Y9711D02*
X100393Y10039D01*
X99737D01*
X99410Y9711D01*
Y9383D01*
X99737Y9055D01*
X100393D01*
X100721Y8727D01*
Y8399D01*
X100393Y8071D01*
X99737D01*
X99410Y8399D01*
X101377Y8071D02*
Y10039D01*
X102033Y9383D01*
X102689Y10039D01*
Y8071D01*
X103345Y10039D02*
Y8071D01*
X104657D01*
X105313Y9055D02*
X106625D01*
X107281Y10039D02*
Y8071D01*
X108265D01*
X108593Y8399D01*
Y9711D01*
X108265Y10039D01*
X107281D01*
X109249Y8071D02*
X109905D01*
X109577D01*
Y10039D01*
X109249Y9711D01*
X112200Y8071D02*
X110889D01*
X112200Y9383D01*
Y9711D01*
X111873Y10039D01*
X111217D01*
X110889Y9711D01*
X112856Y10039D02*
Y8727D01*
X113512Y8071D01*
X114168Y8727D01*
Y10039D01*
X114824Y8071D02*
X115480D01*
X115152D01*
Y10039D01*
X114824Y9711D01*
X116464Y10039D02*
Y8071D01*
X117120Y8727D01*
X117776Y8071D01*
Y10039D01*
X118432D02*
X119744D01*
X119088D01*
Y8071D01*
X120400Y9711D02*
X120728Y10039D01*
X121384D01*
X121712Y9711D01*
Y9383D01*
X121384Y9055D01*
X121712Y8727D01*
Y8399D01*
X121384Y8071D01*
X120728D01*
X120400Y8399D01*
Y8727D01*
X120728Y9055D01*
X120400Y9383D01*
Y9711D01*
X120728Y9055D02*
X121384D01*
X123680Y10039D02*
X123024Y9711D01*
X122368Y9055D01*
Y8399D01*
X122696Y8071D01*
X123352D01*
X123680Y8399D01*
Y8727D01*
X123352Y9055D01*
X122368D01*
X232776Y23523D02*
Y21555D01*
X233759D01*
X234087Y21883D01*
Y22211D01*
X233759Y22539D01*
X232776D01*
X233759D01*
X234087Y22867D01*
Y23195D01*
X233759Y23523D01*
X232776D01*
X234743D02*
Y21555D01*
X236055D01*
X238023Y23523D02*
X236711D01*
Y21555D01*
X238023D01*
X236711Y22539D02*
X237367D01*
X238679Y21555D02*
X239335D01*
X239007D01*
Y23523D01*
X238679Y23195D01*
X240319Y21555D02*
X240975D01*
X240647D01*
Y23523D01*
X240319Y23195D01*
X241959D02*
X242287Y23523D01*
X242943D01*
X243271Y23195D01*
Y22867D01*
X242943Y22539D01*
X242615D01*
X242943D01*
X243271Y22211D01*
Y21883D01*
X242943Y21555D01*
X242287D01*
X241959Y21883D01*
X243927Y22539D02*
X245239D01*
X245895Y21555D02*
Y22867D01*
X246551Y23523D01*
X247207Y22867D01*
Y21555D01*
Y22539D01*
X245895D01*
X247863D02*
X249174D01*
X249830Y21555D02*
Y23523D01*
X250486Y22867D01*
X251142Y23523D01*
Y21555D01*
X253110D02*
X251798D01*
X253110Y22867D01*
Y23195D01*
X252782Y23523D01*
X252126D01*
X251798Y23195D01*
X255078Y23523D02*
X253766D01*
Y22539D01*
X254422Y22867D01*
X254750D01*
X255078Y22539D01*
Y21883D01*
X254750Y21555D01*
X254094D01*
X253766Y21883D01*
X257046Y23523D02*
X256390Y23195D01*
X255734Y22539D01*
Y21883D01*
X256062Y21555D01*
X256718D01*
X257046Y21883D01*
Y22211D01*
X256718Y22539D01*
X255734D01*
X257702Y23523D02*
Y21555D01*
Y22211D01*
X259014Y23523D01*
X258030Y22539D01*
X259014Y21555D01*
X27165Y22539D02*
Y24507D01*
X28149D01*
X28477Y24179D01*
Y23523D01*
X28149Y23195D01*
X27165D01*
X27821D02*
X28477Y22539D01*
X30445Y24507D02*
X29133D01*
Y22539D01*
X30445D01*
X29133Y23523D02*
X29789D01*
X31101Y24507D02*
X32413D01*
X31757D01*
Y22539D01*
X33069D02*
Y23851D01*
X33725Y24507D01*
X34381Y23851D01*
Y22539D01*
Y23523D01*
X33069D01*
X35037Y24507D02*
X35693D01*
X35365D01*
Y22539D01*
X35037D01*
X35693D01*
X36677D02*
Y24507D01*
X37989Y22539D01*
Y24507D01*
X39957D02*
X38644D01*
Y22539D01*
X39957D01*
X38644Y23523D02*
X39301D01*
X40612Y22539D02*
Y24507D01*
X41596D01*
X41924Y24179D01*
Y23523D01*
X41596Y23195D01*
X40612D01*
X41268D02*
X41924Y22539D01*
X45860Y24179D02*
X45532Y24507D01*
X44876D01*
X44548Y24179D01*
Y22867D01*
X44876Y22539D01*
X45532D01*
X45860Y22867D01*
X47500Y24507D02*
X46844D01*
X46516Y24179D01*
Y22867D01*
X46844Y22539D01*
X47500D01*
X47828Y22867D01*
Y24179D01*
X47500Y24507D01*
X48484D02*
X49140D01*
X48812D01*
Y22539D01*
X48484D01*
X49140D01*
X50124D02*
Y24507D01*
X51436Y22539D01*
Y24507D01*
X55371Y24179D02*
X55043Y24507D01*
X54387D01*
X54059Y24179D01*
Y22867D01*
X54387Y22539D01*
X55043D01*
X55371Y22867D01*
X57339Y24507D02*
X56027D01*
Y22539D01*
X57339D01*
X56027Y23523D02*
X56683D01*
X57995Y24507D02*
Y22539D01*
X59307D01*
X59963Y24507D02*
Y22539D01*
X61275D01*
X63899Y24507D02*
X65211D01*
Y24179D01*
X63899Y22867D01*
Y22539D01*
X65867D02*
Y22867D01*
X66195D01*
Y22539D01*
X65867D01*
X67506Y22867D02*
X67835Y22539D01*
X68490D01*
X68818Y22867D01*
Y24179D01*
X68490Y24507D01*
X67835D01*
X67506Y24179D01*
Y23851D01*
X67835Y23523D01*
X68818D01*
X69474Y22539D02*
Y24507D01*
X70130Y23851D01*
X70786Y24507D01*
Y22539D01*
X71442D02*
Y24507D01*
X72098Y23851D01*
X72754Y24507D01*
Y22539D01*
X111122Y34055D02*
X111778D01*
X111450D01*
Y36023D01*
X111122Y35695D01*
X112762D02*
X113090Y36023D01*
X113746D01*
X114074Y35695D01*
Y34383D01*
X113746Y34055D01*
X113090D01*
X112762Y34383D01*
Y35695D01*
X114730D02*
X115058Y36023D01*
X115714D01*
X116042Y35695D01*
Y34383D01*
X115714Y34055D01*
X115058D01*
X114730Y34383D01*
Y35695D01*
X116698Y35367D02*
Y34383D01*
X117026Y34055D01*
X118010D01*
Y35367D01*
X119977Y36023D02*
X118666D01*
Y35039D01*
X119322D01*
X118666D01*
Y34055D01*
X133858Y19685D02*
Y20341D01*
Y20013D01*
X131890D01*
X132218Y19685D01*
Y21325D02*
X131890Y21653D01*
Y22309D01*
X132218Y22637D01*
X133530D01*
X133858Y22309D01*
Y21653D01*
X133530Y21325D01*
X132218D01*
X132546Y23293D02*
X133530D01*
X133858Y23621D01*
Y24605D01*
X132546D01*
X131890Y25261D02*
X133858D01*
X132874D01*
Y26573D01*
X131890D01*
X133858D01*
X130709Y8694D02*
Y7382D01*
X129397Y8694D01*
X129069D01*
X128741Y8366D01*
Y7710D01*
X129069Y7382D01*
X130709Y10662D02*
Y9350D01*
X129397Y10662D01*
X129069D01*
X128741Y10334D01*
Y9678D01*
X129069Y9350D01*
X129397Y11318D02*
X130381D01*
X130709Y11646D01*
Y12630D01*
X129397D01*
X128741Y14597D02*
Y13285D01*
X129725D01*
Y13941D01*
Y13285D01*
X130709D01*
X167717Y11024D02*
Y11680D01*
Y11352D01*
X165749D01*
X166077Y11024D01*
Y12664D02*
X165749Y12991D01*
Y13647D01*
X166077Y13975D01*
X167389D01*
X167717Y13647D01*
Y12991D01*
X167389Y12664D01*
X166077D01*
Y14631D02*
X165749Y14959D01*
Y15615D01*
X166077Y15943D01*
X167389D01*
X167717Y15615D01*
Y14959D01*
X167389Y14631D01*
X166077D01*
X167717Y16599D02*
X166405D01*
Y17583D01*
X166733Y17911D01*
X167717D01*
X165749Y19879D02*
Y18567D01*
X166733D01*
Y19223D01*
Y18567D01*
X167717D01*
X152854Y46423D02*
X153182Y46751D01*
X153838D01*
X154166Y46423D01*
Y46095D01*
X153838Y45767D01*
X153510D01*
X153838D01*
X154166Y45439D01*
Y45112D01*
X153838Y44783D01*
X153182D01*
X152854Y45112D01*
X154822Y46423D02*
X155150Y46751D01*
X155806D01*
X156134Y46423D01*
Y45112D01*
X155806Y44783D01*
X155150D01*
X154822Y45112D01*
Y46423D01*
X156790Y44783D02*
Y46751D01*
X157774D01*
X158102Y46423D01*
Y45767D01*
X157774Y45439D01*
X156790D01*
X157446D02*
X158102Y44783D01*
X158563Y51903D02*
Y50591D01*
X157251Y51903D01*
X156923D01*
X156595Y51574D01*
Y50919D01*
X156923Y50591D01*
X158563Y53870D02*
Y52558D01*
X157251Y53870D01*
X156923D01*
X156595Y53542D01*
Y52886D01*
X156923Y52558D01*
X157251Y54526D02*
X158235D01*
X158563Y54854D01*
Y55838D01*
X157251D01*
X156595Y57806D02*
Y56494D01*
X157579D01*
Y57150D01*
Y56494D01*
X158563D01*
X184055Y48819D02*
Y49475D01*
Y49147D01*
X182087D01*
X182415Y48819D01*
Y50459D02*
X182087Y50787D01*
Y51443D01*
X182415Y51771D01*
X183727D01*
X184055Y51443D01*
Y50787D01*
X183727Y50459D01*
X182415D01*
Y52427D02*
X182087Y52755D01*
Y53411D01*
X182415Y53739D01*
X183727D01*
X184055Y53411D01*
Y52755D01*
X183727Y52427D01*
X182415D01*
X184055Y54395D02*
X182743D01*
Y55378D01*
X183071Y55706D01*
X184055D01*
X182087Y57674D02*
Y56362D01*
X183071D01*
Y57018D01*
Y56362D01*
X184055D01*
X163910Y51837D02*
X163582Y52165D01*
X162926D01*
X162598Y51837D01*
Y51509D01*
X162926Y51181D01*
X163582D01*
X163910Y50853D01*
Y50525D01*
X163582Y50197D01*
X162926D01*
X162598Y50525D01*
X164566Y50197D02*
X165222D01*
X164894D01*
Y51509D01*
X164566D01*
X166206Y50197D02*
X166862D01*
X166534D01*
Y52165D01*
X166206Y51837D01*
X167846Y50197D02*
X168502D01*
X168174D01*
Y52165D01*
X167846Y51837D01*
X170470Y50197D02*
Y52165D01*
X169486Y51181D01*
X170798D01*
X171454Y50197D02*
X172110D01*
X171782D01*
Y52165D01*
X171454Y51837D01*
X173094Y51181D02*
X174406D01*
X175062Y50197D02*
Y52165D01*
X175717Y51509D01*
X176374Y52165D01*
Y50197D01*
X177029Y51837D02*
X177357Y52165D01*
X178013D01*
X178341Y51837D01*
Y50525D01*
X178013Y50197D01*
X177357D01*
X177029Y50525D01*
Y51837D01*
X178997Y50197D02*
X179653D01*
X179325D01*
Y52165D01*
X178997Y51837D01*
X195506Y12828D02*
X195178Y12500D01*
Y11844D01*
X195506Y11516D01*
X195834D01*
X196162Y11844D01*
Y12500D01*
X196490Y12828D01*
X196818D01*
X197146Y12500D01*
Y11844D01*
X196818Y11516D01*
X197146Y13484D02*
Y14140D01*
Y13812D01*
X195834D01*
Y13484D01*
X197146Y15123D02*
Y15779D01*
Y15451D01*
X195178D01*
X195506Y15123D01*
X197146Y16763D02*
Y17419D01*
Y17091D01*
X195178D01*
X195506Y16763D01*
X197146Y19387D02*
X195178D01*
X196162Y18403D01*
Y19715D01*
X197146Y20371D02*
Y21027D01*
Y20699D01*
X195178D01*
X195506Y20371D01*
X196162Y22011D02*
Y23323D01*
X197146Y23979D02*
X195178D01*
X195834Y24635D01*
X195178Y25291D01*
X197146D01*
X195506Y25947D02*
X195178Y26275D01*
Y26931D01*
X195506Y27259D01*
X196818D01*
X197146Y26931D01*
Y26275D01*
X196818Y25947D01*
X195506D01*
X197146Y27915D02*
Y28571D01*
Y28243D01*
X195178D01*
X195506Y27915D01*
X166929Y32579D02*
Y33235D01*
Y32907D01*
X164961D01*
X165289Y32579D01*
Y34219D02*
X164961Y34547D01*
Y35203D01*
X165289Y35530D01*
X166601D01*
X166929Y35203D01*
Y34547D01*
X166601Y34219D01*
X165289D01*
Y36187D02*
X164961Y36514D01*
Y37170D01*
X165289Y37498D01*
X166601D01*
X166929Y37170D01*
Y36514D01*
X166601Y36187D01*
X165289D01*
X166929Y38154D02*
X165617D01*
Y39138D01*
X165945Y39466D01*
X166929D01*
X164961Y41434D02*
Y40122D01*
X165945D01*
Y40778D01*
Y40122D01*
X166929D01*
X161713Y33989D02*
Y32677D01*
X160401Y33989D01*
X160073D01*
X159745Y33661D01*
Y33005D01*
X160073Y32677D01*
X161713Y35957D02*
Y34645D01*
X160401Y35957D01*
X160073D01*
X159745Y35629D01*
Y34973D01*
X160073Y34645D01*
X160401Y36613D02*
X161385D01*
X161713Y36941D01*
Y37925D01*
X160401D01*
X159745Y39893D02*
Y38581D01*
X160729D01*
Y39237D01*
Y38581D01*
X161713D01*
X159449Y7283D02*
X160105D01*
X159777D01*
Y9251D01*
X159449Y8923D01*
X161089D02*
X161417Y9251D01*
X162073D01*
X162401Y8923D01*
Y7611D01*
X162073Y7283D01*
X161417D01*
X161089Y7611D01*
Y8923D01*
X163057D02*
X163384Y9251D01*
X164041D01*
X164368Y8923D01*
Y7611D01*
X164041Y7283D01*
X163384D01*
X163057Y7611D01*
Y8923D01*
X165024Y7283D02*
Y8595D01*
X166008D01*
X166336Y8267D01*
Y7283D01*
X168304Y9251D02*
X166992D01*
Y8267D01*
X167648D01*
X166992D01*
Y7283D01*
X186319Y11024D02*
Y11680D01*
Y11352D01*
X184351D01*
X184679Y11024D01*
Y12664D02*
X184351Y12991D01*
Y13647D01*
X184679Y13975D01*
X185991D01*
X186319Y13647D01*
Y12991D01*
X185991Y12664D01*
X184679D01*
Y14631D02*
X184351Y14959D01*
Y15615D01*
X184679Y15943D01*
X185991D01*
X186319Y15615D01*
Y14959D01*
X185991Y14631D01*
X184679D01*
X186319Y16599D02*
X185007D01*
Y17583D01*
X185335Y17911D01*
X186319D01*
X184351Y19879D02*
Y18567D01*
X185335D01*
Y19223D01*
Y18567D01*
X186319D01*
X203051Y33989D02*
Y32677D01*
X201739Y33989D01*
X201411D01*
X201083Y33661D01*
Y33005D01*
X201411Y32677D01*
X203051Y35957D02*
Y34645D01*
X201739Y35957D01*
X201411D01*
X201083Y35629D01*
Y34973D01*
X201411Y34645D01*
X201739Y36613D02*
X202723D01*
X203051Y36941D01*
Y37925D01*
X201739D01*
X201083Y39893D02*
Y38581D01*
X202067D01*
Y39237D01*
Y38581D01*
X203051D01*
X196785Y33661D02*
X196457Y33989D01*
Y34645D01*
X196785Y34973D01*
X197113D01*
X197441Y34645D01*
Y34317D01*
Y34645D01*
X197769Y34973D01*
X198097D01*
X198425Y34645D01*
Y33989D01*
X198097Y33661D01*
X196785Y35629D02*
X196457Y35957D01*
Y36613D01*
X196785Y36941D01*
X198097D01*
X198425Y36613D01*
Y35957D01*
X198097Y35629D01*
X196785D01*
X198425Y37597D02*
X196457D01*
Y38581D01*
X196785Y38909D01*
X197441D01*
X197769Y38581D01*
Y37597D01*
Y38253D02*
X198425Y38909D01*
X155742Y33661D02*
X155414Y33989D01*
Y34645D01*
X155742Y34973D01*
X156070D01*
X156398Y34645D01*
Y34317D01*
Y34645D01*
X156726Y34973D01*
X157054D01*
X157382Y34645D01*
Y33989D01*
X157054Y33661D01*
X155742Y35629D02*
X155414Y35957D01*
Y36613D01*
X155742Y36941D01*
X157054D01*
X157382Y36613D01*
Y35957D01*
X157054Y35629D01*
X155742D01*
X157382Y37597D02*
X155414D01*
Y38581D01*
X155742Y38909D01*
X156398D01*
X156726Y38581D01*
Y37597D01*
Y38253D02*
X157382Y38909D01*
X219390Y42717D02*
X220046D01*
X219718D01*
Y44684D01*
X219390Y44356D01*
X221030D02*
X221358Y44684D01*
X222014D01*
X222342Y44356D01*
Y43044D01*
X222014Y42717D01*
X221358D01*
X221030Y43044D01*
Y44356D01*
X222997D02*
X223325Y44684D01*
X223981D01*
X224309Y44356D01*
Y43044D01*
X223981Y42717D01*
X223325D01*
X222997Y43044D01*
Y44356D01*
X224965Y42717D02*
Y44028D01*
X225949D01*
X226277Y43701D01*
Y42717D01*
X228245Y44684D02*
X226933D01*
Y43701D01*
X227589D01*
X226933D01*
Y42717D01*
X116962Y12598D02*
X115650D01*
X116962Y13910D01*
Y14238D01*
X116633Y14566D01*
X115978D01*
X115650Y14238D01*
X118929Y12598D02*
X117617D01*
X118929Y13910D01*
Y14238D01*
X118601Y14566D01*
X117946D01*
X117617Y14238D01*
X119585D02*
X119913Y14566D01*
X120569D01*
X120897Y14238D01*
Y12926D01*
X120569Y12598D01*
X119913D01*
X119585Y12926D01*
Y14238D01*
X121553Y12598D02*
Y14566D01*
X122537D01*
X122865Y14238D01*
Y13582D01*
X122537Y13254D01*
X121553D01*
X122209D02*
X122865Y12598D01*
X99312Y13976D02*
X101279D01*
X100296D01*
Y15288D01*
X99312D01*
X101279D01*
X99312Y17256D02*
Y15944D01*
X101279D01*
Y17256D01*
X100296Y15944D02*
Y16600D01*
X101279Y17912D02*
X99968D01*
X99312Y18568D01*
X99968Y19224D01*
X101279D01*
X100296D01*
Y17912D01*
X99312Y19880D02*
X101279D01*
Y20864D01*
X100952Y21192D01*
X99640D01*
X99312Y20864D01*
Y19880D01*
Y23160D02*
Y21848D01*
X101279D01*
Y23160D01*
X100296Y21848D02*
Y22504D01*
X101279Y23816D02*
X99312D01*
Y24800D01*
X99640Y25128D01*
X100296D01*
X100624Y24800D01*
Y23816D01*
Y24472D02*
X101279Y25128D01*
X99312Y29063D02*
Y27751D01*
X100296D01*
Y28407D01*
Y27751D01*
X101279D01*
X99312Y31687D02*
Y32999D01*
Y32343D01*
X101279D01*
X99312Y33655D02*
X101279D01*
X100296D01*
Y34967D01*
X99312D01*
X101279D01*
Y37591D02*
X99312D01*
Y38575D01*
X99640Y38903D01*
X100296D01*
X100624Y38575D01*
Y37591D01*
Y38247D02*
X101279Y38903D01*
Y39559D02*
X99968D01*
X99312Y40214D01*
X99968Y40870D01*
X101279D01*
X100296D01*
Y39559D01*
X112697Y19587D02*
Y20243D01*
Y19915D01*
X110729D01*
X111057Y19587D01*
Y21226D02*
X110729Y21554D01*
Y22210D01*
X111057Y22538D01*
X112369D01*
X112697Y22210D01*
Y21554D01*
X112369Y21226D01*
X111057D01*
X111385Y23194D02*
X112369D01*
X112697Y23522D01*
Y24506D01*
X111385D01*
X110729Y26474D02*
Y25162D01*
X111713D01*
Y25818D01*
Y25162D01*
X112697D01*
X230019Y42717D02*
Y44684D01*
X229035Y43701D01*
X230347D01*
X231003Y42717D02*
Y43044D01*
X231331D01*
Y42717D01*
X231003D01*
X232643Y44684D02*
X233955D01*
Y44356D01*
X232643Y43044D01*
Y42717D01*
X234611Y44684D02*
Y42717D01*
Y43372D01*
X235923Y44684D01*
X234939Y43701D01*
X235923Y42717D01*
X238484Y42618D02*
Y44586D01*
X237500Y43602D01*
X238812D01*
X239468Y42618D02*
Y42946D01*
X239796D01*
Y42618D01*
X239468D01*
X241108Y44586D02*
X242420D01*
Y44258D01*
X241108Y42946D01*
Y42618D01*
X243076Y44586D02*
Y42618D01*
Y43274D01*
X244388Y44586D01*
X243404Y43602D01*
X244388Y42618D01*
X256004D02*
X256660D01*
X256332D01*
Y44586D01*
X256004Y44258D01*
X257644D02*
X257972Y44586D01*
X258628D01*
X258956Y44258D01*
Y42946D01*
X258628Y42618D01*
X257972D01*
X257644Y42946D01*
Y44258D01*
X259612D02*
X259940Y44586D01*
X260596D01*
X260924Y44258D01*
Y42946D01*
X260596Y42618D01*
X259940D01*
X259612Y42946D01*
Y44258D01*
X261580Y42618D02*
Y43930D01*
X262563D01*
X262892Y43602D01*
Y42618D01*
X264859Y44586D02*
X263547D01*
Y43602D01*
X264203D01*
X263547D01*
Y42618D01*
M02*
