G04 Layer_Physical_Order=2*
G04 Layer_Color=16711680*
%FSLAX25Y25*%
%MOIN*%
G70*
G01*
G75*
%ADD32C,0.01000*%
%ADD33C,0.01969*%
%ADD41C,0.06693*%
%ADD42C,0.07087*%
%ADD43R,0.07087X0.07087*%
%ADD44C,0.02756*%
%ADD45C,0.02953*%
%ADD46O,0.07874X0.04724*%
%ADD47O,0.07874X0.03740*%
G36*
X308240Y1012D02*
X284193D01*
Y26181D01*
X284037Y26558D01*
X283661Y26714D01*
X262007D01*
X261630Y26558D01*
X261474Y26181D01*
Y1012D01*
X216565D01*
X216541Y1254D01*
X216176Y2460D01*
X215581Y3571D01*
X214782Y4546D01*
X213808Y5345D01*
X212745Y5913D01*
Y46233D01*
X308240D01*
Y1012D01*
D02*
G37*
G36*
X89834Y41899D02*
X90897Y41331D01*
Y5913D01*
X89834Y5345D01*
X89351Y4949D01*
X1012D01*
Y42296D01*
X89351D01*
X89834Y41899D01*
D02*
G37*
G36*
X139814Y5913D02*
X138751Y5345D01*
X137777Y4546D01*
X136978Y3571D01*
X136384Y2460D01*
X136018Y1254D01*
X135994Y1012D01*
X99734D01*
X99711Y1254D01*
X99345Y2460D01*
X98751Y3571D01*
X97951Y4546D01*
X96977Y5345D01*
X95915Y5913D01*
Y41331D01*
X96977Y41899D01*
X97951Y42698D01*
X98751Y43673D01*
X99345Y44784D01*
X99711Y45990D01*
X99734Y46233D01*
X139814D01*
Y5913D01*
D02*
G37*
G36*
X207727D02*
X206665Y5345D01*
X205691Y4546D01*
X204891Y3571D01*
X204297Y2460D01*
X203931Y1254D01*
X203907Y1012D01*
X148652D01*
X148628Y1254D01*
X148262Y2460D01*
X147668Y3571D01*
X146869Y4546D01*
X145894Y5345D01*
X144832Y5913D01*
Y61981D01*
X207727D01*
Y5913D01*
D02*
G37*
%LPC*%
G36*
X220268Y11509D02*
X219193D01*
X218446Y11411D01*
X217749Y11122D01*
X217151Y10663D01*
X216693Y10065D01*
X216404Y9369D01*
X216372Y9122D01*
X220268D01*
Y11509D01*
D02*
G37*
G36*
X222342D02*
X221268D01*
Y9122D01*
X225164D01*
X225131Y9369D01*
X224843Y10065D01*
X224384Y10663D01*
X223786Y11122D01*
X223090Y11411D01*
X222342Y11509D01*
D02*
G37*
G36*
X299571Y11112D02*
X298618Y10922D01*
X297810Y10383D01*
X297270Y9575D01*
X297081Y8622D01*
X297270Y7669D01*
X297810Y6861D01*
X298618Y6322D01*
X299571Y6132D01*
X300523Y6322D01*
X301331Y6861D01*
X301871Y7669D01*
X302061Y8622D01*
X301871Y9575D01*
X301331Y10383D01*
X300523Y10922D01*
X299571Y11112D01*
D02*
G37*
G36*
X291571D02*
X290618Y10922D01*
X289810Y10383D01*
X289270Y9575D01*
X289081Y8622D01*
X289270Y7669D01*
X289810Y6861D01*
X290618Y6322D01*
X291571Y6132D01*
X292524Y6322D01*
X293331Y6861D01*
X293871Y7669D01*
X294061Y8622D01*
X293871Y9575D01*
X293331Y10383D01*
X292524Y10922D01*
X291571Y11112D01*
D02*
G37*
G36*
X220268Y8122D02*
X216372D01*
X216404Y7875D01*
X216693Y7179D01*
X217151Y6581D01*
X217749Y6122D01*
X218446Y5833D01*
X219193Y5735D01*
X220268D01*
Y8122D01*
D02*
G37*
G36*
X225164D02*
X221268D01*
Y5735D01*
X222342D01*
X223090Y5833D01*
X223786Y6122D01*
X224384Y6581D01*
X224843Y7179D01*
X225131Y7875D01*
X225164Y8122D01*
D02*
G37*
G36*
X246260Y45216D02*
X245492Y45063D01*
X244841Y44628D01*
X244406Y43977D01*
X244283Y43361D01*
X239928Y39005D01*
X231527D01*
X230951Y38891D01*
X230463Y38564D01*
X227971Y36073D01*
X227645Y35584D01*
X227530Y35008D01*
Y31753D01*
X227280Y31378D01*
X227157Y30762D01*
X220786Y24391D01*
X220460Y23903D01*
X220345Y23327D01*
Y21501D01*
X219193D01*
X218448Y21403D01*
X217753Y21115D01*
X217157Y20658D01*
X216700Y20062D01*
X216412Y19367D01*
X216314Y18622D01*
X216412Y17877D01*
X216700Y17183D01*
X217157Y16586D01*
X217753Y16129D01*
X218448Y15841D01*
X219193Y15743D01*
X222342D01*
X223088Y15841D01*
X223782Y16129D01*
X224378Y16586D01*
X224836Y17183D01*
X225123Y17877D01*
X225221Y18622D01*
X225123Y19367D01*
X224836Y20062D01*
X224378Y20658D01*
X223782Y21115D01*
X223356Y21292D01*
Y22703D01*
X229286Y28633D01*
X229587Y28693D01*
X229965Y28638D01*
X230130Y28330D01*
X230255Y27700D01*
X230777Y26919D01*
X231559Y26397D01*
X231659Y26377D01*
Y25867D01*
X231559Y25847D01*
X230777Y25325D01*
X230255Y24544D01*
X230072Y23622D01*
X230205Y22954D01*
X230192Y22927D01*
X229790Y22566D01*
X229232Y22676D01*
X228464Y22524D01*
X227813Y22088D01*
X227378Y21437D01*
X227225Y20669D01*
X227241Y20592D01*
X227237Y20571D01*
Y16139D01*
X227313Y15752D01*
X227533Y15424D01*
X230255Y12702D01*
X230255Y12700D01*
X230777Y11919D01*
X231559Y11397D01*
X231659Y11377D01*
Y10867D01*
X231559Y10847D01*
X230777Y10325D01*
X230255Y9544D01*
X230072Y8622D01*
X230255Y7700D01*
X230777Y6919D01*
X231559Y6397D01*
X232480Y6214D01*
X236614D01*
X237536Y6397D01*
X238317Y6919D01*
X238839Y7700D01*
X239023Y8622D01*
X238839Y9544D01*
X238509Y10038D01*
X240192Y11721D01*
X240247Y11804D01*
X240837Y11821D01*
X241002Y11573D01*
X241653Y11138D01*
X242421Y10985D01*
X243189Y11138D01*
X243841Y11573D01*
X244025Y11849D01*
X244557Y11919D01*
X245338Y11397D01*
X246260Y11214D01*
X250394D01*
X251315Y11397D01*
X252097Y11919D01*
X252619Y12700D01*
X252802Y13622D01*
X252619Y14544D01*
X252097Y15325D01*
X251315Y15847D01*
X251215Y15867D01*
Y16377D01*
X251315Y16397D01*
X252097Y16919D01*
X252619Y17700D01*
X252802Y18622D01*
X252619Y19544D01*
X252097Y20325D01*
X251315Y20847D01*
X251215Y20867D01*
Y21377D01*
X251315Y21397D01*
X252097Y21919D01*
X252619Y22700D01*
X252802Y23622D01*
X252619Y24544D01*
X252190Y25185D01*
X252308Y25628D01*
X252380Y25732D01*
X252737Y25803D01*
X253388Y26238D01*
X253823Y26889D01*
X253976Y27657D01*
X253823Y28425D01*
X253388Y29077D01*
X252737Y29512D01*
X252621Y29535D01*
X252619Y29544D01*
X252097Y30325D01*
X251315Y30847D01*
X250394Y31030D01*
X246260D01*
X245338Y30847D01*
X244557Y30325D01*
X244035Y29544D01*
X243851Y28622D01*
X244035Y27700D01*
X244557Y26919D01*
X245338Y26397D01*
X245438Y26377D01*
Y25867D01*
X245338Y25847D01*
X244557Y25325D01*
X244035Y24544D01*
X243851Y23622D01*
X244035Y22700D01*
X244557Y21919D01*
X245338Y21397D01*
X245438Y21377D01*
Y20867D01*
X245338Y20847D01*
X244557Y20325D01*
X244035Y19544D01*
X243851Y18622D01*
X243864Y18557D01*
X243618Y18189D01*
X243465Y17421D01*
X243618Y16653D01*
X244053Y16002D01*
X244361Y15796D01*
X244555Y15330D01*
X244457Y15176D01*
X244171Y14748D01*
X243618Y14602D01*
X243539Y14613D01*
X243189Y14846D01*
X242421Y14999D01*
X242276Y14970D01*
X241922Y15324D01*
X241968Y15551D01*
X241815Y16319D01*
X241380Y16970D01*
X240729Y17405D01*
X239961Y17558D01*
X239251Y17417D01*
X239071Y17541D01*
X238856Y17782D01*
X239023Y18622D01*
X238839Y19544D01*
X238317Y20325D01*
X237536Y20847D01*
X237436Y20867D01*
Y21377D01*
X237536Y21397D01*
X238317Y21919D01*
X238839Y22700D01*
X239023Y23622D01*
X238994Y23765D01*
X239348Y24119D01*
X239567Y24075D01*
X240335Y24228D01*
X240986Y24663D01*
X241421Y25314D01*
X241574Y26083D01*
X241421Y26851D01*
X240986Y27502D01*
X240980Y27506D01*
Y30882D01*
X240903Y31269D01*
X240684Y31598D01*
X238962Y33319D01*
X239023Y33622D01*
X238839Y34544D01*
X238317Y35325D01*
X238063Y35495D01*
X238215Y35995D01*
X240551D01*
X241127Y36109D01*
X241616Y36436D01*
X246412Y41232D01*
X247028Y41354D01*
X247679Y41789D01*
X248114Y42441D01*
X248267Y43209D01*
X248114Y43977D01*
X247679Y44628D01*
X247028Y45063D01*
X246260Y45216D01*
D02*
G37*
G36*
X295571Y41112D02*
X294618Y40922D01*
X293810Y40383D01*
X293270Y39575D01*
X293081Y38622D01*
X293270Y37669D01*
X293810Y36861D01*
X294618Y36322D01*
X295571Y36132D01*
X296523Y36322D01*
X297331Y36861D01*
X297871Y37669D01*
X298061Y38622D01*
X297871Y39575D01*
X297331Y40383D01*
X296523Y40922D01*
X295571Y41112D01*
D02*
G37*
G36*
X301771Y20609D02*
X301003Y20457D01*
X300352Y20022D01*
X300080Y19614D01*
X290963D01*
X290691Y20022D01*
X290039Y20457D01*
X289271Y20609D01*
X288503Y20457D01*
X287852Y20022D01*
X287417Y19370D01*
X287264Y18602D01*
X287417Y17834D01*
X287852Y17183D01*
X288503Y16748D01*
X289271Y16595D01*
X290039Y16748D01*
X290691Y17183D01*
X290963Y17591D01*
X300080D01*
X300352Y17183D01*
X301003Y16748D01*
X301771Y16595D01*
X302539Y16748D01*
X303191Y17183D01*
X303626Y17834D01*
X303779Y18602D01*
X303626Y19371D01*
X303191Y20022D01*
X302539Y20457D01*
X301771Y20609D01*
D02*
G37*
G36*
X18701Y17651D02*
X17699Y17519D01*
X16765Y17132D01*
X15963Y16517D01*
X15348Y15715D01*
X14961Y14782D01*
X14829Y13780D01*
X14961Y12777D01*
X15348Y11844D01*
X15963Y11042D01*
X16765Y10426D01*
X17699Y10040D01*
X18701Y9908D01*
X19703Y10040D01*
X20637Y10426D01*
X21439Y11042D01*
X22054Y11844D01*
X22441Y12777D01*
X22572Y13780D01*
X22441Y14782D01*
X22054Y15715D01*
X21439Y16517D01*
X20637Y17132D01*
X19703Y17519D01*
X18701Y17651D01*
D02*
G37*
G36*
X5709D02*
X4707Y17519D01*
X3773Y17132D01*
X2971Y16517D01*
X2356Y15715D01*
X1969Y14782D01*
X1837Y13780D01*
X1969Y12777D01*
X2356Y11844D01*
X2971Y11042D01*
X3773Y10426D01*
X4707Y10040D01*
X5709Y9908D01*
X6711Y10040D01*
X7644Y10426D01*
X8446Y11042D01*
X9062Y11844D01*
X9448Y12777D01*
X9580Y13780D01*
X9448Y14782D01*
X9062Y15715D01*
X8446Y16517D01*
X7644Y17132D01*
X6711Y17519D01*
X5709Y17651D01*
D02*
G37*
G36*
X6209Y27436D02*
Y24122D01*
X9522D01*
X9456Y24626D01*
X9069Y25562D01*
X8452Y26365D01*
X7648Y26982D01*
X6713Y27369D01*
X6209Y27436D01*
D02*
G37*
G36*
X18201Y27436D02*
X17697Y27369D01*
X16761Y26982D01*
X15957Y26365D01*
X15341Y25562D01*
X14953Y24626D01*
X14887Y24122D01*
X18201D01*
Y27436D01*
D02*
G37*
G36*
X19201Y27436D02*
Y24122D01*
X22514D01*
X22448Y24626D01*
X22061Y25562D01*
X21444Y26365D01*
X20641Y26982D01*
X19705Y27369D01*
X19201Y27436D01*
D02*
G37*
G36*
X5209Y27436D02*
X4704Y27369D01*
X3769Y26982D01*
X2965Y26365D01*
X2349Y25562D01*
X1961Y24626D01*
X1895Y24122D01*
X5209D01*
Y27436D01*
D02*
G37*
G36*
X83563Y32692D02*
X82509Y32554D01*
X81528Y32147D01*
X80685Y31500D01*
X80038Y30657D01*
X79631Y29675D01*
X79493Y28622D01*
X79631Y27569D01*
X80038Y26587D01*
X80685Y25744D01*
X81528Y25097D01*
X82509Y24690D01*
X83563Y24552D01*
X84616Y24690D01*
X85598Y25097D01*
X86441Y25744D01*
X87088Y26587D01*
X87494Y27569D01*
X87633Y28622D01*
X87494Y29675D01*
X87088Y30657D01*
X86441Y31500D01*
X85598Y32147D01*
X84616Y32554D01*
X83563Y32692D01*
D02*
G37*
G36*
X5709Y37336D02*
X4707Y37204D01*
X3773Y36818D01*
X2971Y36202D01*
X2356Y35400D01*
X1969Y34467D01*
X1837Y33465D01*
X1969Y32462D01*
X2356Y31529D01*
X2971Y30727D01*
X3773Y30112D01*
X4707Y29725D01*
X5709Y29593D01*
X6711Y29725D01*
X7644Y30112D01*
X8446Y30727D01*
X9062Y31529D01*
X9448Y32462D01*
X9580Y33465D01*
X9448Y34467D01*
X9062Y35400D01*
X8446Y36202D01*
X7644Y36818D01*
X6711Y37204D01*
X5709Y37336D01*
D02*
G37*
G36*
X18701D02*
X17699Y37204D01*
X16765Y36818D01*
X15963Y36202D01*
X15348Y35400D01*
X14961Y34467D01*
X14829Y33465D01*
X14961Y32462D01*
X15348Y31529D01*
X15963Y30727D01*
X16765Y30112D01*
X17699Y29725D01*
X18701Y29593D01*
X19703Y29725D01*
X20637Y30112D01*
X21439Y30727D01*
X22054Y31529D01*
X22441Y32462D01*
X22572Y33465D01*
X22441Y34467D01*
X22054Y35400D01*
X21439Y36202D01*
X20637Y36818D01*
X19703Y37204D01*
X18701Y37336D01*
D02*
G37*
G36*
X83063Y22665D02*
X79520D01*
Y19122D01*
X83063D01*
Y22665D01*
D02*
G37*
G36*
X87606D02*
X84063D01*
Y19122D01*
X87606D01*
Y22665D01*
D02*
G37*
G36*
X83063Y18122D02*
X79520D01*
Y14579D01*
X83063D01*
Y18122D01*
D02*
G37*
G36*
X87606D02*
X84063D01*
Y14579D01*
X87606D01*
Y18122D01*
D02*
G37*
G36*
X9522Y23122D02*
X6209D01*
Y19808D01*
X6713Y19875D01*
X7648Y20262D01*
X8452Y20879D01*
X9069Y21682D01*
X9456Y22618D01*
X9522Y23122D01*
D02*
G37*
G36*
X5209D02*
X1895D01*
X1961Y22618D01*
X2349Y21682D01*
X2965Y20879D01*
X3769Y20262D01*
X4704Y19875D01*
X5209Y19808D01*
Y23122D01*
D02*
G37*
G36*
X22514Y23122D02*
X19201D01*
Y19808D01*
X19705Y19875D01*
X20641Y20262D01*
X21444Y20879D01*
X22061Y21682D01*
X22448Y22618D01*
X22514Y23122D01*
D02*
G37*
G36*
X18201D02*
X14887D01*
X14953Y22618D01*
X15341Y21682D01*
X15957Y20879D01*
X16761Y20262D01*
X17697Y19875D01*
X18201Y19808D01*
Y23122D01*
D02*
G37*
G36*
X133071Y11509D02*
X131996D01*
Y9122D01*
X135892D01*
X135859Y9369D01*
X135571Y10065D01*
X135112Y10663D01*
X134514Y11122D01*
X133818Y11411D01*
X133071Y11509D01*
D02*
G37*
G36*
X130996D02*
X129921D01*
X129174Y11411D01*
X128478Y11122D01*
X127880Y10663D01*
X127421Y10065D01*
X127133Y9369D01*
X127100Y9122D01*
X130996D01*
Y11509D01*
D02*
G37*
G36*
X133071Y21501D02*
X129921D01*
X129176Y21403D01*
X128482Y21115D01*
X127885Y20658D01*
X127428Y20062D01*
X127140Y19367D01*
X127042Y18622D01*
X127140Y17877D01*
X127428Y17183D01*
X127885Y16586D01*
X128482Y16129D01*
X129176Y15841D01*
X129921Y15743D01*
X132087D01*
X132271Y15243D01*
X132004Y14843D01*
X131851Y14075D01*
X132004Y13307D01*
X132439Y12656D01*
X133090Y12220D01*
X133858Y12068D01*
X134626Y12220D01*
X135277Y12656D01*
X135713Y13307D01*
X135865Y14075D01*
X135713Y14843D01*
X135364Y15365D01*
Y16921D01*
X135564Y17183D01*
X135852Y17877D01*
X135950Y18622D01*
X135852Y19367D01*
X135564Y20062D01*
X135107Y20658D01*
X134510Y21115D01*
X133816Y21403D01*
X133071Y21501D01*
D02*
G37*
G36*
X130996Y8122D02*
X127100D01*
X127133Y7875D01*
X127421Y7179D01*
X127880Y6581D01*
X128478Y6122D01*
X129174Y5833D01*
X129921Y5735D01*
X130996D01*
Y8122D01*
D02*
G37*
G36*
X135892D02*
X131996D01*
Y5735D01*
X133071D01*
X133818Y5833D01*
X134514Y6122D01*
X135112Y6581D01*
X135571Y7179D01*
X135859Y7875D01*
X135892Y8122D01*
D02*
G37*
G36*
X103248Y32692D02*
X102195Y32554D01*
X101213Y32147D01*
X100370Y31500D01*
X99723Y30657D01*
X99317Y29675D01*
X99178Y28622D01*
X99317Y27569D01*
X99723Y26587D01*
X100370Y25744D01*
X101213Y25097D01*
X102195Y24690D01*
X103248Y24552D01*
X104302Y24690D01*
X105283Y25097D01*
X106126Y25744D01*
X106773Y26587D01*
X107180Y27569D01*
X107318Y28622D01*
X107180Y29675D01*
X106773Y30657D01*
X106126Y31500D01*
X105283Y32147D01*
X104302Y32554D01*
X103248Y32692D01*
D02*
G37*
G36*
X107291Y18122D02*
X103748D01*
Y14579D01*
X107291D01*
Y18122D01*
D02*
G37*
G36*
X102748D02*
X99205D01*
Y14579D01*
X102748D01*
Y18122D01*
D02*
G37*
G36*
Y22665D02*
X99205D01*
Y19122D01*
X102748D01*
Y22665D01*
D02*
G37*
G36*
X107291D02*
X103748D01*
Y19122D01*
X107291D01*
Y22665D01*
D02*
G37*
G36*
X200591Y11509D02*
X199516D01*
Y9122D01*
X203412D01*
X203379Y9369D01*
X203091Y10065D01*
X202632Y10663D01*
X202034Y11122D01*
X201338Y11411D01*
X200591Y11509D01*
D02*
G37*
G36*
X198516D02*
X197441D01*
X196694Y11411D01*
X195998Y11122D01*
X195400Y10663D01*
X194941Y10065D01*
X194652Y9369D01*
X194620Y9122D01*
X198516D01*
Y11509D01*
D02*
G37*
G36*
X197638Y42755D02*
X196870Y42602D01*
X196219Y42167D01*
X195783Y41516D01*
X195631Y40748D01*
X195783Y39980D01*
X196219Y39329D01*
X196870Y38894D01*
X197486Y38771D01*
X199381Y36876D01*
Y21501D01*
X197441D01*
X196696Y21403D01*
X196001Y21115D01*
X195405Y20658D01*
X194948Y20062D01*
X194660Y19367D01*
X194562Y18622D01*
X194660Y17877D01*
X194898Y17303D01*
X194745Y16535D01*
X194898Y15767D01*
X195333Y15116D01*
X195984Y14681D01*
X196752Y14528D01*
X197520Y14681D01*
X198171Y15116D01*
X198590Y15743D01*
X200591D01*
X201336Y15841D01*
X202030Y16129D01*
X202626Y16586D01*
X203084Y17183D01*
X203371Y17877D01*
X203469Y18622D01*
X203371Y19367D01*
X203084Y20062D01*
X202626Y20658D01*
X202391Y20838D01*
Y37500D01*
X202276Y38076D01*
X201950Y38564D01*
X199615Y40900D01*
X199492Y41516D01*
X199057Y42167D01*
X198406Y42602D01*
X197638Y42755D01*
D02*
G37*
G36*
X154724Y11509D02*
X153650D01*
Y9122D01*
X157545D01*
X157513Y9369D01*
X157225Y10065D01*
X156766Y10663D01*
X156168Y11122D01*
X155472Y11411D01*
X154724Y11509D01*
D02*
G37*
G36*
X157545Y8122D02*
X153650D01*
Y5735D01*
X154724D01*
X155472Y5833D01*
X156168Y6122D01*
X156766Y6581D01*
X157225Y7179D01*
X157513Y7875D01*
X157545Y8122D01*
D02*
G37*
G36*
X198516D02*
X194620D01*
X194652Y7875D01*
X194941Y7179D01*
X195400Y6581D01*
X195998Y6122D01*
X196694Y5833D01*
X197441Y5735D01*
X198516D01*
Y8122D01*
D02*
G37*
G36*
X152650D02*
X148754D01*
X148786Y7875D01*
X149075Y7179D01*
X149533Y6581D01*
X150131Y6122D01*
X150828Y5833D01*
X151575Y5735D01*
X152650D01*
Y8122D01*
D02*
G37*
G36*
X203412D02*
X199516D01*
Y5735D01*
X200591D01*
X201338Y5833D01*
X202034Y6122D01*
X202632Y6581D01*
X203091Y7179D01*
X203379Y7875D01*
X203412Y8122D01*
D02*
G37*
G36*
X152650Y11509D02*
X151575D01*
X150828Y11411D01*
X150131Y11122D01*
X149533Y10663D01*
X149075Y10065D01*
X148786Y9369D01*
X148754Y9122D01*
X152650D01*
Y11509D01*
D02*
G37*
G36*
X182776Y40393D02*
X182008Y40240D01*
X181356Y39805D01*
X180921Y39154D01*
X180769Y38386D01*
X180921Y37618D01*
X181356Y36967D01*
X182008Y36532D01*
X182445Y36445D01*
Y32436D01*
X182522Y32049D01*
X182741Y31721D01*
X184424Y30038D01*
X184094Y29544D01*
X183910Y28622D01*
X184094Y27700D01*
X184390Y27257D01*
X180194Y23062D01*
X179650Y23170D01*
X179269Y23094D01*
X178092Y24270D01*
X177764Y24490D01*
X177377Y24567D01*
X172955D01*
X172900Y24649D01*
X172249Y25084D01*
X172035Y25126D01*
X171885Y25489D01*
X171870Y25669D01*
X172011Y26379D01*
X171859Y27147D01*
X171423Y27799D01*
X170772Y28234D01*
X170004Y28386D01*
X169236Y28234D01*
X168585Y27799D01*
X168150Y27147D01*
X167997Y26379D01*
X168076Y25981D01*
X168054Y25948D01*
X167977Y25561D01*
Y23861D01*
X167802Y23799D01*
X167477Y23778D01*
X167093Y24353D01*
X166441Y24789D01*
X165673Y24941D01*
X165192Y24846D01*
X164815Y25223D01*
X164487Y25442D01*
X164100Y25519D01*
X158089D01*
X157817Y25927D01*
X157166Y26362D01*
X156398Y26515D01*
X155630Y26362D01*
X154978Y25927D01*
X154543Y25276D01*
X154391Y24508D01*
X154543Y23740D01*
X154978Y23089D01*
X155630Y22654D01*
X156398Y22501D01*
X157166Y22654D01*
X157817Y23089D01*
X158089Y23496D01*
X163268D01*
X163679Y22996D01*
X163666Y22934D01*
X163819Y22166D01*
X164254Y21515D01*
X164905Y21080D01*
X165673Y20927D01*
X166441Y21080D01*
X167093Y21515D01*
X167493Y22114D01*
X167587Y22122D01*
X167713Y22117D01*
X167999Y22041D01*
X168054Y21766D01*
X168273Y21438D01*
X169745Y19967D01*
X170073Y19747D01*
X170460Y19670D01*
X172600D01*
X176352Y15919D01*
X176680Y15699D01*
X177067Y15622D01*
X177067Y15622D01*
X183144D01*
X184145Y14621D01*
X184094Y14544D01*
X183910Y13622D01*
X184094Y12700D01*
X184616Y11919D01*
X185397Y11397D01*
X185497Y11377D01*
Y10867D01*
X185397Y10847D01*
X184616Y10325D01*
X184094Y9544D01*
X184041Y9279D01*
X177578D01*
X177305Y9687D01*
X176654Y10122D01*
X175886Y10275D01*
X175118Y10122D01*
X174467Y9687D01*
X174032Y9036D01*
X173879Y8268D01*
X174032Y7500D01*
X174467Y6848D01*
X175118Y6413D01*
X175886Y6261D01*
X176654Y6413D01*
X177305Y6848D01*
X177577Y7256D01*
X184391D01*
X184616Y6919D01*
X185397Y6397D01*
X186319Y6214D01*
X190453D01*
X191374Y6397D01*
X192156Y6919D01*
X192678Y7700D01*
X192861Y8622D01*
X192678Y9544D01*
X192156Y10325D01*
X191374Y10847D01*
X191274Y10867D01*
Y11377D01*
X191374Y11397D01*
X192156Y11919D01*
X192678Y12700D01*
X192861Y13622D01*
X192678Y14544D01*
X192156Y15325D01*
X191374Y15847D01*
X191274Y15867D01*
Y16377D01*
X191374Y16397D01*
X192156Y16919D01*
X192678Y17700D01*
X192861Y18622D01*
X192678Y19544D01*
X192492Y19821D01*
X194121Y21450D01*
X194340Y21778D01*
X194417Y22165D01*
Y36713D01*
X194340Y37100D01*
X194121Y37428D01*
X194121Y37428D01*
X191660Y39889D01*
X191332Y40108D01*
X190945Y40185D01*
X188091D01*
X188091Y40185D01*
X187704Y40108D01*
X187375Y39889D01*
X186849Y39362D01*
X186122Y39507D01*
X185354Y39354D01*
X185130Y39204D01*
X184630Y39154D01*
X184504Y39342D01*
X184195Y39805D01*
X183544Y40240D01*
X182776Y40393D01*
D02*
G37*
G36*
X152854Y45117D02*
X152086Y44965D01*
X151435Y44530D01*
X151000Y43878D01*
X150847Y43110D01*
X151000Y42342D01*
X151435Y41691D01*
X152086Y41256D01*
X152258Y41222D01*
Y38092D01*
X152264Y38064D01*
X152204Y37975D01*
X152082Y37358D01*
X149132Y34409D01*
X148806Y33921D01*
X148691Y33345D01*
Y18622D01*
X148705Y18556D01*
X148794Y17877D01*
X149082Y17183D01*
X149539Y16586D01*
X150135Y16129D01*
X150830Y15841D01*
X151575Y15743D01*
X154724D01*
X154995Y15779D01*
X155372Y15215D01*
X156023Y14780D01*
X156791Y14627D01*
X157559Y14780D01*
X158211Y15215D01*
X158646Y15866D01*
X158798Y16634D01*
X158646Y17402D01*
X158211Y18053D01*
X157584Y18472D01*
X157603Y18622D01*
X157505Y19367D01*
X157218Y20062D01*
X156760Y20658D01*
X156164Y21115D01*
X155470Y21403D01*
X154724Y21501D01*
X151702D01*
Y32721D01*
X154059Y35078D01*
X156539Y32597D01*
X157028Y32271D01*
X157604Y32156D01*
X166364D01*
X166453Y31712D01*
X166888Y31061D01*
X167539Y30626D01*
X168307Y30473D01*
X169075Y30626D01*
X169726Y31061D01*
X170161Y31712D01*
X170314Y32480D01*
X170161Y33248D01*
X169781Y33817D01*
X169698Y34238D01*
X169371Y34726D01*
X168883Y35052D01*
X168307Y35167D01*
X158227D01*
X156035Y37358D01*
X155913Y37975D01*
X155478Y38626D01*
X155269Y38766D01*
Y42201D01*
X155154Y42777D01*
X154832Y43260D01*
X154709Y43878D01*
X154274Y44530D01*
X153622Y44965D01*
X152854Y45117D01*
D02*
G37*
G36*
X166437Y44724D02*
X165669Y44571D01*
X165018Y44136D01*
X164583Y43485D01*
X164430Y42717D01*
X164583Y41949D01*
X165018Y41297D01*
X165669Y40862D01*
X166437Y40709D01*
X167205Y40862D01*
X167856Y41297D01*
X168129Y41705D01*
X170164D01*
X170291Y41063D01*
X170726Y40411D01*
X171378Y39976D01*
X172146Y39824D01*
X172914Y39976D01*
X173565Y40411D01*
X174000Y41063D01*
X174153Y41831D01*
X174000Y42599D01*
X173565Y43250D01*
X172914Y43685D01*
X172146Y43838D01*
X171427Y43695D01*
X171260Y43728D01*
X168129D01*
X167856Y44136D01*
X167205Y44571D01*
X166437Y44724D01*
D02*
G37*
%LPD*%
D32*
X239476Y15067D02*
X239961Y15551D01*
X239476Y12437D02*
Y15067D01*
X235662Y8622D02*
X239476Y12437D01*
X234547Y8622D02*
X235662D01*
X185433Y13091D02*
Y14764D01*
X183563Y16634D02*
X185433Y14764D01*
X177067Y16634D02*
X183563D01*
X182776Y38386D02*
X183457Y37705D01*
X164100Y24508D02*
X165673Y22934D01*
X175886Y8268D02*
X186319D01*
X177377Y23555D02*
X179710Y21222D01*
X171216Y23555D02*
X177377D01*
X289271Y18602D02*
X301771D01*
X301771Y18602D01*
X166437Y42717D02*
X171260D01*
X172146Y41831D01*
X232677Y22933D02*
X233071Y23327D01*
X232677Y23622D02*
X233071D01*
X234449D01*
X233071Y23327D02*
Y23622D01*
Y23917D01*
X229921Y17224D02*
X231319Y18622D01*
X242421Y13091D02*
X247795D01*
X239567Y26083D02*
X239968Y26484D01*
X234547Y33622D02*
X237918D01*
X239968Y26484D02*
Y30882D01*
X237918Y32933D02*
X239968Y30882D01*
X228248Y16139D02*
Y20571D01*
Y16139D02*
X231790Y12597D01*
X188091Y39173D02*
X190945D01*
X186516Y37598D02*
X188091Y39173D01*
X181072Y18474D02*
X186270Y23671D01*
X183457Y32436D02*
X187271Y28622D01*
X189862D01*
X183457Y32436D02*
Y37705D01*
X190945Y39173D02*
X193405Y36713D01*
X189862Y18622D02*
X193405Y22165D01*
Y36713D01*
X168989Y22153D02*
X170460Y20682D01*
X179639Y21076D02*
X187008Y28445D01*
X178771Y18474D02*
X181072D01*
X176181Y21063D02*
X178771Y18474D01*
X173019Y20682D02*
X177067Y16634D01*
X168989Y22153D02*
Y25561D01*
X170460Y20682D02*
X173019D01*
X156398Y24508D02*
X164100D01*
X168989Y25561D02*
X170103Y26675D01*
X194701Y6524D02*
X196602Y8425D01*
X197193Y8622D02*
X199016D01*
X194898Y10523D02*
X196799Y8622D01*
D33*
X197638Y40748D02*
X200886Y37500D01*
X152854Y43110D02*
X153763Y42201D01*
X150197Y33345D02*
X154059Y37207D01*
X150197Y18622D02*
Y33345D01*
X157604Y33661D02*
X168307D01*
X154059Y37207D02*
X157604Y33661D01*
X200886Y18504D02*
Y37500D01*
X153763Y38092D02*
Y42201D01*
X133858Y14075D02*
Y18701D01*
X240551Y37500D02*
X246260Y43209D01*
X229035Y35008D02*
X231527Y37500D01*
X229035Y30807D02*
X229035Y30807D01*
Y35008D01*
X231527Y37500D02*
X240551D01*
X221850Y23327D02*
X229134Y30610D01*
X221850Y18602D02*
Y23327D01*
D41*
X18701Y23622D02*
D03*
Y13780D02*
D03*
Y33465D02*
D03*
X5709Y23622D02*
D03*
Y33465D02*
D03*
Y13780D02*
D03*
D42*
X83563Y28622D02*
D03*
X103248D02*
D03*
D43*
X83563Y18622D02*
D03*
X103248D02*
D03*
D44*
X174803Y29429D02*
D03*
X178740D02*
D03*
Y33366D02*
D03*
X174803D02*
D03*
D45*
X147047Y22441D02*
D03*
X157677Y60236D02*
D03*
X170374Y60335D02*
D03*
X188386Y4134D02*
D03*
X129831Y4224D02*
D03*
X126279Y7776D02*
D03*
X125098Y42126D02*
D03*
X116150Y5405D02*
D03*
X222441Y36713D02*
D03*
X216437Y37598D02*
D03*
X216831Y11516D02*
D03*
X112500Y9154D02*
D03*
X111614Y16732D02*
D03*
X130315Y37697D02*
D03*
X103248Y38780D02*
D03*
X222441Y32874D02*
D03*
X304527Y23622D02*
D03*
X216535Y23425D02*
D03*
X222342Y40256D02*
D03*
X216535Y29823D02*
D03*
X219193Y43701D02*
D03*
X289567Y14961D02*
D03*
X289271Y33366D02*
D03*
X282382Y34252D02*
D03*
X291831Y37205D02*
D03*
X279035Y43012D02*
D03*
X246260Y43209D02*
D03*
X304134Y3642D02*
D03*
X304331Y43799D02*
D03*
X286516Y4134D02*
D03*
X286024Y22441D02*
D03*
X216535Y26673D02*
D03*
X289271Y18602D02*
D03*
X301771Y18602D02*
D03*
X259842Y13484D02*
D03*
X119882Y32382D02*
D03*
X136614Y22343D02*
D03*
X39370Y39370D02*
D03*
X268209Y43110D02*
D03*
X9154Y7874D02*
D03*
X8661Y39370D02*
D03*
X83268Y39173D02*
D03*
X37402Y7874D02*
D03*
X72835Y13780D02*
D03*
Y31496D02*
D03*
X27756Y14173D02*
D03*
X133858Y14075D02*
D03*
X130315Y32185D02*
D03*
X119882Y37697D02*
D03*
X222441Y11122D02*
D03*
X237500Y29823D02*
D03*
X275492Y43012D02*
D03*
X282283Y39862D02*
D03*
X242421Y12992D02*
D03*
X256201Y24409D02*
D03*
X251969Y27657D02*
D03*
X229134Y30610D02*
D03*
X193209Y50000D02*
D03*
X199016Y4134D02*
D03*
X150000Y46161D02*
D03*
X196752Y16535D02*
D03*
X162402Y51181D02*
D03*
X156791Y16634D02*
D03*
X196260Y12795D02*
D03*
Y22835D02*
D03*
X158957Y8563D02*
D03*
X166831Y4724D02*
D03*
X204232Y9252D02*
D03*
X153150Y4331D02*
D03*
X147343Y8661D02*
D03*
X205118Y20472D02*
D03*
X153937Y56988D02*
D03*
X171063Y51083D02*
D03*
X182480Y57776D02*
D03*
X156398Y24508D02*
D03*
X202067Y43110D02*
D03*
X201870Y57776D02*
D03*
X204921Y36220D02*
D03*
X165021Y19526D02*
D03*
X168307Y32480D02*
D03*
X182382Y46555D02*
D03*
X166437Y42717D02*
D03*
X193996Y39665D02*
D03*
X182776Y38386D02*
D03*
X197638Y40748D02*
D03*
X154059Y37207D02*
D03*
X152854Y43110D02*
D03*
X170004Y26379D02*
D03*
X156299Y12992D02*
D03*
X160925Y36614D02*
D03*
X169980Y37992D02*
D03*
X172146Y41831D02*
D03*
X24803Y39370D02*
D03*
X61024D02*
D03*
X64173Y7874D02*
D03*
X136713Y10531D02*
D03*
X125984Y14567D02*
D03*
X103248Y8957D02*
D03*
X148425Y35827D02*
D03*
X229232Y20669D02*
D03*
X239567Y26083D02*
D03*
X239961Y15551D02*
D03*
X232480Y22539D02*
D03*
X229429Y26083D02*
D03*
X240354Y19488D02*
D03*
X242717Y30610D02*
D03*
X230752Y17224D02*
D03*
X264567Y43110D02*
D03*
X271850Y43012D02*
D03*
X222342Y4232D02*
D03*
X245473Y17421D02*
D03*
X248654Y22540D02*
D03*
X189862Y36614D02*
D03*
X180118Y4626D02*
D03*
X186122Y37500D02*
D03*
X175886Y8268D02*
D03*
X165673Y22934D02*
D03*
X179650Y21162D02*
D03*
X177067Y13386D02*
D03*
X171481Y23230D02*
D03*
X176205Y21064D02*
D03*
D46*
X131496Y8622D02*
D03*
Y18622D02*
D03*
X199016Y8622D02*
D03*
Y18622D02*
D03*
X153150Y8622D02*
D03*
Y18622D02*
D03*
X220768Y8622D02*
D03*
Y18622D02*
D03*
D47*
X234547Y23622D02*
D03*
Y18622D02*
D03*
Y28622D02*
D03*
Y33622D02*
D03*
Y8622D02*
D03*
Y13622D02*
D03*
X248327Y18622D02*
D03*
Y13622D02*
D03*
Y23622D02*
D03*
Y28622D02*
D03*
X188386Y23622D02*
D03*
Y18622D02*
D03*
Y28622D02*
D03*
Y33622D02*
D03*
Y8622D02*
D03*
Y13622D02*
D03*
M02*
