G04 Layer_Color=16711935*
%FSLAX25Y25*%
%MOIN*%
G70*
G01*
G75*
%ADD32C,0.01000*%
%ADD48C,0.00500*%
%ADD81C,0.00394*%
D32*
X19390Y5906D02*
Y41339D01*
X-2657D02*
X19390D01*
X-2657Y5906D02*
Y41339D01*
Y5906D02*
X-2657Y5906D01*
X19390D01*
X88563Y13622D02*
Y33622D01*
X78563D02*
X88563D01*
X78563Y13622D02*
X88563D01*
X78563D02*
Y33622D01*
X169882Y5709D02*
X182087D01*
X169882Y15551D02*
X182087D01*
Y5709D02*
Y15551D01*
X169882Y5709D02*
Y15551D01*
X219783Y3937D02*
Y39961D01*
Y3937D02*
X281693D01*
X219783Y39961D02*
X281693D01*
Y3937D02*
Y39961D01*
X108248Y13622D02*
Y33622D01*
X98248D02*
X108248D01*
X98248Y13622D02*
X108248D01*
X98248D02*
Y33622D01*
D48*
X122539Y7480D02*
Y10630D01*
X116240Y7480D02*
Y10630D01*
X122539D01*
X116240Y7480D02*
X122539D01*
D81*
X183957Y24213D02*
Y38583D01*
X169587Y24213D02*
Y38583D01*
Y24213D02*
X183957D01*
X169587Y38583D02*
X183957D01*
X118898Y27953D02*
X125197D01*
Y16535D02*
Y27953D01*
X118898Y16535D02*
Y27953D01*
Y16535D02*
X125197D01*
X150689Y10827D02*
X161909D01*
X150689D02*
Y30118D01*
X161909Y10827D02*
Y30118D01*
X150689D02*
X161909D01*
X113193Y29342D02*
Y40343D01*
X125193Y29342D02*
Y40343D01*
X113193D02*
X125193D01*
X113193Y29342D02*
X125193D01*
X130315Y18342D02*
Y26342D01*
X135433Y18342D02*
Y26342D01*
X130315Y18342D02*
X135433D01*
X130315Y26342D02*
X135433D01*
X128024Y14126D02*
X131622D01*
X131623Y14125D01*
Y7725D02*
Y14125D01*
X128023D02*
X128024Y14126D01*
X128023Y7725D02*
Y14125D01*
Y7725D02*
X131623D01*
X165559Y16346D02*
X167921D01*
X165559Y12016D02*
X167921D01*
Y16346D01*
X165559Y12016D02*
Y16346D01*
X157972Y44587D02*
Y46949D01*
X153642Y44587D02*
Y46949D01*
Y44587D02*
X157972D01*
X153642Y46949D02*
X157972D01*
X155878Y50736D02*
X159476D01*
X155877Y50737D02*
X155878Y50736D01*
X155877Y50737D02*
Y57137D01*
X159476Y50736D02*
X159477Y50737D01*
Y57137D01*
X155877D02*
X159477D01*
X181890Y49902D02*
X184252D01*
X181890Y54232D02*
X184252D01*
X181890Y49902D02*
Y54232D01*
X184252Y49902D02*
Y54232D01*
X180059Y45571D02*
Y56791D01*
X160768Y45571D02*
X180059D01*
X160768Y56791D02*
X180059D01*
X160768Y45571D02*
Y56791D01*
X190650Y10827D02*
X201870D01*
X190650D02*
Y30118D01*
X201870Y10827D02*
Y30118D01*
X190650D02*
X201870D01*
X164862Y37894D02*
X167224D01*
X164862Y33563D02*
X167224D01*
Y37894D01*
X164862Y33563D02*
Y37894D01*
X159126Y33020D02*
X162724D01*
X159125Y33020D02*
X159126Y33020D01*
X159125Y33020D02*
Y39421D01*
X162724Y33020D02*
X162725Y33020D01*
Y39421D01*
X159125D02*
X162725D01*
X166823Y7095D02*
Y9457D01*
X162492Y7095D02*
Y9457D01*
Y7095D02*
X166823D01*
X162492Y9457D02*
X166823D01*
X184153Y12008D02*
X186516D01*
X184153Y16339D02*
X186516D01*
X184153Y12008D02*
Y16339D01*
X186516Y12008D02*
Y16339D01*
X200268Y33020D02*
X203866D01*
X200267Y33020D02*
X200268Y33020D01*
X200267Y33020D02*
Y39421D01*
X203866Y33020D02*
X203867Y33020D01*
Y39421D01*
X200267D02*
X203867D01*
X196457Y34055D02*
X198819D01*
X196457Y38386D02*
X198819D01*
X196457Y34055D02*
Y38386D01*
X198819Y34055D02*
Y38386D01*
X155216Y34055D02*
X157579D01*
X155216Y38386D02*
X157579D01*
X155216Y34055D02*
Y38386D01*
X157579Y34055D02*
Y38386D01*
X222441Y42520D02*
Y44882D01*
X226772Y42520D02*
Y44882D01*
X222441D02*
X226772D01*
X222441Y42520D02*
X226772D01*
X116091Y11685D02*
Y15283D01*
X116091Y15284D01*
X122491D01*
X116091Y11685D02*
X116091Y11684D01*
X122491D01*
Y15284D01*
X109815Y26724D02*
X113414D01*
X113414Y26724D01*
Y20324D02*
Y26724D01*
X109814D02*
X109815Y26724D01*
X109814Y20324D02*
Y26724D01*
Y20324D02*
X113414D01*
X234449Y42520D02*
Y44882D01*
X230118Y42520D02*
Y44882D01*
Y42520D02*
X234449D01*
X230118Y44882D02*
X234449D01*
X238583Y42520D02*
Y44882D01*
X242913Y42520D02*
Y44882D01*
X238583D02*
X242913D01*
X238583Y42520D02*
X242913D01*
X261319D02*
Y44882D01*
X256988Y42520D02*
Y44882D01*
Y42520D02*
X261319D01*
X256988Y44882D02*
X261319D01*
M02*
