G04 Layer_Physical_Order=1*
G04 Layer_Color=255*
%FSLAX25Y25*%
%MOIN*%
G70*
G01*
G75*
%ADD10O,0.03347X0.01102*%
%ADD11O,0.01102X0.03347*%
%ADD12R,0.08071X0.08071*%
%ADD13R,0.03347X0.01102*%
%ADD14C,0.03100*%
%ADD15R,0.05315X0.02559*%
G04:AMPARAMS|DCode=16|XSize=53.15mil|YSize=25.59mil|CornerRadius=6.4mil|HoleSize=0mil|Usage=FLASHONLY|Rotation=0.000|XOffset=0mil|YOffset=0mil|HoleType=Round|Shape=RoundedRectangle|*
%AMROUNDEDRECTD16*
21,1,0.05315,0.01280,0,0,0.0*
21,1,0.04035,0.02559,0,0,0.0*
1,1,0.01280,0.02018,-0.00640*
1,1,0.01280,-0.02018,-0.00640*
1,1,0.01280,-0.02018,0.00640*
1,1,0.01280,0.02018,0.00640*
%
%ADD16ROUNDEDRECTD16*%
%ADD17R,0.02559X0.05315*%
G04:AMPARAMS|DCode=18|XSize=53.15mil|YSize=25.59mil|CornerRadius=6.4mil|HoleSize=0mil|Usage=FLASHONLY|Rotation=90.000|XOffset=0mil|YOffset=0mil|HoleType=Round|Shape=RoundedRectangle|*
%AMROUNDEDRECTD18*
21,1,0.05315,0.01280,0,0,90.0*
21,1,0.04035,0.02559,0,0,90.0*
1,1,0.01280,0.00640,0.02018*
1,1,0.01280,0.00640,-0.02018*
1,1,0.01280,-0.00640,-0.02018*
1,1,0.01280,-0.00640,0.02018*
%
%ADD18ROUNDEDRECTD18*%
%ADD19R,0.02165X0.03110*%
%ADD20R,0.03150X0.03150*%
%ADD21R,0.01969X0.08268*%
G04:AMPARAMS|DCode=22|XSize=82.68mil|YSize=19.69mil|CornerRadius=4.92mil|HoleSize=0mil|Usage=FLASHONLY|Rotation=270.000|XOffset=0mil|YOffset=0mil|HoleType=Round|Shape=RoundedRectangle|*
%AMROUNDEDRECTD22*
21,1,0.08268,0.00984,0,0,270.0*
21,1,0.07284,0.01969,0,0,270.0*
1,1,0.00984,-0.00492,-0.03642*
1,1,0.00984,-0.00492,0.03642*
1,1,0.00984,0.00492,0.03642*
1,1,0.00984,0.00492,-0.03642*
%
%ADD22ROUNDEDRECTD22*%
%ADD23R,0.08268X0.01969*%
%ADD24R,0.07992X0.12520*%
%ADD25C,0.15748*%
%ADD26R,0.06299X0.10630*%
%ADD27R,0.04724X0.03937*%
%ADD28R,0.03150X0.03150*%
%ADD29R,0.02362X0.02756*%
%ADD30R,0.02756X0.02362*%
%ADD31C,0.01000*%
%ADD32C,0.01969*%
%ADD33C,0.07087*%
%ADD34C,0.01772*%
%ADD35R,0.07480X0.05315*%
%ADD36R,0.10236X0.05610*%
%ADD37R,0.11713X0.03937*%
%ADD38R,0.11713X0.04331*%
%ADD39R,0.06398X0.01083*%
%ADD40R,0.09941X0.05610*%
%ADD41C,0.06693*%
%ADD42R,0.07087X0.07087*%
%ADD43C,0.07087*%
%ADD44C,0.02756*%
%ADD45C,0.02953*%
G36*
X308240Y1012D02*
X284193D01*
Y26162D01*
X284809D01*
X288025Y22946D01*
Y20137D01*
X287852Y20022D01*
X287417Y19370D01*
X287264Y18602D01*
X287417Y17834D01*
X287852Y17183D01*
X288503Y16748D01*
X289271Y16595D01*
X290039Y16748D01*
X290691Y17183D01*
X290833Y17396D01*
X291434D01*
X291598Y17150D01*
X292274Y16698D01*
X293071Y16540D01*
X293867Y16698D01*
X294543Y17150D01*
X294994Y17825D01*
X295153Y18622D01*
X294994Y19419D01*
X294543Y20094D01*
X293867Y20546D01*
X293071Y20704D01*
X292527Y20596D01*
X291907Y21216D01*
X291924Y21331D01*
X291997Y21407D01*
X292478Y21658D01*
X293071Y21540D01*
X293867Y21698D01*
X294543Y22150D01*
X294994Y22825D01*
X295153Y23622D01*
X294994Y24419D01*
X294543Y25094D01*
X293867Y25546D01*
X293071Y25704D01*
X292468Y25584D01*
X291285Y26767D01*
X291472Y27288D01*
X291504Y27291D01*
X291598Y27150D01*
X292274Y26698D01*
X293071Y26540D01*
X293867Y26698D01*
X294543Y27150D01*
X294994Y27825D01*
X295153Y28622D01*
X294994Y29419D01*
X294543Y30094D01*
X293867Y30546D01*
X293071Y30704D01*
X292274Y30546D01*
X291598Y30094D01*
X291290Y29634D01*
X290529D01*
X287762Y32400D01*
X287434Y32620D01*
X287047Y32697D01*
X287027Y32693D01*
X287008Y32697D01*
X280955D01*
X280539Y33169D01*
Y36311D01*
X279035D01*
Y36811D01*
X278535D01*
Y41463D01*
X278156Y41387D01*
X277870Y41196D01*
X277664Y41245D01*
X277370Y41383D01*
Y41445D01*
X276385D01*
Y36811D01*
X275385D01*
Y41445D01*
X274401D01*
Y41445D01*
X274220D01*
Y41445D01*
X273236D01*
Y36811D01*
X272236D01*
Y41445D01*
X271252D01*
Y41445D01*
X271071D01*
Y41445D01*
X270086D01*
Y36811D01*
X269086D01*
Y41445D01*
X268102D01*
Y41445D01*
X267921D01*
Y41445D01*
X266937D01*
Y36811D01*
X265937D01*
Y41445D01*
X264953D01*
Y41445D01*
X264772D01*
Y41445D01*
X263295D01*
X263000Y41823D01*
X263000Y41945D01*
Y43201D01*
X261319D01*
X259638D01*
Y41911D01*
X259266Y41514D01*
X258884Y41519D01*
X258661Y41831D01*
X258661Y41942D01*
Y42670D01*
X258690Y42815D01*
X258661Y42960D01*
Y45571D01*
X255315D01*
Y44320D01*
X247885D01*
X247679Y44628D01*
X247028Y45063D01*
X246260Y45216D01*
X245492Y45063D01*
X245087Y44792D01*
X244586Y45059D01*
Y45571D01*
X241240D01*
Y41831D01*
X240996Y41489D01*
X240500D01*
X240256Y41831D01*
X240256Y41945D01*
Y45571D01*
X236909D01*
Y41831D01*
X236901Y41818D01*
X236790Y41671D01*
X236556Y41671D01*
X236122Y42121D01*
Y45571D01*
X232775D01*
Y41937D01*
X232775Y41831D01*
X232519Y41437D01*
X232048D01*
X231791Y41831D01*
Y45571D01*
X228445D01*
Y45571D01*
X225098D01*
Y41945D01*
X225098Y41831D01*
X224875Y41519D01*
X224494Y41514D01*
X224122Y41911D01*
X224122Y42112D01*
Y43201D01*
X222941D01*
Y41823D01*
X223622D01*
X223713Y41823D01*
X224008Y41445D01*
X224008Y41331D01*
X224008Y41183D01*
Y37311D01*
X225492D01*
Y36811D01*
X225992D01*
Y32177D01*
X226829D01*
X227077Y31719D01*
X226910Y31307D01*
X223433D01*
Y29823D01*
X222933D01*
Y29323D01*
X218299D01*
Y28657D01*
X218299Y28339D01*
X218299Y27839D01*
Y27173D01*
X227567D01*
Y27839D01*
X227567Y28157D01*
X227567Y28688D01*
X228067Y28956D01*
X228366Y28756D01*
X229134Y28603D01*
X229902Y28756D01*
X230553Y29191D01*
X230988Y29842D01*
X231141Y30610D01*
X230988Y31378D01*
X230783Y31685D01*
X231050Y32185D01*
X232964D01*
X233267Y32185D01*
X233576D01*
X233929Y31831D01*
Y28891D01*
X234006Y28504D01*
X234226Y28176D01*
X237034Y25367D01*
X237363Y25148D01*
X237750Y25071D01*
X237875D01*
X238148Y24663D01*
X238799Y24228D01*
X239567Y24075D01*
X240335Y24228D01*
X240986Y24663D01*
X241421Y25314D01*
X241574Y26083D01*
X241421Y26851D01*
X240986Y27502D01*
X240335Y27937D01*
X239567Y28090D01*
X239218Y28020D01*
X239087Y28189D01*
X238971Y28481D01*
X239354Y29055D01*
X239507Y29823D01*
X239354Y30591D01*
X239102Y30969D01*
Y31750D01*
X239602Y32180D01*
X239756Y32177D01*
X240064Y32177D01*
X240740D01*
Y36811D01*
X241740D01*
Y32177D01*
X242724D01*
X242724Y32177D01*
X242905D01*
Y32177D01*
X243224Y32177D01*
X243889D01*
Y36811D01*
X244889D01*
Y32177D01*
X245874D01*
X245874Y32177D01*
X246055D01*
Y32177D01*
X246374Y32177D01*
X247039D01*
Y36811D01*
X248039D01*
Y32177D01*
X249023D01*
Y32177D01*
X249212Y32185D01*
Y32185D01*
X250243D01*
X252324Y30104D01*
X252078Y29643D01*
X251969Y29665D01*
X251201Y29512D01*
X250549Y29077D01*
X250114Y28425D01*
X249961Y27657D01*
X250111Y26907D01*
Y26216D01*
X247698D01*
X247311Y26139D01*
X246983Y25920D01*
X245438Y24376D01*
X245219Y24047D01*
X245142Y23660D01*
Y22053D01*
X239319Y16230D01*
X238822Y16280D01*
X238821Y16281D01*
X238170Y16716D01*
X237401Y16869D01*
X236633Y16716D01*
X235982Y16281D01*
X235547Y15630D01*
X235394Y14862D01*
X235547Y14094D01*
X235982Y13443D01*
X236633Y13008D01*
X237401Y12855D01*
X238170Y13008D01*
X238821Y13443D01*
X239093Y13850D01*
X239382D01*
X239769Y13927D01*
X240097Y14147D01*
X240282Y14332D01*
X240670Y14013D01*
X240567Y13859D01*
X240414Y13091D01*
X240567Y12323D01*
X240622Y12240D01*
Y12066D01*
X240269Y11713D01*
X240071D01*
X239575Y11721D01*
X239267Y11721D01*
X238590D01*
Y7087D01*
Y2453D01*
X239267D01*
X239574Y2453D01*
X240071Y2461D01*
X242716D01*
Y2461D01*
X242913D01*
Y2461D01*
X245563D01*
X245866Y2461D01*
Y2461D01*
X246063D01*
Y2461D01*
X248712D01*
X249015Y2461D01*
Y2461D01*
X249212D01*
Y2461D01*
X252165D01*
Y2461D01*
X252362D01*
Y2461D01*
X255012D01*
X255315Y2461D01*
X255815Y2461D01*
X258157D01*
X258653Y2453D01*
X258961Y2453D01*
X259638D01*
Y7087D01*
Y11721D01*
X258961D01*
X258653Y11721D01*
X258157Y11713D01*
X255815D01*
X255512Y11713D01*
X255012Y11713D01*
X254358D01*
Y25027D01*
X255492Y26162D01*
X261474D01*
Y11721D01*
X260638D01*
Y7087D01*
Y2453D01*
X261474D01*
Y1012D01*
X216565D01*
X216541Y1254D01*
X216176Y2460D01*
X215581Y3571D01*
X214782Y4546D01*
X213808Y5345D01*
X212745Y5913D01*
Y46233D01*
X308240D01*
Y1012D01*
D02*
G37*
G36*
X89834Y41899D02*
X90897Y41331D01*
Y5913D01*
X89834Y5345D01*
X89351Y4949D01*
X56574D01*
X56491Y5449D01*
X57733Y5870D01*
X59862Y6920D01*
X61836Y8239D01*
X63621Y9804D01*
X65187Y11589D01*
X66505Y13563D01*
X67555Y15692D01*
X68103Y17305D01*
X68603Y17222D01*
Y15886D01*
X77579D01*
Y21921D01*
X80229Y24572D01*
X83413D01*
X83563Y24552D01*
X84616Y24690D01*
X85598Y25097D01*
X86441Y25744D01*
X86474Y25777D01*
X87121Y26620D01*
X87527Y27602D01*
X87666Y28655D01*
X87527Y29708D01*
X87121Y30690D01*
X86474Y31533D01*
X85631Y32180D01*
X84649Y32587D01*
X83596Y32725D01*
X83495Y32712D01*
X78543D01*
X77490Y32573D01*
X76508Y32167D01*
X75665Y31520D01*
X73535Y29390D01*
X68603D01*
Y28053D01*
X68103Y27970D01*
X67555Y29583D01*
X66505Y31712D01*
X65187Y33686D01*
X63621Y35471D01*
X61836Y37036D01*
X59862Y38355D01*
X57733Y39405D01*
X55485Y40168D01*
X53157Y40632D01*
X50788Y40787D01*
X48419Y40632D01*
X46091Y40168D01*
X43843Y39405D01*
X41713Y38355D01*
X40515Y37554D01*
X18701D01*
X17647Y37416D01*
X16666Y37009D01*
X15823Y36362D01*
X15176Y35519D01*
X14769Y34538D01*
X14630Y33484D01*
X14769Y32431D01*
X15176Y31449D01*
X15823Y30606D01*
X16666Y29959D01*
X17647Y29553D01*
X18701Y29414D01*
X23507D01*
X23997Y29390D01*
Y15886D01*
X32973D01*
Y17222D01*
X33473Y17305D01*
X34020Y15692D01*
X35070Y13563D01*
X36389Y11589D01*
X37955Y9804D01*
X39739Y8239D01*
X41713Y6920D01*
X43843Y5870D01*
X45085Y5449D01*
X45002Y4949D01*
X1012D01*
Y42296D01*
X89351D01*
X89834Y41899D01*
D02*
G37*
G36*
X139814Y5913D02*
X138751Y5345D01*
X137777Y4546D01*
X136978Y3571D01*
X136384Y2460D01*
X136018Y1254D01*
X135994Y1012D01*
X99734D01*
X99711Y1254D01*
X99345Y2460D01*
X98751Y3571D01*
X97951Y4546D01*
X96977Y5345D01*
X95915Y5913D01*
Y41331D01*
X96977Y41899D01*
X97951Y42698D01*
X98751Y43673D01*
X99345Y44784D01*
X99711Y45990D01*
X99734Y46233D01*
X139814D01*
Y5913D01*
D02*
G37*
G36*
X207727D02*
X206665Y5345D01*
X205691Y4546D01*
X204891Y3571D01*
X204297Y2460D01*
X203931Y1254D01*
X203907Y1012D01*
X148652D01*
X148628Y1254D01*
X148262Y2460D01*
X147668Y3571D01*
X146869Y4546D01*
X145894Y5345D01*
X144832Y5913D01*
Y61981D01*
X207727D01*
Y5913D01*
D02*
G37*
%LPC*%
G36*
X233456Y11721D02*
X232957Y11721D01*
X232291D01*
Y7086D01*
Y2453D01*
X232957D01*
X233275Y2453D01*
X233775Y2453D01*
X234441D01*
Y7086D01*
Y11721D01*
X233775D01*
X233456Y11721D01*
D02*
G37*
G36*
X236606D02*
X236106Y11721D01*
X235441D01*
Y7086D01*
Y2453D01*
X236106D01*
X236425Y2453D01*
X236925Y2453D01*
X237590D01*
Y7087D01*
Y11721D01*
X236925D01*
X236606Y11721D01*
D02*
G37*
G36*
X293071Y15704D02*
X292274Y15546D01*
X291598Y15094D01*
X291147Y14419D01*
X290988Y13622D01*
X291147Y12825D01*
X291598Y12150D01*
X292274Y11698D01*
X293071Y11540D01*
X293867Y11698D01*
X294543Y12150D01*
X294994Y12825D01*
X295153Y13622D01*
X294994Y14419D01*
X294543Y15094D01*
X293867Y15546D01*
X293071Y15704D01*
D02*
G37*
G36*
X298071D02*
X297274Y15546D01*
X296598Y15094D01*
X296147Y14419D01*
X295988Y13622D01*
X296147Y12825D01*
X296598Y12150D01*
X297274Y11698D01*
X298071Y11540D01*
X298867Y11698D01*
X299543Y12150D01*
X299994Y12825D01*
X300153Y13622D01*
X299994Y14419D01*
X299543Y15094D01*
X298867Y15546D01*
X298071Y15704D01*
D02*
G37*
G36*
X230307Y11721D02*
X229807Y11721D01*
X229142D01*
Y7086D01*
Y2453D01*
X229807D01*
X230126Y2453D01*
X230626Y2453D01*
X231291D01*
Y7086D01*
Y11721D01*
X230626D01*
X230307Y11721D01*
D02*
G37*
G36*
X298071Y20704D02*
X297274Y20546D01*
X296598Y20094D01*
X296147Y19419D01*
X295988Y18622D01*
X296147Y17825D01*
X296598Y17150D01*
X297274Y16698D01*
X298071Y16540D01*
X298867Y16698D01*
X299543Y17150D01*
X299658Y17322D01*
X300259D01*
X300352Y17183D01*
X301003Y16748D01*
X301771Y16595D01*
X302539Y16748D01*
X303191Y17183D01*
X303626Y17834D01*
X303779Y18602D01*
X303626Y19371D01*
X303191Y20022D01*
X302539Y20457D01*
X301771Y20609D01*
X301003Y20457D01*
X300352Y20022D01*
X300269Y19897D01*
X299675D01*
X299543Y20094D01*
X298867Y20546D01*
X298071Y20704D01*
D02*
G37*
G36*
X299571Y11112D02*
X298618Y10922D01*
X297810Y10383D01*
X297270Y9575D01*
X297081Y8622D01*
X297270Y7669D01*
X297810Y6861D01*
X298618Y6322D01*
X299571Y6132D01*
X300523Y6322D01*
X301331Y6861D01*
X301871Y7669D01*
X302061Y8622D01*
X301871Y9575D01*
X301331Y10383D01*
X300523Y10922D01*
X299571Y11112D01*
D02*
G37*
G36*
X291571D02*
X290618Y10922D01*
X289810Y10383D01*
X289270Y9575D01*
X289081Y8622D01*
X289270Y7669D01*
X289810Y6861D01*
X290618Y6322D01*
X291571Y6132D01*
X292524Y6322D01*
X293331Y6861D01*
X293871Y7669D01*
X294061Y8622D01*
X293871Y9575D01*
X293331Y10383D01*
X292524Y10922D01*
X291571Y11112D01*
D02*
G37*
G36*
X227157Y11721D02*
X226657Y11721D01*
X225992D01*
Y7087D01*
Y2453D01*
X226657D01*
X226976Y2453D01*
X227476Y2453D01*
X228142D01*
Y7086D01*
Y11721D01*
X227476D01*
X227157Y11721D01*
D02*
G37*
G36*
X224992Y6587D02*
X224008D01*
Y2453D01*
X224992D01*
Y6587D01*
D02*
G37*
G36*
Y11721D02*
X224008D01*
Y7587D01*
X224992D01*
Y11721D01*
D02*
G37*
G36*
X279535Y41463D02*
Y37311D01*
X280539D01*
Y40453D01*
X280462Y40840D01*
X280243Y41168D01*
X279914Y41387D01*
X279535Y41463D01*
D02*
G37*
G36*
X221941Y45579D02*
X220760D01*
Y44201D01*
X221941D01*
Y45579D01*
D02*
G37*
G36*
Y43201D02*
X220760D01*
Y41823D01*
X221941D01*
Y43201D01*
D02*
G37*
G36*
X295571Y41112D02*
X294618Y40922D01*
X293810Y40383D01*
X293270Y39575D01*
X293081Y38622D01*
X293270Y37669D01*
X293810Y36861D01*
X294618Y36322D01*
X295571Y36132D01*
X296523Y36322D01*
X297331Y36861D01*
X297871Y37669D01*
X298061Y38622D01*
X297871Y39575D01*
X297331Y40383D01*
X296523Y40922D01*
X295571Y41112D01*
D02*
G37*
G36*
X292571Y35613D02*
X292271Y35553D01*
X291593Y35100D01*
X291140Y34422D01*
X291080Y34122D01*
X292571D01*
Y35613D01*
D02*
G37*
G36*
X293571Y35613D02*
Y34122D01*
X295061D01*
X295002Y34422D01*
X294549Y35100D01*
X293870Y35553D01*
X293571Y35613D01*
D02*
G37*
G36*
X260819Y45579D02*
X259638D01*
Y44201D01*
X260819D01*
Y45579D01*
D02*
G37*
G36*
X224122Y45579D02*
X222941D01*
Y44201D01*
X224122D01*
Y45579D01*
D02*
G37*
G36*
X263000Y45579D02*
X261819D01*
Y44201D01*
X263000D01*
Y45579D01*
D02*
G37*
G36*
X224992Y36311D02*
X224008D01*
Y32177D01*
X224992D01*
Y36311D01*
D02*
G37*
G36*
X298071Y25704D02*
X297274Y25546D01*
X296598Y25094D01*
X296147Y24419D01*
X295988Y23622D01*
X296147Y22825D01*
X296598Y22150D01*
X297274Y21698D01*
X298071Y21540D01*
X298867Y21698D01*
X299543Y22150D01*
X299994Y22825D01*
X300153Y23622D01*
X299994Y24419D01*
X299543Y25094D01*
X298867Y25546D01*
X298071Y25704D01*
D02*
G37*
G36*
X232480Y24546D02*
X231712Y24394D01*
X231061Y23958D01*
X230626Y23307D01*
X230521Y22777D01*
X230006Y22520D01*
X230000Y22524D01*
X229232Y22676D01*
X228464Y22524D01*
X228067Y22258D01*
X227567Y22525D01*
Y23024D01*
X218299D01*
Y22347D01*
X218299Y22040D01*
X218307Y21543D01*
Y18898D01*
X218307D01*
Y18701D01*
X218307D01*
Y15748D01*
X218307D01*
Y15551D01*
X218307D01*
Y12598D01*
X227559D01*
Y13063D01*
X231149D01*
X231536Y13140D01*
X231864Y13360D01*
X233991Y15487D01*
X233991Y15487D01*
X234210Y15815D01*
X234287Y16202D01*
X234287Y16202D01*
Y18247D01*
X234279Y18287D01*
Y21688D01*
X234335Y21771D01*
X234487Y22539D01*
X234335Y23307D01*
X233899Y23958D01*
X233248Y24394D01*
X232480Y24546D01*
D02*
G37*
G36*
X227567Y26173D02*
X218299D01*
Y25508D01*
X218299Y25189D01*
X218299Y24689D01*
Y24024D01*
X227567D01*
Y24689D01*
X227567Y25008D01*
X227567Y25508D01*
Y26173D01*
D02*
G37*
G36*
X295061Y33122D02*
X293571D01*
Y31631D01*
X293870Y31691D01*
X294549Y32144D01*
X295002Y32822D01*
X295061Y33122D01*
D02*
G37*
G36*
X222433Y31307D02*
X218299D01*
Y30323D01*
X222433D01*
Y31307D01*
D02*
G37*
G36*
X292571Y33122D02*
X291080D01*
X291140Y32822D01*
X291593Y32144D01*
X292271Y31691D01*
X292571Y31631D01*
Y33122D01*
D02*
G37*
G36*
X298071Y35704D02*
X297274Y35546D01*
X296598Y35094D01*
X296147Y34419D01*
X295988Y33622D01*
X296147Y32825D01*
X296598Y32150D01*
X297274Y31698D01*
X298071Y31540D01*
X298867Y31698D01*
X299543Y32150D01*
X299994Y32825D01*
X300153Y33622D01*
X299994Y34419D01*
X299543Y35094D01*
X298867Y35546D01*
X298071Y35704D01*
D02*
G37*
G36*
Y30704D02*
X297274Y30546D01*
X296598Y30094D01*
X296147Y29419D01*
X295988Y28622D01*
X296147Y27825D01*
X296598Y27150D01*
X297274Y26698D01*
X298071Y26540D01*
X298867Y26698D01*
X299543Y27150D01*
X299994Y27825D01*
X300153Y28622D01*
X299994Y29419D01*
X299543Y30094D01*
X298867Y30546D01*
X298071Y30704D01*
D02*
G37*
G36*
X83063Y22665D02*
X79520D01*
Y19122D01*
X83063D01*
Y22665D01*
D02*
G37*
G36*
X87606D02*
X84063D01*
Y19122D01*
X87606D01*
Y22665D01*
D02*
G37*
G36*
X83063Y18122D02*
X79520D01*
Y14579D01*
X83063D01*
Y18122D01*
D02*
G37*
G36*
X87606D02*
X84063D01*
Y14579D01*
X87606D01*
Y18122D01*
D02*
G37*
G36*
X5709Y17651D02*
X4707Y17519D01*
X3773Y17132D01*
X2971Y16517D01*
X2356Y15715D01*
X1969Y14782D01*
X1837Y13780D01*
X1969Y12777D01*
X2356Y11844D01*
X2971Y11042D01*
X3773Y10426D01*
X4707Y10040D01*
X5709Y9908D01*
X6711Y10040D01*
X7644Y10426D01*
X8446Y11042D01*
X9062Y11844D01*
X9448Y12777D01*
X9580Y13780D01*
X9448Y14782D01*
X9062Y15715D01*
X8446Y16517D01*
X7644Y17132D01*
X6711Y17519D01*
X5709Y17651D01*
D02*
G37*
G36*
X18701D02*
X17699Y17519D01*
X16765Y17132D01*
X15963Y16517D01*
X15348Y15715D01*
X14961Y14782D01*
X14829Y13780D01*
X14961Y12777D01*
X15348Y11844D01*
X15963Y11042D01*
X16765Y10426D01*
X17699Y10040D01*
X18701Y9908D01*
X19703Y10040D01*
X20637Y10426D01*
X21439Y11042D01*
X22054Y11844D01*
X22441Y12777D01*
X22572Y13780D01*
X22441Y14782D01*
X22054Y15715D01*
X21439Y16517D01*
X20637Y17132D01*
X19703Y17519D01*
X18701Y17651D01*
D02*
G37*
G36*
X18201Y23122D02*
X14887D01*
X14953Y22618D01*
X15341Y21682D01*
X15957Y20879D01*
X16761Y20262D01*
X17697Y19875D01*
X18201Y19808D01*
Y23122D01*
D02*
G37*
G36*
X9522Y23122D02*
X6209D01*
Y19808D01*
X6713Y19875D01*
X7648Y20262D01*
X8452Y20879D01*
X9069Y21682D01*
X9456Y22618D01*
X9522Y23122D01*
D02*
G37*
G36*
X22514Y23122D02*
X19201D01*
Y19808D01*
X19705Y19875D01*
X20641Y20262D01*
X21444Y20879D01*
X22061Y21682D01*
X22448Y22618D01*
X22514Y23122D01*
D02*
G37*
G36*
X5209Y23122D02*
X1895D01*
X1961Y22618D01*
X2349Y21682D01*
X2965Y20879D01*
X3769Y20262D01*
X4704Y19875D01*
X5209Y19808D01*
Y23122D01*
D02*
G37*
G36*
X5709Y37336D02*
X4707Y37204D01*
X3773Y36818D01*
X2971Y36202D01*
X2356Y35400D01*
X1969Y34467D01*
X1837Y33465D01*
X1969Y32462D01*
X2356Y31529D01*
X2971Y30727D01*
X3773Y30112D01*
X4707Y29725D01*
X5709Y29593D01*
X6711Y29725D01*
X7644Y30112D01*
X8446Y30727D01*
X9062Y31529D01*
X9448Y32462D01*
X9580Y33465D01*
X9448Y34467D01*
X9062Y35400D01*
X8446Y36202D01*
X7644Y36818D01*
X6711Y37204D01*
X5709Y37336D01*
D02*
G37*
G36*
X6209Y27436D02*
Y24122D01*
X9522D01*
X9456Y24626D01*
X9069Y25562D01*
X8452Y26365D01*
X7648Y26982D01*
X6713Y27369D01*
X6209Y27436D01*
D02*
G37*
G36*
X5209Y27436D02*
X4704Y27369D01*
X3769Y26982D01*
X2965Y26365D01*
X2349Y25562D01*
X1961Y24626D01*
X1895Y24122D01*
X5209D01*
Y27436D01*
D02*
G37*
G36*
X18201Y27436D02*
X17697Y27369D01*
X16761Y26982D01*
X15957Y26365D01*
X15341Y25562D01*
X14953Y24626D01*
X14887Y24122D01*
X18201D01*
Y27436D01*
D02*
G37*
G36*
X19201Y27436D02*
Y24122D01*
X22514D01*
X22448Y24626D01*
X22061Y25562D01*
X21444Y26365D01*
X20641Y26982D01*
X19705Y27369D01*
X19201Y27436D01*
D02*
G37*
G36*
X135433Y21104D02*
X123721D01*
X123344Y20947D01*
X123188Y20571D01*
Y16634D01*
X123344Y16257D01*
X123721Y16101D01*
X127420D01*
Y12106D01*
X127576Y11730D01*
X127953Y11574D01*
X135433D01*
X135810Y11730D01*
X135966Y12106D01*
Y17421D01*
Y20571D01*
X135810Y20947D01*
X135433Y21104D01*
D02*
G37*
G36*
X111114Y19874D02*
X109540D01*
Y18299D01*
X111114D01*
Y19874D01*
D02*
G37*
G36*
X102748Y22665D02*
X99205D01*
Y19122D01*
X102748D01*
Y22665D01*
D02*
G37*
G36*
X107291Y18122D02*
X103748D01*
Y14579D01*
X107291D01*
Y18122D01*
D02*
G37*
G36*
X102748D02*
X99205D01*
Y14579D01*
X102748D01*
Y18122D01*
D02*
G37*
G36*
X118217Y8555D02*
X116642D01*
Y6980D01*
X118217D01*
Y8555D01*
D02*
G37*
G36*
X115642D02*
X114067D01*
Y6980D01*
X115642D01*
Y8555D01*
D02*
G37*
G36*
X129323Y7276D02*
X127748D01*
Y5701D01*
X129323D01*
Y7276D01*
D02*
G37*
G36*
X131898D02*
X130323D01*
Y5701D01*
X131898D01*
Y7276D01*
D02*
G37*
G36*
X124508Y15551D02*
X120374D01*
Y11417D01*
X120374D01*
X120571Y11122D01*
Y6988D01*
X124705D01*
Y11122D01*
X124705D01*
X124508Y11417D01*
Y15551D01*
D02*
G37*
G36*
X129323Y9850D02*
X127748D01*
Y8275D01*
X129323D01*
Y9850D01*
D02*
G37*
G36*
X131898D02*
X130323D01*
Y8275D01*
X131898D01*
Y9850D01*
D02*
G37*
G36*
X116929Y40650D02*
X109646D01*
Y32718D01*
X103346D01*
X103276Y32689D01*
X103248Y32692D01*
X102195Y32554D01*
X101213Y32147D01*
X100370Y31500D01*
X99723Y30657D01*
X99317Y29675D01*
X99178Y28622D01*
X99317Y27569D01*
X99723Y26587D01*
X100370Y25744D01*
X101213Y25097D01*
X102195Y24690D01*
X103248Y24552D01*
X104302Y24690D01*
X105283Y25097D01*
X106126Y25744D01*
X106355Y26042D01*
X109507D01*
Y24606D01*
X109663Y24230D01*
X110039Y24074D01*
X113686D01*
X114165Y24024D01*
Y22506D01*
X113689Y22449D01*
X113665Y22449D01*
X112114D01*
Y20374D01*
Y18299D01*
X113673D01*
X113689Y18299D01*
X114173Y18261D01*
Y16732D01*
X115130D01*
Y15551D01*
X114075D01*
Y11626D01*
X114067Y11130D01*
X114067Y10921D01*
Y9555D01*
X116142D01*
X118217D01*
Y10921D01*
X118217Y11130D01*
X118209Y11626D01*
Y15551D01*
X117153D01*
Y16732D01*
X120473D01*
Y18623D01*
X121688Y19838D01*
X121907Y20166D01*
X121984Y20554D01*
Y23934D01*
X121984Y23934D01*
X121907Y24322D01*
X121688Y24650D01*
X121688Y24650D01*
X120513Y25825D01*
Y30217D01*
X120357Y30593D01*
X119980Y30749D01*
X116929D01*
Y40650D01*
D02*
G37*
G36*
X128748Y40657D02*
X125599D01*
Y35342D01*
X128748D01*
Y40657D01*
D02*
G37*
G36*
X124599D02*
X121449D01*
Y35342D01*
X124599D01*
Y40657D01*
D02*
G37*
G36*
X128748Y34343D02*
X121449D01*
Y29028D01*
X122897D01*
X123222Y28528D01*
X123188Y28445D01*
Y24114D01*
X123344Y23738D01*
X123721Y23582D01*
X135433D01*
X135810Y23738D01*
X135966Y24114D01*
Y28445D01*
X135810Y28822D01*
X135433Y28978D01*
X129227D01*
X128748Y29028D01*
X128748Y29478D01*
Y34343D01*
D02*
G37*
G36*
X111114Y22449D02*
X109540D01*
Y20874D01*
X111114D01*
Y22449D01*
D02*
G37*
G36*
X107291Y22665D02*
X103748D01*
Y19122D01*
X107291D01*
Y22665D01*
D02*
G37*
G36*
X187213Y13689D02*
X185835D01*
Y12508D01*
X187213D01*
Y13689D01*
D02*
G37*
G36*
X184835D02*
X183457D01*
Y12508D01*
X184835D01*
Y13689D01*
D02*
G37*
G36*
X181681Y12591D02*
X180598D01*
Y11035D01*
X181681D01*
Y12591D01*
D02*
G37*
G36*
X168618Y13697D02*
X167240D01*
Y12516D01*
X168618D01*
Y13697D01*
D02*
G37*
G36*
X166240D02*
X164862D01*
Y12516D01*
X166240D01*
Y13697D01*
D02*
G37*
G36*
X179598Y12591D02*
X178516D01*
Y11035D01*
X179598D01*
Y12591D01*
D02*
G37*
G36*
X166323Y7776D02*
X165142D01*
Y6398D01*
X166323D01*
Y7776D01*
D02*
G37*
G36*
X168504D02*
X167323D01*
Y6398D01*
X168504D01*
Y7776D01*
D02*
G37*
G36*
X181681Y7669D02*
X180598D01*
Y6114D01*
X181681D01*
Y7669D01*
D02*
G37*
G36*
X176673Y10275D02*
X175905Y10122D01*
X175254Y9687D01*
X174982Y9279D01*
X173445D01*
Y10217D01*
X170295D01*
Y6122D01*
X173445D01*
Y7256D01*
X174982D01*
X175254Y6848D01*
X175905Y6413D01*
X176673Y6261D01*
X177442Y6413D01*
X178016Y6797D01*
X178516Y6650D01*
Y6114D01*
X179598D01*
Y8169D01*
Y10225D01*
X178516D01*
Y9885D01*
X178016Y9738D01*
X177442Y10122D01*
X176673Y10275D01*
D02*
G37*
G36*
X187213Y11508D02*
X185835D01*
Y10327D01*
X187213D01*
Y11508D01*
D02*
G37*
G36*
X184835D02*
X183457D01*
Y10327D01*
X184835D01*
Y11508D01*
D02*
G37*
G36*
X168618Y11516D02*
X166740D01*
X164862D01*
Y10538D01*
X164862Y10335D01*
X165142Y9950D01*
X165142Y9835D01*
Y8776D01*
X166823D01*
X168504D01*
Y9882D01*
X168618Y10335D01*
X168618Y10606D01*
Y11516D01*
D02*
G37*
G36*
X181681Y10225D02*
X180598D01*
Y8669D01*
X181681D01*
Y10225D01*
D02*
G37*
G36*
X204142Y38870D02*
X202567D01*
Y37295D01*
X204142D01*
Y38870D01*
D02*
G37*
G36*
X202567Y41445D02*
Y39870D01*
X204142D01*
Y41445D01*
X202567D01*
D02*
G37*
G36*
X159752Y56587D02*
X158177D01*
Y55012D01*
X159752D01*
Y56587D01*
D02*
G37*
G36*
X157177D02*
X155602D01*
Y55012D01*
X157177D01*
Y56587D01*
D02*
G37*
G36*
Y59161D02*
X155602D01*
Y57587D01*
X157177D01*
Y59161D01*
D02*
G37*
G36*
X172193Y59063D02*
X172082Y59063D01*
X170913D01*
Y55905D01*
Y52748D01*
X172082D01*
X172193Y52748D01*
X172345Y52750D01*
X172845Y52320D01*
Y49996D01*
X172579Y49606D01*
X172185D01*
Y49606D01*
X172079Y49606D01*
X168642D01*
X168642Y49606D01*
X168248Y49606D01*
Y49606D01*
X168142Y49606D01*
X164705D01*
Y49364D01*
X164604Y49280D01*
X163995Y49290D01*
X163621Y49541D01*
X163179Y49628D01*
X161900D01*
X161458Y49541D01*
X161083Y49290D01*
X160833Y48916D01*
X160746Y48474D01*
Y44439D01*
X160807Y44130D01*
X160523Y43630D01*
X160035D01*
X159646Y43898D01*
X159646Y44130D01*
Y47638D01*
X158689D01*
Y48720D01*
X159744D01*
Y50833D01*
X161667Y52756D01*
X164205D01*
X164311Y52756D01*
X164705D01*
X164811Y52756D01*
X168137D01*
X168634Y52748D01*
X168745Y52748D01*
X169913D01*
Y55905D01*
Y59063D01*
X168745D01*
X168634Y59063D01*
X168137Y59055D01*
X164811D01*
X164705Y59055D01*
X164311D01*
X164205Y59055D01*
X160768D01*
Y54718D01*
X158904Y52854D01*
X155610D01*
Y48720D01*
X156666D01*
Y47638D01*
X156299D01*
X156299Y43932D01*
X156061Y43729D01*
X155913Y43623D01*
X155682Y43577D01*
X155356Y43905D01*
X155315Y43975D01*
Y47638D01*
X151969D01*
Y44886D01*
X151435Y44530D01*
X151000Y43878D01*
X150847Y43110D01*
X151000Y42342D01*
X151435Y41691D01*
X152086Y41256D01*
X152386Y41196D01*
X152551Y40654D01*
X150556Y38659D01*
X150337Y38331D01*
X150259Y37944D01*
Y35048D01*
X150337Y34661D01*
X150556Y34332D01*
X154238Y30651D01*
X154214Y30488D01*
X153655Y30128D01*
X153593Y30140D01*
X149557D01*
X149115Y30052D01*
X148741Y29802D01*
X148491Y29428D01*
X148403Y28986D01*
Y27707D01*
X148491Y27265D01*
X148741Y26891D01*
X148752Y26282D01*
X148668Y26181D01*
X148425D01*
Y22638D01*
X148425Y22638D01*
X148425Y22244D01*
X148425D01*
X148425Y22138D01*
Y18701D01*
X148425D01*
Y18307D01*
X148425D01*
Y14870D01*
X148425Y14764D01*
Y14370D01*
X148425Y14264D01*
Y10827D01*
X154724D01*
Y14264D01*
X154724Y14370D01*
Y14764D01*
X155158Y15030D01*
X155648D01*
X156023Y14780D01*
X156791Y14627D01*
X157382Y14744D01*
X157513Y14750D01*
X157691Y14579D01*
X157874Y14263D01*
Y10827D01*
X160995D01*
Y10146D01*
X160819D01*
Y6406D01*
X164165D01*
Y10146D01*
X164005D01*
Y10827D01*
X164173D01*
Y14370D01*
X164173D01*
Y14530D01*
X164370Y14783D01*
X164870Y14673D01*
Y14673D01*
X168610D01*
Y15030D01*
X170295D01*
Y11043D01*
X173445D01*
Y15030D01*
X178516D01*
Y13591D01*
X180098D01*
X181681D01*
Y15030D01*
X183465D01*
Y14665D01*
X187205D01*
Y15030D01*
X188119D01*
X188386Y14764D01*
Y14370D01*
X188386Y14264D01*
Y10827D01*
X194685D01*
Y14264D01*
X194685Y14370D01*
Y14764D01*
X195119Y15030D01*
X195462D01*
X195984Y14681D01*
X196752Y14528D01*
X197306Y14638D01*
X197806Y14316D01*
Y12598D01*
X197835Y12453D01*
Y10827D01*
X204134D01*
Y14370D01*
X204134D01*
Y14764D01*
X204134D01*
Y18196D01*
X204142Y18693D01*
X204142Y18804D01*
Y19973D01*
X197827D01*
Y18786D01*
X197715Y18642D01*
X197446Y18404D01*
X196752Y18542D01*
X195984Y18390D01*
X195462Y18041D01*
X195075D01*
X194685Y18307D01*
Y18701D01*
X194685D01*
Y22138D01*
X194685Y22244D01*
X194685D01*
X194685Y22638D01*
X194685D01*
Y26181D01*
X194443D01*
X194359Y26282D01*
X194369Y26891D01*
X194619Y27265D01*
X194707Y27707D01*
Y28986D01*
X194619Y29428D01*
X194369Y29802D01*
X193995Y30053D01*
X193553Y30140D01*
X189518D01*
X189323Y30101D01*
X188823Y30439D01*
Y32864D01*
X190894Y34936D01*
X191281Y35195D01*
X191717Y35846D01*
X191869Y36614D01*
X191717Y37382D01*
X191281Y38033D01*
X190630Y38468D01*
X190057Y38583D01*
X185479Y43160D01*
X185151Y43380D01*
X184764Y43457D01*
X180059D01*
Y49606D01*
X176516D01*
Y49606D01*
X176356D01*
X175856Y49996D01*
Y52727D01*
X181201D01*
Y52559D01*
X183796D01*
X184311Y52045D01*
X184119Y51583D01*
X183571D01*
Y50401D01*
X184949D01*
Y50753D01*
X185411Y50945D01*
X195636Y40719D01*
X195768Y40059D01*
X195768Y40059D01*
X195768D01*
Y36713D01*
X199508D01*
Y37257D01*
X199992Y37295D01*
X200008Y37295D01*
X201567D01*
Y39370D01*
Y41445D01*
X200016D01*
X199992Y41445D01*
X199502Y41468D01*
X199492Y41516D01*
X199057Y42167D01*
X198406Y42602D01*
X197913Y42700D01*
X185316Y55297D01*
X184941Y55547D01*
Y55905D01*
X181201D01*
Y55738D01*
X180059D01*
Y59055D01*
X176516D01*
Y59055D01*
X176122D01*
Y59055D01*
X172689D01*
X172193Y59063D01*
D02*
G37*
G36*
X159752Y59161D02*
X158177D01*
Y57587D01*
X159752D01*
Y59161D01*
D02*
G37*
G36*
X182571Y51583D02*
X181193D01*
Y50401D01*
X182571D01*
Y51583D01*
D02*
G37*
G36*
X184949Y49401D02*
X183571D01*
Y48221D01*
X184949D01*
Y49401D01*
D02*
G37*
G36*
X182571D02*
X181193D01*
Y48221D01*
X182571D01*
Y49401D01*
D02*
G37*
G36*
X199508Y35728D02*
X195768D01*
Y32382D01*
X199508D01*
Y32382D01*
X199973Y32297D01*
Y30118D01*
X197835D01*
Y26681D01*
X197835Y26575D01*
Y26181D01*
X197835Y26075D01*
Y22749D01*
X197827Y22252D01*
X197827Y22141D01*
Y20973D01*
X204142D01*
Y22141D01*
X204142Y22252D01*
X204134Y22749D01*
Y26075D01*
X204134Y26181D01*
Y26575D01*
X204134Y26681D01*
Y30118D01*
X201996D01*
Y31004D01*
X204134D01*
Y35138D01*
X200000D01*
Y35138D01*
X199508Y35157D01*
Y35728D01*
D02*
G37*
%LPD*%
G36*
X184063Y27373D02*
X184685D01*
X184807Y27397D01*
X185307Y27041D01*
Y24362D01*
X185295Y24298D01*
X185372Y23911D01*
X185591Y23583D01*
X188386Y20788D01*
Y18701D01*
X188386D01*
Y18541D01*
X187996Y18041D01*
X182526D01*
X182335Y18503D01*
X183491Y19659D01*
X183710Y19987D01*
X183787Y20374D01*
Y23622D01*
X183710Y24009D01*
X183491Y24337D01*
X182457Y25371D01*
X182129Y25590D01*
X181772Y25661D01*
Y25728D01*
X181691Y26135D01*
X181489Y26438D01*
X181307Y26862D01*
X181307Y26862D01*
Y27383D01*
X181388Y27448D01*
X181807Y27604D01*
X182031Y27455D01*
X182441Y27373D01*
X183063D01*
Y28445D01*
X184063D01*
Y27373D01*
D02*
G37*
D10*
X169980Y34350D02*
D03*
X183563Y28445D02*
D03*
Y34350D02*
D03*
D11*
X174803Y38189D02*
D03*
X176772D02*
D03*
X178740D02*
D03*
X180709D02*
D03*
X172835D02*
D03*
Y24606D02*
D03*
X180709D02*
D03*
X178740D02*
D03*
X176772D02*
D03*
X174803D02*
D03*
D12*
X176772Y31398D02*
D03*
D13*
X169980Y28445D02*
D03*
D14*
X293071Y28622D02*
D03*
Y23622D02*
D03*
Y13622D02*
D03*
Y18622D02*
D03*
X298071D02*
D03*
Y13622D02*
D03*
Y23622D02*
D03*
Y28622D02*
D03*
Y33622D02*
D03*
X293071D02*
D03*
D15*
X117323Y18504D02*
D03*
X117323Y22244D02*
D03*
X126772Y25984D02*
D03*
Y18504D02*
D03*
X161024Y12598D02*
D03*
Y16535D02*
D03*
Y20472D02*
D03*
Y28346D02*
D03*
Y24409D02*
D03*
X151575D02*
D03*
X151575Y20472D02*
D03*
Y16535D02*
D03*
Y12598D02*
D03*
X200984Y12598D02*
D03*
Y16535D02*
D03*
Y20472D02*
D03*
Y28346D02*
D03*
Y24409D02*
D03*
X191535D02*
D03*
X191535Y20472D02*
D03*
Y16535D02*
D03*
Y12598D02*
D03*
D16*
X117323Y25984D02*
D03*
X151575Y28346D02*
D03*
X191535Y28346D02*
D03*
D17*
X178287Y55905D02*
D03*
X174350D02*
D03*
X170413D02*
D03*
X162539D02*
D03*
X166476D02*
D03*
Y46457D02*
D03*
X170413Y46457D02*
D03*
X174350D02*
D03*
X178287D02*
D03*
D18*
X162539Y46457D02*
D03*
D19*
X180098Y13091D02*
D03*
Y8169D02*
D03*
X171870D02*
D03*
Y13091D02*
D03*
D20*
X116142Y9055D02*
D03*
X122638D02*
D03*
X116142Y13484D02*
D03*
X122441D02*
D03*
D21*
X225492Y36811D02*
D03*
X250689D02*
D03*
X247539D02*
D03*
X241240D02*
D03*
X244390D02*
D03*
X231791D02*
D03*
X228642D02*
D03*
X234941D02*
D03*
X238090D02*
D03*
X263287D02*
D03*
X260138D02*
D03*
X253838D02*
D03*
X256988D02*
D03*
X269586D02*
D03*
X266437D02*
D03*
X272736D02*
D03*
X275886D02*
D03*
X225492Y7087D02*
D03*
X250689D02*
D03*
X247539D02*
D03*
X241240D02*
D03*
X244390D02*
D03*
X231791D02*
D03*
X228642D02*
D03*
X234941D02*
D03*
X238090D02*
D03*
X260138D02*
D03*
X253838D02*
D03*
X256988D02*
D03*
D22*
X279035Y36811D02*
D03*
D23*
X222933Y26673D02*
D03*
Y23524D02*
D03*
Y17224D02*
D03*
Y20374D02*
D03*
Y29823D02*
D03*
Y14075D02*
D03*
D24*
X28485Y22638D02*
D03*
X73091D02*
D03*
D25*
X50788D02*
D03*
D26*
X125099Y34843D02*
D03*
X113288D02*
D03*
D27*
X132874Y26280D02*
D03*
Y18406D02*
D03*
D28*
X157677Y50787D02*
D03*
Y57087D02*
D03*
X129823Y14075D02*
D03*
Y7776D02*
D03*
X111614Y26673D02*
D03*
Y20374D02*
D03*
X202067Y33071D02*
D03*
Y39370D02*
D03*
X160925Y33071D02*
D03*
Y39370D02*
D03*
D29*
X153642Y45768D02*
D03*
X157972D02*
D03*
X256988Y43701D02*
D03*
X261319D02*
D03*
X242913D02*
D03*
X238583D02*
D03*
X230118Y43701D02*
D03*
X234449D02*
D03*
X226772Y43701D02*
D03*
X222441D02*
D03*
X162492Y8276D02*
D03*
X166823D02*
D03*
D30*
X166740Y12016D02*
D03*
Y16346D02*
D03*
X156397Y38386D02*
D03*
Y34055D02*
D03*
X197638Y38386D02*
D03*
Y34055D02*
D03*
X185335Y16339D02*
D03*
Y12008D02*
D03*
X166043Y33563D02*
D03*
Y37894D02*
D03*
X183071Y54232D02*
D03*
Y49902D02*
D03*
D31*
X241051Y33957D02*
X247539D01*
X240953Y39961D02*
X247441D01*
X166043Y26717D02*
X168405Y24355D01*
Y21752D02*
Y24355D01*
Y21752D02*
X169980Y20177D01*
X169980Y28445D02*
X170004Y28421D01*
Y26379D02*
Y28421D01*
X172510Y20177D02*
X173737Y21404D01*
Y22162D01*
X169980Y20177D02*
X172510D01*
X173737Y22162D02*
X174803Y23228D01*
X177431Y18602D02*
X181004D01*
X182776Y20374D01*
Y23622D01*
X169445Y18602D02*
X175373D01*
X164886Y23162D02*
X169445Y18602D01*
X164886Y23162D02*
Y23205D01*
X161024Y20472D02*
X164075D01*
X165021Y19526D01*
X187811Y33283D02*
X190256Y35728D01*
X189862Y35433D02*
Y37347D01*
X171870Y8169D02*
Y8362D01*
X171968Y8268D02*
X176673D01*
X184764Y42445D02*
X189862Y37347D01*
X179550Y42445D02*
X184764D01*
X181742Y24656D02*
X182776Y23622D01*
X184146Y40953D02*
X186122Y38976D01*
X180709Y38189D02*
X183071D01*
X186319Y24311D02*
Y32874D01*
X184744Y34449D02*
X186319Y32874D01*
X183563Y34449D02*
X184744D01*
X190507Y24409D02*
X191535D01*
X187811Y27106D02*
Y33283D01*
Y27106D02*
X190507Y24409D01*
X186306Y24298D02*
X190132Y20472D01*
X186306Y24298D02*
X186319Y24311D01*
X155610Y27362D02*
Y30709D01*
X151271Y35048D02*
X155610Y30709D01*
X151271Y35048D02*
Y37944D01*
X246154Y23660D02*
X247698Y25205D01*
X246154Y21634D02*
Y23660D01*
X239382Y14862D02*
X246154Y21634D01*
X251122Y7126D02*
Y27519D01*
X251082Y27559D02*
X251122Y27519D01*
X251082Y7087D02*
X251122Y7126D01*
X237401Y14862D02*
X239382D01*
X241240Y36811D02*
X244390D01*
X247698Y25205D02*
X251083D01*
X255073Y27173D02*
X285228D01*
X253346Y25446D02*
X255073Y27173D01*
X253346Y9252D02*
Y25446D01*
X222933Y14075D02*
X231149D01*
X233276Y16202D01*
Y18247D01*
X233268Y18255D02*
X233276Y18247D01*
X233268Y18255D02*
Y22539D01*
X241634Y7087D02*
Y13386D01*
X229921Y17224D02*
X229921Y17224D01*
X222933Y17224D02*
X229921D01*
X237750Y26083D02*
X239468D01*
X223031Y20472D02*
X228937D01*
X234941Y28891D02*
Y36811D01*
Y28891D02*
X237750Y26083D01*
X237500Y29823D02*
X238090Y30413D01*
Y36811D01*
X180758Y24656D02*
X181742D01*
X163583Y31988D02*
X166043Y29528D01*
Y26914D02*
Y29528D01*
X163583Y31988D02*
Y39469D01*
X178740Y22192D02*
Y24705D01*
X175380Y18596D02*
X177425D01*
X180168Y40953D02*
X184146D01*
X178740Y39525D02*
X180168Y40953D01*
X178740Y38287D02*
Y39525D01*
X169685Y42440D02*
Y44325D01*
X167402Y40157D02*
X169685Y42440D01*
X175787Y28445D02*
X182579D01*
X174803Y31299D02*
Y38091D01*
X172835Y35335D02*
X174803Y33366D01*
X172835Y35335D02*
Y37894D01*
X176772Y31398D02*
Y38189D01*
X169980Y37992D02*
X170177Y38189D01*
X155946Y42618D02*
X166535D01*
X164272Y40157D02*
X167402D01*
X169685Y44325D02*
X170413Y45054D01*
X153346Y25098D02*
X155610Y27362D01*
X153346Y24409D02*
Y25098D01*
X153234Y20683D02*
X156679Y24128D01*
X151271Y37944D02*
X155946Y42618D01*
X157677Y46063D02*
Y50787D01*
Y50197D02*
X162539Y55059D01*
Y55650D02*
Y55905D01*
X156397Y34055D02*
X159941D01*
X161024Y28346D02*
Y32972D01*
X197638Y34055D02*
X201082D01*
X200984Y28346D02*
Y34055D01*
X176181Y21063D02*
X176772Y21653D01*
X163583Y39469D02*
X164272Y40157D01*
X176772Y21653D02*
Y24705D01*
X190132Y20472D02*
X191535D01*
X244988Y6882D02*
Y18012D01*
X248032Y7087D02*
Y22834D01*
X122441Y9547D02*
Y13780D01*
X116142D02*
Y18406D01*
X120973Y20554D02*
Y23934D01*
X118923Y18504D02*
X120973Y20554D01*
X117323Y18504D02*
X118923D01*
X118923Y25984D02*
X120973Y23934D01*
X117323Y25984D02*
X118923D01*
X247539Y33858D02*
Y36811D01*
X244390D02*
X247539D01*
X255193Y28665D02*
X285827D01*
X250689Y33169D02*
X255193Y28665D01*
X244201Y7276D02*
X244390Y7087D01*
X222244Y33563D02*
X225295D01*
X285228Y27173D02*
X289036Y23365D01*
X223917Y10335D02*
X238189D01*
X223130Y3839D02*
X238189D01*
X259850Y33563D02*
X281398D01*
X259752Y39961D02*
X281791D01*
X263681Y37114D02*
Y43201D01*
X261516Y39961D02*
Y42906D01*
X259646Y37303D02*
Y43390D01*
X117323Y22236D02*
Y22244D01*
X258374Y31685D02*
X287008D01*
X256988Y33071D02*
X258374Y31685D01*
X287047D02*
X290110Y28622D01*
X286464Y30158D02*
X293035Y23587D01*
X256653Y30158D02*
X286417D01*
X285846Y28665D02*
X290528Y23983D01*
X253838Y32973D02*
X256653Y30158D01*
X289036Y19330D02*
X289960Y18406D01*
X290528Y21164D02*
X293071Y18622D01*
X290528Y21164D02*
Y23983D01*
X289036Y19330D02*
Y23365D01*
X290110Y28622D02*
X293071D01*
X292901Y23622D02*
X293071D01*
X253838Y32973D02*
Y36811D01*
X250689Y33169D02*
Y36811D01*
X298071Y18622D02*
X301752D01*
X275886Y36811D02*
X279035D01*
X272736D02*
X275886D01*
X269586D02*
X272736D01*
X266437D02*
X269586D01*
X263287D02*
X266437D01*
X260138D02*
X263287D01*
X222244Y40059D02*
X225295D01*
X238090Y36811D02*
Y43209D01*
X234941Y36811D02*
Y43209D01*
X228642Y7087D02*
X238090D01*
X225492D02*
X228642D01*
X186122Y37500D02*
Y38976D01*
X172146Y41831D02*
X178936D01*
X179550Y42445D01*
D32*
X166929Y16535D02*
X200492D01*
X166929D02*
X166967Y16497D01*
X183071Y54232D02*
X184252D01*
X197539Y40945D01*
X153642Y43898D02*
Y45768D01*
X166831Y34350D02*
X170866D01*
X166043Y33563D02*
X166831Y34350D01*
X197638Y20472D02*
X200984D01*
X204921D01*
X174803Y38189D02*
X176279D01*
X172835D02*
X174803D01*
X166142Y37992D02*
X169980D01*
X170177Y38189D02*
X172835D01*
X174350Y54232D02*
X183071D01*
X174350Y46457D02*
Y54232D01*
X151673Y16535D02*
X161024D01*
X199311Y12598D02*
Y16535D01*
X161122D02*
X166831D01*
X171870Y13091D02*
Y16516D01*
X162500Y8071D02*
Y12402D01*
X161024Y12598D02*
Y16535D01*
X228642Y31004D02*
Y36417D01*
X292933Y28622D02*
X293071D01*
X242913Y42815D02*
X256988D01*
X257185D01*
X256988D02*
Y43701D01*
Y36811D02*
Y42815D01*
X226772Y43701D02*
X230118D01*
X228642Y36811D02*
Y43504D01*
X170374Y56988D02*
Y60335D01*
X170669Y51378D02*
Y54725D01*
D33*
X78543Y28642D02*
X83583D01*
X73307Y23406D02*
X78543Y28642D01*
X83563Y28622D02*
X83596Y28655D01*
X40860Y33484D02*
X50755Y23589D01*
X18701Y33484D02*
X40860D01*
D34*
X112008Y22236D02*
X116240D01*
D35*
X131693Y14764D02*
D03*
D36*
X108465Y29380D02*
D03*
D37*
X129577Y18602D02*
D03*
D38*
Y26280D02*
D03*
D39*
X113238Y29380D02*
D03*
D40*
X115010Y27411D02*
D03*
D41*
X5709Y13780D02*
D03*
Y33465D02*
D03*
Y23622D02*
D03*
X18701Y33465D02*
D03*
Y13780D02*
D03*
Y23622D02*
D03*
D42*
X103248Y18622D02*
D03*
X83563D02*
D03*
D43*
X103248Y28622D02*
D03*
X83563D02*
D03*
D44*
X174803Y33366D02*
D03*
X178740D02*
D03*
Y29429D02*
D03*
X174803D02*
D03*
D45*
X176205Y21064D02*
D03*
X171481Y23230D02*
D03*
X177067Y13386D02*
D03*
X179650Y21162D02*
D03*
X165673Y22934D02*
D03*
X176673Y8268D02*
D03*
X186122Y37500D02*
D03*
X180118Y4626D02*
D03*
X189862Y36614D02*
D03*
X248654Y22540D02*
D03*
X245473Y17421D02*
D03*
X222342Y4232D02*
D03*
X271850Y43012D02*
D03*
X264567Y43110D02*
D03*
X230752Y17224D02*
D03*
X242717Y30610D02*
D03*
X240354Y19488D02*
D03*
X229429Y26083D02*
D03*
X232480Y22539D02*
D03*
X237401Y14862D02*
D03*
X239567Y26083D02*
D03*
X229232Y20669D02*
D03*
X148425Y35827D02*
D03*
X103248Y8957D02*
D03*
X125984Y14567D02*
D03*
X136713Y10531D02*
D03*
X64173Y7874D02*
D03*
X61024Y39370D02*
D03*
X24803D02*
D03*
X172146Y41831D02*
D03*
X169980Y37992D02*
D03*
X160925Y36614D02*
D03*
X156299Y12992D02*
D03*
X170004Y26379D02*
D03*
X152854Y43110D02*
D03*
X154059Y37207D02*
D03*
X197638Y40748D02*
D03*
X182776Y38386D02*
D03*
X193996Y39665D02*
D03*
X166437Y42717D02*
D03*
X182382Y46555D02*
D03*
X168307Y32480D02*
D03*
X165021Y19526D02*
D03*
X204921Y36220D02*
D03*
X201870Y57776D02*
D03*
X202067Y43110D02*
D03*
X156398Y24508D02*
D03*
X182480Y57776D02*
D03*
X171063Y51083D02*
D03*
X153937Y56988D02*
D03*
X205118Y20472D02*
D03*
X147343Y8661D02*
D03*
X153150Y4331D02*
D03*
X204232Y9252D02*
D03*
X166831Y4724D02*
D03*
X158957Y8563D02*
D03*
X196260Y22835D02*
D03*
Y12795D02*
D03*
X156791Y16634D02*
D03*
X162402Y51181D02*
D03*
X196752Y16535D02*
D03*
X150000Y46161D02*
D03*
X199016Y4134D02*
D03*
X193209Y50000D02*
D03*
X229134Y30610D02*
D03*
X251969Y27657D02*
D03*
X256201Y24409D02*
D03*
X242421Y13091D02*
D03*
X282283Y39862D02*
D03*
X275492Y43012D02*
D03*
X237500Y29823D02*
D03*
X222441Y11122D02*
D03*
X119882Y37697D02*
D03*
X130315Y32185D02*
D03*
X133858Y14075D02*
D03*
X27756Y14173D02*
D03*
X72835Y31496D02*
D03*
Y13780D02*
D03*
X37402Y7874D02*
D03*
X83268Y39173D02*
D03*
X8661Y39370D02*
D03*
X9154Y7874D02*
D03*
X268209Y43110D02*
D03*
X39370Y39370D02*
D03*
X136614Y22343D02*
D03*
X119882Y32382D02*
D03*
X259842Y13484D02*
D03*
X301771Y18602D02*
D03*
X289271Y18602D02*
D03*
X216535Y26673D02*
D03*
X286024Y22441D02*
D03*
X286516Y4134D02*
D03*
X304331Y43799D02*
D03*
X304134Y3642D02*
D03*
X246260Y43209D02*
D03*
X279035Y43012D02*
D03*
X291831Y37205D02*
D03*
X282382Y34252D02*
D03*
X289271Y33366D02*
D03*
X289567Y14961D02*
D03*
X219193Y43701D02*
D03*
X216535Y29823D02*
D03*
X222342Y40256D02*
D03*
X216535Y23425D02*
D03*
X304527Y23622D02*
D03*
X222441Y32874D02*
D03*
X103248Y38780D02*
D03*
X130315Y37697D02*
D03*
X111614Y16732D02*
D03*
X112500Y9154D02*
D03*
X216831Y11516D02*
D03*
X216437Y37598D02*
D03*
X222441Y36713D02*
D03*
X116150Y5405D02*
D03*
X125098Y42126D02*
D03*
X126279Y7776D02*
D03*
X129831Y4224D02*
D03*
X188386Y3248D02*
D03*
X170374Y60335D02*
D03*
X157677Y60236D02*
D03*
X147047Y22441D02*
D03*
M02*
